{"glyphs":{"0":{"ha":1094,"x_min":58,"x_max":1025,"o":"m 58 394 q 91 637 58 529 q 185 819 124 744 q 337 934 247 894 q 542 974 426 974 q 744 934 654 974 q 896 819 833 894 q 992 637 958 744 q 1025 394 1025 529 q 994 151 1025 258 q 901 -32 963 43 q 749 -147 839 -107 q 542 -187 658 -187 q 337 -147 426 -187 q 185 -32 247 -107 q 91 151 124 43 q 58 394 58 258 m 347 394 q 363 236 347 301 q 406 130 379 171 q 468 70 433 89 q 542 51 503 51 q 617 70 582 51 q 680 130 653 89 q 722 236 707 171 q 738 394 738 301 q 722 551 738 486 q 680 657 707 617 q 617 716 653 697 q 542 735 582 735 q 468 716 503 735 q 406 657 433 697 q 363 551 379 617 q 347 394 347 486 z "},"1":{"ha":581,"x_min":28,"x_max":483,"o":"m 28 947 l 483 947 l 483 -160 l 194 -160 l 194 708 l 28 708 l 28 947 z "},"2":{"ha":1013,"x_min":51,"x_max":958,"o":"m 425 303 q 572 453 519 378 q 624 596 624 529 q 617 642 624 618 q 597 687 611 667 q 557 719 582 707 q 494 732 532 732 q 272 547 340 732 l 51 663 q 118 796 74 738 q 223 894 163 854 q 358 953 283 933 q 514 971 432 972 q 674 942 600 969 q 803 864 749 914 q 888 744 857 814 q 915 589 918 674 q 891 473 913 528 q 835 367 869 418 q 754 270 800 317 q 657 182 708 224 l 529 78 l 958 78 l 958 -160 l 82 -160 l 82 26 l 425 303 z "},"3":{"ha":1033,"x_min":53,"x_max":964,"o":"m 76 710 q 142 823 99 774 q 242 906 185 872 q 366 956 300 939 q 500 974 432 974 q 667 949 588 974 q 805 881 746 925 q 899 774 864 836 q 933 638 933 713 q 924 564 933 600 q 894 497 914 528 q 843 442 874 465 q 771 408 813 419 q 847 377 813 399 q 908 324 882 356 q 949 253 935 293 q 964 169 964 214 q 926 17 964 83 q 826 -95 889 -50 q 678 -164 763 -140 q 499 -187 593 -187 q 366 -174 433 -187 q 238 -129 299 -160 q 128 -50 178 -99 q 53 68 79 -1 l 294 179 q 370 84 315 117 q 493 51 425 51 q 558 58 526 51 q 617 78 590 64 q 659 114 643 92 q 675 168 675 136 q 657 230 675 206 q 611 269 639 254 q 548 289 583 283 q 479 294 513 294 l 367 294 l 367 506 l 479 506 q 536 510 507 506 q 590 528 565 515 q 629 564 614 542 q 644 621 644 586 q 631 672 644 650 q 596 707 618 693 q 545 728 574 721 q 488 735 517 735 q 381 700 429 735 q 307 606 332 665 l 76 710 z "},"4":{"ha":1021,"x_min":42,"x_max":979,"o":"m 42 26 l 42 265 l 521 947 l 831 947 l 831 265 l 979 265 l 979 26 l 831 26 l 831 -160 l 542 -160 l 542 26 l 42 26 m 542 604 l 311 265 l 542 265 l 542 604 z "},"5":{"ha":1032,"x_min":57,"x_max":963,"o":"m 300 203 q 377 90 331 128 q 507 51 424 51 q 628 92 582 51 q 674 199 674 132 q 626 304 674 265 q 504 346 579 343 q 356 290 406 349 l 97 290 l 97 947 l 904 947 l 904 708 l 386 708 l 386 542 q 476 574 426 564 q 578 585 525 585 q 714 560 646 585 q 838 486 782 535 q 928 366 893 438 q 963 201 963 294 q 930 51 963 122 q 838 -73 897 -19 q 694 -157 779 -126 q 506 -187 610 -187 q 342 -167 417 -187 q 208 -107 267 -146 q 111 -14 150 -68 q 57 106 72 40 l 300 203 l 300 203 z "},"6":{"ha":1035,"x_min":56,"x_max":969,"o":"m 701 947 l 526 582 q 586 586 557 586 q 723 558 654 586 q 847 481 792 531 q 935 363 901 432 q 969 211 969 294 q 930 38 969 113 q 825 -87 890 -37 q 676 -162 760 -137 q 506 -187 593 -187 q 316 -156 404 -187 q 167 -63 228 -124 q 81 84 107 -3 q 81 282 56 171 q 110 363 89 319 q 154 456 131 406 l 390 947 l 701 947 m 522 349 q 403 305 443 349 q 363 199 363 261 q 404 93 363 136 q 522 50 446 50 q 640 93 599 50 q 682 199 682 136 q 642 305 682 261 q 522 349 601 349 z "},"7":{"ha":924,"x_min":28,"x_max":875,"o":"m 454 -160 l 143 -160 l 536 708 l 28 708 l 28 947 l 875 947 l 875 769 l 454 -160 z "},"8":{"ha":1028,"x_min":69,"x_max":958,"o":"m 514 -187 q 342 -165 424 -187 q 201 -98 261 -142 q 105 8 140 -54 q 69 149 69 71 q 87 249 69 204 q 133 326 104 293 q 200 381 163 360 q 278 413 238 403 q 150 497 199 432 q 101 651 101 561 q 134 788 101 728 q 222 890 167 849 q 353 953 278 932 q 514 975 428 975 q 674 953 599 975 q 806 890 750 932 q 894 788 861 849 q 926 651 926 728 q 878 497 926 561 q 750 413 829 432 q 829 383 792 404 q 895 328 867 361 q 941 249 924 294 q 958 149 958 204 q 923 8 958 71 q 827 -98 888 -54 q 685 -165 767 -142 q 514 -187 604 -187 m 514 24 q 626 61 585 24 q 668 157 668 99 q 626 253 668 215 q 514 292 585 292 q 401 253 443 292 q 360 157 360 215 q 401 61 360 99 q 514 24 443 24 m 514 524 q 615 559 581 524 q 650 643 650 594 q 615 728 650 692 q 514 764 581 764 q 413 728 447 764 q 378 643 378 692 q 413 559 378 594 q 514 524 447 524 z "},"9":{"ha":1038,"x_min":69,"x_max":983,"o":"m 338 -160 l 513 206 q 453 201 481 201 q 316 229 385 201 q 192 306 247 257 q 103 424 138 356 q 69 576 69 493 q 109 750 69 675 q 214 875 149 825 q 363 950 279 925 q 533 975 446 975 q 723 943 635 975 q 872 851 811 911 q 958 703 932 790 q 958 506 983 615 q 929 425 950 468 q 885 332 908 382 l 649 -160 l 338 -160 m 517 439 q 636 483 596 439 q 676 589 676 526 q 635 694 676 651 q 517 738 593 738 q 399 694 440 738 q 357 589 357 651 q 397 483 357 526 q 517 439 438 439 z "}," ":{"ha":389,"x_min":0,"x_max":0,"o":""},"!":{"ha":482,"x_min":97,"x_max":385,"o":"m 97 160 l 97 1003 l 385 1003 l 385 160 l 97 160 m 97 -189 l 97 85 l 385 85 l 385 -189 l 97 -189 z "},"\"":{"ha":814,"x_min":97,"x_max":717,"o":"m 368 499 l 97 499 l 97 972 l 368 972 l 368 499 m 717 568 l 446 568 l 446 1042 l 717 1042 l 717 568 z "},"#":{"ha":1188,"x_min":42,"x_max":1146,"o":"m 97 732 l 319 732 l 361 947 l 610 947 l 568 732 l 736 732 l 778 947 l 1026 947 l 985 732 l 1146 732 l 1146 493 l 940 493 l 903 301 l 1090 301 l 1090 63 l 857 63 l 815 -160 l 568 -160 l 610 63 l 440 63 l 399 -160 l 150 -160 l 192 63 l 42 63 l 42 301 l 238 301 l 275 493 l 97 493 l 97 732 m 486 301 l 656 301 l 692 493 l 524 493 l 486 301 z "},"$":{"ha":1050,"x_min":81,"x_max":957,"o":"m 626 1017 l 626 928 q 778 882 706 914 q 928 799 850 850 l 821 618 q 731 674 781 650 q 626 711 681 697 l 626 485 q 758 440 697 464 q 863 381 818 415 q 932 298 907 347 q 957 178 957 249 q 932 60 957 111 q 863 -26 907 10 q 758 -85 818 -62 q 626 -115 697 -107 l 626 -215 l 435 -215 l 435 -114 q 246 -62 335 -100 q 81 31 157 -24 l 194 221 q 303 149 242 181 q 435 100 365 117 l 435 338 q 313 377 372 354 q 208 435 254 400 q 135 520 163 469 q 107 644 107 571 q 133 767 107 715 q 203 853 158 819 q 308 906 249 888 q 435 932 368 925 l 435 1017 l 626 1017 m 722 182 q 699 238 722 214 q 626 282 676 261 l 626 92 q 700 123 678 100 q 722 182 722 146 m 339 642 q 360 588 339 610 q 435 546 381 567 l 435 724 q 360 694 382 715 q 339 642 339 674 z "},"%":{"ha":1285,"x_min":42,"x_max":1243,"o":"m 97 -160 l 889 947 l 1179 947 l 389 -160 l 97 -160 m 42 722 q 65 828 42 781 q 126 908 88 875 q 214 958 164 940 q 317 975 264 975 q 420 958 371 975 q 508 908 469 940 q 568 828 546 875 q 590 722 590 782 q 568 617 590 664 q 508 538 546 571 q 420 488 469 506 q 317 471 371 471 q 214 488 264 471 q 126 538 164 506 q 65 617 88 571 q 42 722 42 664 m 317 657 q 365 676 347 657 q 382 722 382 694 q 365 769 382 751 q 317 788 347 788 q 267 769 285 788 q 250 722 250 750 q 267 676 250 694 q 317 657 285 657 m 694 65 q 717 171 694 124 q 778 251 740 218 q 867 301 817 283 q 969 318 917 318 q 1073 301 1024 318 q 1160 251 1122 283 q 1221 172 1199 218 q 1243 65 1243 125 q 1221 -40 1243 7 q 1160 -119 1199 -86 q 1073 -169 1122 -151 q 969 -186 1024 -186 q 867 -169 917 -186 q 778 -119 817 -151 q 717 -40 740 -86 q 694 65 694 7 m 969 0 q 1017 19 1000 0 q 1035 65 1035 38 q 1017 113 1035 94 q 969 131 1000 131 q 920 112 938 131 q 903 65 903 93 q 920 19 903 38 q 969 0 938 0 z "},"&":{"ha":1188,"x_min":69,"x_max":1160,"o":"m 797 -112 q 656 -168 732 -149 q 492 -187 581 -187 q 315 -165 393 -187 q 183 -101 238 -143 q 99 -1 128 -60 q 69 131 69 57 q 80 217 69 176 q 115 294 90 257 q 183 365 140 331 q 293 432 226 399 q 224 554 249 493 q 200 678 200 615 q 227 797 200 743 q 302 891 254 851 q 415 953 350 931 q 557 975 481 975 q 697 954 633 975 q 807 896 761 933 q 878 807 853 858 q 903 694 903 756 q 890 601 903 643 q 847 520 876 558 q 769 447 817 482 q 651 376 721 413 l 794 225 q 839 390 826 303 l 1100 390 q 1057 201 1089 290 q 969 39 1025 113 l 1160 -161 l 843 -161 l 797 -112 m 508 24 q 642 53 583 24 l 436 271 q 379 232 400 250 q 347 198 358 214 q 333 167 336 182 q 331 136 331 151 q 376 53 331 83 q 508 24 421 24 m 461 671 q 517 532 461 613 q 616 605 590 571 q 642 678 642 639 q 619 739 642 714 q 557 764 597 764 q 490 740 518 764 q 461 671 461 715 z "},"'":{"ha":479,"x_min":106,"x_max":376,"o":"m 376 568 l 106 568 l 106 1042 l 376 1042 l 376 568 z "},"(":{"ha":669,"x_min":69,"x_max":640,"o":"m 69 401 q 83 576 69 493 q 125 734 96 658 q 201 880 154 810 q 317 1017 249 950 l 640 1017 q 431 734 504 886 q 358 401 358 582 q 431 68 358 221 q 640 -215 504 -85 l 317 -215 q 201 -78 249 -149 q 125 68 154 -8 q 83 227 96 144 q 69 401 69 310 z "},")":{"ha":669,"x_min":29,"x_max":600,"o":"m 600 401 q 587 227 600 310 q 544 68 574 144 q 468 -78 515 -8 q 353 -215 421 -149 l 29 -215 q 238 68 165 -85 q 311 401 311 221 q 238 734 311 582 q 29 1017 165 886 l 353 1017 q 468 880 421 950 q 544 734 515 810 q 587 576 574 658 q 600 401 600 493 z "},"*":{"ha":653,"x_min":28,"x_max":625,"o":"m 625 686 l 483 644 l 579 517 l 428 403 l 329 539 l 231 403 l 78 517 l 171 644 l 28 686 l 99 878 l 232 825 l 232 982 l 424 982 l 424 825 l 554 876 l 625 686 z "},"+":{"ha":956,"x_min":97,"x_max":858,"o":"m 97 539 l 333 539 l 333 753 l 622 753 l 622 539 l 858 539 l 858 300 l 622 300 l 622 63 l 333 63 l 333 300 l 97 300 l 97 539 z "},",":{"ha":396,"x_min":78,"x_max":363,"o":"m 363 -161 q 342 -249 363 -211 q 284 -315 321 -287 q 195 -357 247 -342 q 81 -376 143 -372 l 81 -262 q 192 -233 160 -257 q 224 -169 224 -210 l 78 -169 l 78 97 l 363 97 l 363 -161 z "},"-":{"ha":956,"x_min":97,"x_max":858,"o":"m 97 539 l 858 539 l 858 300 l 97 300 l 97 539 z "},".":{"ha":432,"x_min":78,"x_max":363,"o":"m 78 -169 l 78 97 l 363 97 l 363 -169 l 78 -169 z "},"/":{"ha":821,"x_min":28,"x_max":790,"o":"m 28 -160 l 486 947 l 790 947 l 343 -160 l 28 -160 z "},":":{"ha":479,"x_min":97,"x_max":382,"o":"m 97 -21 l 97 246 l 382 246 l 382 -21 l 97 -21 m 97 576 l 97 843 l 382 843 l 382 576 l 97 576 z "},";":{"ha":479,"x_min":97,"x_max":382,"o":"m 97 576 l 97 843 l 382 843 l 382 576 l 97 576 m 382 -12 q 361 -101 382 -62 q 303 -166 340 -139 q 215 -208 267 -193 q 100 -228 163 -224 l 100 -114 q 211 -85 179 -108 q 243 -21 243 -61 l 97 -21 l 97 246 l 382 246 l 382 -12 z "},"<":{"ha":847,"x_min":97,"x_max":819,"o":"m 819 -46 l 624 -242 l 97 285 l 97 508 l 624 1035 l 819 839 l 375 397 l 819 -46 z "},"=":{"ha":956,"x_min":97,"x_max":858,"o":"m 97 706 l 858 706 l 858 467 l 97 467 l 97 706 m 97 372 l 858 372 l 858 133 l 97 133 l 97 372 z "},">":{"ha":847,"x_min":28,"x_max":750,"o":"m 472 397 l 28 839 l 224 1035 l 750 508 l 750 285 l 224 -242 l 28 -46 l 472 397 z "},"?":{"ha":949,"x_min":26,"x_max":879,"o":"m 303 479 q 406 500 354 485 q 499 539 458 515 q 565 595 539 563 q 590 668 590 628 q 577 721 590 697 q 543 760 564 744 q 496 784 522 776 q 443 792 469 792 q 386 782 415 792 q 331 753 357 772 q 283 704 304 733 q 253 636 263 675 l 26 736 q 90 873 47 817 q 192 965 133 929 q 319 1016 250 1000 q 460 1032 388 1032 q 640 1003 561 1032 q 771 927 718 975 q 851 816 824 879 q 879 685 879 753 q 856 568 879 624 q 794 467 833 513 q 703 388 756 421 q 590 338 650 354 l 590 160 l 303 160 l 303 479 m 303 83 l 590 83 l 590 -189 l 303 -189 l 303 83 z "},"@":{"ha":1410,"x_min":69,"x_max":1340,"o":"m 1075 -135 q 894 -186 988 -171 q 701 -201 801 -201 q 447 -156 563 -201 q 247 -31 331 -111 q 116 159 163 50 q 69 396 69 268 q 117 628 69 519 q 248 817 164 736 q 449 944 332 897 q 706 990 565 990 q 965 948 849 990 q 1165 832 1082 906 q 1294 658 1249 758 q 1340 442 1340 558 q 1317 301 1340 365 q 1251 189 1294 236 q 1144 115 1207 142 q 1003 89 1082 89 q 897 105 944 89 q 825 160 849 121 l 824 160 q 748 113 793 131 q 650 96 703 96 q 535 118 588 96 q 446 179 483 140 q 388 272 408 218 q 367 389 367 326 q 390 508 367 453 q 451 602 413 563 q 542 665 490 642 q 650 688 593 688 q 739 676 696 688 q 810 640 782 665 l 829 679 l 989 679 l 989 331 q 1000 287 989 300 q 1039 274 1011 274 q 1113 435 1113 274 q 1084 585 1113 519 q 1002 697 1056 651 q 873 767 949 743 q 704 790 797 790 q 538 762 613 790 q 409 682 463 733 q 326 558 356 631 q 297 396 297 485 q 326 233 297 306 q 408 108 356 160 q 536 29 461 57 q 701 1 611 1 q 878 12 800 1 q 1022 46 957 22 l 1075 -135 m 776 389 q 749 460 776 433 q 676 488 721 488 q 608 460 635 488 q 581 389 581 433 q 608 321 581 347 q 676 294 636 294 q 749 321 721 294 q 776 389 776 347 z "},"A":{"ha":1169,"x_min":28,"x_max":1142,"o":"m 28 -160 l 403 947 l 767 947 l 1142 -160 l 853 -160 l 747 150 l 389 51 l 317 -160 l 28 -160 m 478 314 l 672 368 l 585 628 l 478 314 z "},"B":{"ha":1185,"x_min":97,"x_max":1115,"o":"m 1063 654 q 1035 517 1063 579 q 949 411 1008 456 q 1013 375 983 397 q 1066 321 1043 353 q 1102 246 1089 289 q 1115 149 1115 203 q 1090 7 1115 65 q 1022 -89 1065 -51 q 919 -143 978 -126 q 794 -160 861 -160 l 97 -160 l 97 947 l 742 947 q 867 933 808 947 q 969 883 925 918 q 1038 793 1013 849 q 1063 654 1063 738 m 821 192 q 808 241 821 219 q 776 277 796 263 q 731 300 756 292 q 679 313 706 308 l 379 231 l 379 71 l 679 71 q 781 99 740 71 q 821 192 821 126 m 686 543 q 757 582 733 554 q 781 643 781 610 q 751 697 781 679 q 686 715 722 715 l 379 715 l 379 468 l 686 543 z "},"C":{"ha":1231,"x_min":69,"x_max":1199,"o":"m 69 394 q 116 629 69 522 q 244 813 163 736 q 436 933 325 890 q 675 976 547 976 q 972 906 847 976 q 1197 699 1097 836 l 1007 539 q 877 685 956 631 q 682 739 799 739 q 550 713 610 739 q 448 640 490 686 q 382 530 406 593 q 358 394 358 467 q 381 260 358 322 q 447 151 404 197 q 551 78 490 104 q 685 51 611 51 q 792 65 744 51 q 880 106 840 79 q 952 169 919 132 q 1013 254 985 207 l 1199 89 q 978 -115 1104 -43 q 675 -187 853 -187 q 436 -144 547 -187 q 244 -24 325 -101 q 116 160 163 53 q 69 394 69 267 z "},"D":{"ha":1185,"x_min":97,"x_max":1115,"o":"m 97 947 l 633 947 q 835 905 746 947 q 988 789 925 863 q 1083 615 1050 715 q 1115 396 1115 514 q 1080 172 1115 274 q 976 -4 1044 69 q 806 -119 907 -78 q 574 -160 706 -160 l 97 -160 l 97 947 m 386 79 l 557 79 q 676 105 625 79 q 760 174 726 131 q 810 276 793 218 q 826 400 826 335 q 807 520 826 464 q 751 618 788 576 q 660 684 714 660 q 535 708 606 708 l 386 708 l 386 79 z "},"E":{"ha":1040,"x_min":97,"x_max":972,"o":"m 932 525 l 932 286 l 386 286 l 386 78 l 972 78 l 972 -160 l 97 -160 l 97 947 l 958 947 l 958 708 l 386 708 l 386 525 l 932 525 z "},"F":{"ha":986,"x_min":97,"x_max":958,"o":"m 932 525 l 932 286 l 386 286 l 386 -160 l 97 -160 l 97 947 l 958 947 l 958 708 l 386 708 l 386 525 l 932 525 z "},"G":{"ha":1293,"x_min":69,"x_max":1224,"o":"m 667 51 q 849 103 778 51 q 933 249 919 154 l 640 249 l 640 488 l 1224 488 l 1224 333 q 1180 108 1224 206 q 1060 -54 1136 11 q 883 -153 985 -119 q 668 -187 782 -187 q 433 -144 542 -187 q 243 -24 324 -101 q 116 160 163 53 q 69 394 69 267 q 116 629 69 522 q 244 813 163 736 q 436 933 325 890 q 675 976 547 976 q 972 906 847 976 q 1197 699 1097 836 l 1007 539 q 872 685 956 631 q 671 739 788 739 q 551 714 608 739 q 452 644 494 689 q 384 535 410 599 q 358 394 358 472 q 382 253 358 317 q 447 145 406 190 q 545 76 489 100 q 667 51 601 51 z "},"H":{"ha":1188,"x_min":97,"x_max":1090,"o":"m 801 -160 l 801 358 l 386 244 l 386 -160 l 97 -160 l 97 947 l 386 947 l 386 482 l 801 597 l 801 947 l 1090 947 l 1090 -160 l 801 -160 z "},"I":{"ha":483,"x_min":97,"x_max":386,"o":"m 386 947 l 386 -160 l 97 -160 l 97 947 l 386 947 z "},"J":{"ha":901,"x_min":26,"x_max":804,"o":"m 175 149 q 256 82 211 108 q 358 56 301 56 q 426 69 396 56 q 475 107 456 83 q 505 162 494 131 q 515 229 515 193 l 515 947 l 804 947 l 804 244 q 774 65 804 146 q 685 -73 743 -15 q 545 -160 628 -131 q 358 -187 463 -190 q 183 -151 267 -183 q 26 -51 100 -118 l 175 149 z "},"K":{"ha":1068,"x_min":97,"x_max":1040,"o":"m 722 -160 l 386 310 l 386 -160 l 97 -160 l 97 947 l 386 947 l 386 531 l 722 947 l 1040 947 l 613 417 l 1040 -160 l 722 -160 z "},"L":{"ha":943,"x_min":97,"x_max":915,"o":"m 97 947 l 386 947 l 386 79 l 915 79 l 915 -160 l 97 -160 l 97 947 z "},"M":{"ha":1429,"x_min":97,"x_max":1335,"o":"m 1039 947 l 1335 947 l 1335 -160 l 1046 -160 l 1046 393 l 819 -160 l 613 -160 l 386 393 l 386 -160 l 97 -160 l 97 947 l 393 947 l 715 160 l 1039 947 z "},"N":{"ha":1188,"x_min":97,"x_max":1090,"o":"m 97 947 l 386 947 l 801 276 l 801 947 l 1090 947 l 1090 -160 l 801 -160 l 386 524 l 386 -160 l 97 -160 l 97 947 z "},"O":{"ha":1354,"x_min":69,"x_max":1285,"o":"m 69 396 q 116 629 69 522 q 244 813 163 736 q 436 933 325 890 q 678 976 547 976 q 921 933 810 976 q 1113 813 1032 890 q 1240 629 1194 736 q 1285 396 1285 522 q 1240 161 1285 268 q 1113 -24 1194 54 q 921 -144 1032 -101 q 678 -187 810 -187 q 436 -144 547 -187 q 244 -24 325 -101 q 116 161 163 54 q 69 396 69 268 m 358 396 q 381 256 358 319 q 446 147 404 193 q 547 76 488 101 q 678 50 606 50 q 809 76 750 50 q 910 147 868 101 q 974 256 951 193 q 997 396 997 319 q 974 532 997 469 q 910 640 951 594 q 809 712 868 686 q 678 738 750 738 q 547 712 606 738 q 446 640 488 686 q 381 532 404 594 q 358 396 358 469 z "},"P":{"ha":1131,"x_min":97,"x_max":1061,"o":"m 97 947 l 718 947 q 853 928 790 947 q 963 869 917 908 q 1035 767 1008 829 q 1061 619 1061 704 q 1040 477 1061 536 q 978 377 1019 418 q 874 309 936 336 q 732 264 813 282 l 386 188 l 386 -160 l 97 -160 l 97 947 m 774 613 q 748 680 774 651 q 679 708 722 708 l 386 708 l 386 440 l 650 489 q 747 535 721 501 q 774 613 774 568 z "},"Q":{"ha":1354,"x_min":69,"x_max":1285,"o":"m 69 396 q 116 629 69 522 q 244 813 163 736 q 436 933 325 890 q 678 976 547 976 q 921 933 810 976 q 1113 813 1032 890 q 1240 629 1194 736 q 1285 396 1285 522 q 1254 199 1285 290 q 1167 36 1224 108 l 1271 -68 l 1104 -236 l 983 -115 q 840 -169 917 -150 q 678 -187 764 -187 q 436 -144 547 -187 q 244 -24 325 -101 q 116 161 163 54 q 69 396 69 268 m 863 340 l 969 232 q 997 396 997 304 q 974 532 997 469 q 910 640 951 594 q 809 712 868 686 q 678 738 750 738 q 547 712 606 738 q 446 640 488 686 q 381 532 404 594 q 358 396 358 469 q 381 256 358 319 q 446 147 404 193 q 547 76 488 101 q 678 50 606 50 q 800 68 747 50 l 696 172 l 863 340 z "},"R":{"ha":1151,"x_min":97,"x_max":1124,"o":"m 97 947 l 718 947 q 853 928 790 947 q 963 869 917 908 q 1035 767 1008 829 q 1061 619 1061 704 q 1024 440 1061 508 q 913 329 986 371 l 1124 -160 l 822 -160 l 650 246 l 386 188 l 386 -160 l 97 -160 l 97 947 m 774 613 q 748 680 774 651 q 679 708 722 708 l 386 708 l 386 440 l 650 489 q 747 535 721 501 q 774 613 774 568 z "},"S":{"ha":1058,"x_min":60,"x_max":989,"o":"m 182 201 q 354 100 256 139 q 557 63 453 61 q 658 83 626 64 q 690 142 690 103 q 653 215 690 188 q 531 267 617 243 q 379 312 457 288 q 238 376 301 336 q 133 479 174 417 q 92 640 92 542 q 126 791 92 728 q 219 895 160 854 q 356 956 278 936 q 522 975 435 975 q 638 967 583 975 q 747 941 693 958 q 852 897 800 924 q 960 833 904 871 l 846 611 q 699 692 779 663 q 529 724 618 721 q 474 722 500 725 q 429 709 449 718 q 398 686 410 700 q 386 651 386 672 q 392 615 386 631 q 417 585 399 599 q 469 557 435 571 q 560 528 503 543 q 727 476 649 503 q 864 408 806 449 q 956 306 922 367 q 989 151 989 244 q 956 1 989 65 q 863 -104 922 -62 q 721 -167 803 -146 q 542 -187 639 -187 q 283 -146 403 -187 q 60 -31 163 -104 l 182 201 z "},"T":{"ha":1075,"x_min":42,"x_max":1033,"o":"m 682 708 l 682 -160 l 393 -160 l 393 708 l 42 708 l 42 947 l 1033 947 l 1033 708 l 682 708 z "},"U":{"ha":1188,"x_min":97,"x_max":1090,"o":"m 593 -187 q 401 -156 490 -187 q 243 -65 311 -124 q 136 76 175 -7 q 97 261 97 158 l 97 947 l 386 947 l 386 275 q 400 192 386 231 q 440 124 414 153 q 506 77 467 94 q 593 60 544 60 q 681 77 642 60 q 747 124 719 94 q 788 192 774 153 q 801 275 801 231 l 801 947 l 1090 947 l 1090 261 q 1051 76 1090 158 q 944 -65 1011 -7 q 785 -156 876 -124 q 593 -187 694 -187 z "},"V":{"ha":1169,"x_min":28,"x_max":1142,"o":"m 317 947 l 585 160 l 853 947 l 1142 947 l 767 -160 l 403 -160 l 28 947 l 317 947 z "},"W":{"ha":1471,"x_min":29,"x_max":1436,"o":"m 317 947 l 458 307 l 592 947 l 874 947 l 1000 296 l 1149 947 l 1436 947 l 1156 -160 l 868 -160 l 731 539 l 596 -160 l 310 -160 l 29 947 l 317 947 z "},"X":{"ha":1100,"x_min":28,"x_max":1068,"o":"m 346 947 l 547 638 l 750 947 l 1068 947 l 710 389 l 1068 -160 l 739 -160 l 547 138 l 357 -160 l 28 -160 l 386 389 l 28 947 l 346 947 z "},"Y":{"ha":1124,"x_min":28,"x_max":1097,"o":"m 346 947 l 563 582 l 779 947 l 1097 947 l 706 303 l 706 -160 l 417 -160 l 417 307 l 28 947 l 346 947 z "},"Z":{"ha":1006,"x_min":69,"x_max":936,"o":"m 69 -160 l 69 79 l 553 693 l 96 693 l 96 947 l 914 947 l 914 725 l 426 94 l 936 94 l 936 -160 l 69 -160 z "},"[":{"ha":596,"x_min":97,"x_max":568,"o":"m 568 1017 l 568 778 l 386 778 l 386 24 l 568 24 l 568 -215 l 97 -215 l 97 1017 l 568 1017 z "},"\\":{"ha":1471,"x_min":28,"x_max":1440,"o":"m 1440 319 l 1254 319 l 1139 -146 l 881 -146 l 793 319 l 674 319 l 588 -146 l 329 -146 l 213 319 l 28 319 l 28 485 l 171 485 l 60 933 l 282 933 l 386 485 l 518 485 l 600 933 l 868 933 l 950 485 l 1082 485 l 1186 933 l 1408 933 l 1296 485 l 1440 485 l 1440 319 m 460 168 l 488 319 l 424 319 l 460 168 m 1008 169 l 1043 319 l 981 319 l 1008 169 m 704 485 l 763 485 l 733 639 l 704 485 z "},"]":{"ha":596,"x_min":28,"x_max":499,"o":"m 499 1017 l 499 -215 l 28 -215 l 28 24 l 210 24 l 210 778 l 28 778 l 28 1017 l 499 1017 z "},"^":{"ha":738,"x_min":26,"x_max":711,"o":"m 501 994 l 711 613 l 444 613 l 371 765 l 297 613 l 26 613 l 236 994 l 501 994 z "},"_":{"ha":678,"x_min":28,"x_max":650,"o":"m 28 51 l 650 51 l 650 -187 l 28 -187 l 28 51 z "},"`":{"ha":543,"x_min":28,"x_max":517,"o":"m 258 626 l 28 994 l 317 994 l 517 626 l 258 626 z "},"a":{"ha":1157,"x_min":69,"x_max":1060,"o":"m 814 664 l 1060 664 l 1060 -160 l 813 -160 l 790 -93 q 659 -165 732 -142 q 508 -187 586 -189 q 331 -153 411 -186 q 192 -61 250 -119 q 101 76 133 -3 q 69 250 69 156 q 103 428 69 347 q 197 568 138 510 q 335 659 256 626 q 507 692 415 692 q 658 671 588 692 q 789 606 729 650 l 814 664 m 551 51 q 692 107 639 51 q 744 250 744 163 q 692 397 744 342 q 551 451 639 451 q 411 397 464 451 q 358 250 358 342 q 411 107 358 163 q 551 51 464 51 z "},"b":{"ha":1157,"x_min":97,"x_max":1088,"o":"m 385 617 q 509 674 443 656 q 650 692 575 692 q 822 659 742 692 q 960 568 901 626 q 1053 428 1019 510 q 1088 250 1088 347 q 1056 76 1088 156 q 965 -61 1024 -3 q 826 -153 907 -119 q 649 -187 746 -186 q 497 -165 569 -189 q 367 -93 425 -142 l 344 -160 l 97 -160 l 97 947 l 385 947 l 385 617 m 606 51 q 746 107 693 51 q 799 250 799 163 q 746 397 799 342 q 606 451 693 451 q 465 397 518 451 q 413 250 413 342 q 465 107 413 163 q 606 51 518 51 z "},"c":{"ha":1000,"x_min":69,"x_max":958,"o":"m 561 467 q 411 407 465 467 q 357 251 357 347 q 371 167 357 206 q 411 99 385 128 q 475 54 438 71 q 561 38 513 38 q 681 67 628 38 q 769 157 733 97 l 957 0 q 879 -83 921 -46 q 789 -146 838 -119 q 682 -187 740 -172 q 554 -201 624 -201 q 363 -169 451 -201 q 208 -78 274 -137 q 106 64 143 -19 q 69 251 69 147 q 107 439 69 356 q 210 582 144 522 q 363 674 275 642 q 554 706 451 706 q 784 652 685 706 q 958 503 883 599 l 769 347 q 683 435 736 404 q 561 467 631 467 z "},"d":{"ha":1157,"x_min":69,"x_max":1060,"o":"m 772 947 l 1060 947 l 1060 -160 l 813 -160 l 790 -93 q 659 -165 732 -142 q 508 -187 586 -189 q 331 -153 411 -186 q 192 -61 250 -119 q 101 76 133 -3 q 69 250 69 156 q 103 428 69 347 q 197 568 138 510 q 335 659 256 626 q 507 692 415 692 q 648 674 582 692 q 772 617 714 656 l 772 947 m 551 51 q 692 107 639 51 q 744 250 744 163 q 692 397 744 342 q 551 451 639 451 q 411 397 464 451 q 358 250 358 342 q 411 107 358 163 q 551 51 464 51 z "},"e":{"ha":1100,"x_min":69,"x_max":1033,"o":"m 375 103 q 557 24 438 24 q 700 49 640 24 q 813 132 760 75 l 1000 -7 q 819 -150 921 -99 q 579 -201 717 -201 q 374 -170 467 -201 q 213 -81 281 -139 q 107 62 144 -22 q 69 251 69 146 q 108 438 69 354 q 213 581 146 522 q 368 673 279 640 q 558 706 457 706 q 750 674 663 706 q 900 585 838 643 q 998 442 963 526 q 1033 250 1033 357 l 375 103 m 568 483 q 413 438 474 483 q 335 310 351 392 l 740 400 q 669 460 713 436 q 568 483 626 483 z "},"f":{"ha":697,"x_min":28,"x_max":669,"o":"m 467 -160 l 178 -160 l 178 397 l 28 397 l 28 636 l 178 636 l 178 701 q 198 803 178 757 q 253 881 218 849 q 335 930 289 913 q 433 947 381 947 l 669 947 l 669 708 l 540 708 q 486 688 506 708 q 467 636 467 668 l 656 636 l 656 397 l 467 397 l 467 -160 z "},"g":{"ha":1157,"x_min":69,"x_max":1060,"o":"m 1060 -128 q 1026 -297 1060 -221 q 931 -428 992 -374 q 785 -515 869 -483 q 601 -549 701 -546 q 427 -533 513 -551 q 273 -474 342 -515 q 160 -367 204 -433 q 108 -204 115 -300 l 397 -204 q 415 -251 400 -231 q 455 -284 431 -271 q 508 -304 479 -297 q 568 -311 538 -311 q 644 -300 607 -311 q 709 -267 681 -289 q 754 -215 738 -246 q 771 -144 771 -185 l 771 -60 q 649 -137 718 -112 q 508 -160 579 -161 q 337 -127 417 -158 q 197 -40 257 -96 q 103 92 138 15 q 69 264 69 169 q 105 440 69 361 q 201 575 140 519 q 340 661 261 631 q 507 692 419 692 q 658 671 588 692 q 789 606 729 650 l 814 664 l 1060 664 l 1060 -128 m 551 79 q 625 91 590 79 q 686 126 660 103 q 728 183 713 149 q 744 264 744 218 q 728 348 744 313 q 686 406 713 383 q 625 440 660 429 q 551 451 590 451 q 478 440 513 451 q 417 406 443 429 q 374 348 390 383 q 358 264 358 313 q 374 183 358 218 q 417 126 390 149 q 478 91 443 103 q 551 79 513 79 z "},"h":{"ha":1088,"x_min":97,"x_max":990,"o":"m 386 619 q 493 673 435 654 q 603 692 551 692 q 757 667 686 692 q 880 599 828 643 q 961 493 932 554 q 990 358 990 432 l 990 -160 l 701 -160 l 701 269 q 689 356 701 321 q 656 413 676 392 q 608 444 635 435 q 553 453 581 453 q 445 415 490 453 q 386 314 400 376 l 386 -160 l 97 -160 l 97 947 l 386 947 l 386 619 z "},"i":{"ha":483,"x_min":97,"x_max":386,"o":"m 386 664 l 386 -160 l 97 -160 l 97 664 l 386 664 m 386 986 l 386 747 l 97 747 l 97 986 l 386 986 z "},"j":{"ha":533,"x_min":0,"x_max":436,"o":"m 436 986 l 436 747 l 147 747 l 147 986 l 436 986 m 147 664 l 436 664 l 436 40 q 416 -92 436 -37 q 361 -182 396 -147 q 280 -232 326 -217 q 181 -247 233 -247 l 0 -247 l 0 -8 l 75 -8 q 127 12 107 -8 q 147 81 147 32 l 147 664 z "},"k":{"ha":1018,"x_min":97,"x_max":989,"o":"m 633 -160 l 386 119 l 386 -160 l 97 -160 l 97 947 l 386 947 l 386 425 l 633 664 l 979 664 l 586 286 l 989 -160 l 633 -160 z "},"l":{"ha":483,"x_min":97,"x_max":386,"o":"m 386 947 l 386 -160 l 97 -160 l 97 947 l 386 947 z "},"m":{"ha":1442,"x_min":97,"x_max":1344,"o":"m 865 -160 l 576 -160 l 576 339 q 552 419 576 388 q 482 451 528 451 q 443 441 460 451 q 415 415 426 431 q 397 378 404 399 q 386 339 389 358 l 386 -160 l 97 -160 l 97 664 l 344 664 l 367 606 q 463 671 408 651 q 569 692 517 690 q 691 664 632 693 q 793 579 750 635 q 913 668 844 643 q 1047 692 982 693 q 1158 666 1104 690 q 1253 597 1211 642 q 1319 488 1294 551 q 1344 344 1344 424 l 1344 -160 l 1056 -160 l 1056 339 q 1031 419 1056 388 q 961 451 1007 451 q 895 424 918 451 q 865 353 872 396 l 865 -160 z "},"n":{"ha":1088,"x_min":97,"x_max":990,"o":"m 367 606 q 421 641 392 625 q 481 668 450 657 q 544 685 513 679 q 603 692 575 692 q 757 667 686 692 q 880 599 828 643 q 961 493 932 554 q 990 358 990 432 l 990 -160 l 701 -160 l 701 269 q 689 356 701 321 q 656 413 676 392 q 608 444 635 435 q 553 453 581 453 q 445 415 490 453 q 386 314 400 376 l 386 -160 l 97 -160 l 97 664 l 344 664 l 367 606 z "},"o":{"ha":1126,"x_min":69,"x_max":1058,"o":"m 69 250 q 109 440 69 356 q 216 584 149 525 q 373 674 283 643 q 564 706 463 706 q 757 674 667 706 q 914 585 847 643 q 1019 442 981 526 q 1058 251 1058 357 q 1019 63 1058 147 q 914 -80 981 -21 q 757 -170 847 -139 q 564 -201 667 -201 q 373 -170 463 -201 q 216 -81 283 -139 q 109 62 149 -22 q 69 250 69 146 m 564 36 q 650 53 611 36 q 715 98 689 69 q 756 165 742 126 q 771 250 771 204 q 756 337 771 297 q 715 406 742 376 q 650 451 689 435 q 564 467 611 467 q 477 450 515 467 q 412 404 439 433 q 371 335 385 375 q 357 250 357 296 q 371 165 357 204 q 412 98 385 126 q 477 53 439 69 q 564 36 515 36 z "},"p":{"ha":1157,"x_min":97,"x_max":1088,"o":"m 343 664 l 367 606 q 498 671 428 650 q 650 692 568 692 q 822 659 742 692 q 960 568 901 626 q 1053 428 1019 510 q 1088 250 1088 347 q 1056 76 1088 156 q 965 -61 1024 -3 q 826 -153 907 -119 q 649 -187 746 -186 q 510 -169 576 -189 q 386 -108 443 -149 l 386 -481 l 97 -481 l 97 664 l 343 664 m 606 51 q 746 107 693 51 q 799 250 799 163 q 746 397 799 342 q 606 451 693 451 q 465 397 518 451 q 413 250 413 342 q 465 107 413 163 q 606 51 518 51 z "},"q":{"ha":1157,"x_min":69,"x_max":1060,"o":"m 814 664 l 1060 664 l 1060 -481 l 771 -481 l 771 -108 q 647 -169 714 -149 q 508 -187 579 -189 q 331 -153 411 -186 q 192 -61 250 -119 q 101 76 133 -3 q 69 250 69 156 q 103 428 69 347 q 197 568 138 510 q 335 659 256 626 q 507 692 415 692 q 658 671 588 692 q 789 606 729 650 l 814 664 m 551 51 q 692 107 639 51 q 744 250 744 163 q 692 397 744 342 q 551 451 639 451 q 411 397 464 451 q 358 250 358 342 q 411 107 358 163 q 551 51 464 51 z "},"r":{"ha":764,"x_min":97,"x_max":725,"o":"m 363 592 q 443 646 394 628 q 544 664 492 664 l 725 664 l 675 425 l 508 425 q 461 414 483 425 q 422 383 439 403 q 396 338 406 364 q 386 281 386 311 l 386 -160 l 97 -160 l 97 664 l 344 664 l 363 592 z "},"s":{"ha":863,"x_min":49,"x_max":818,"o":"m 696 407 q 638 437 669 424 q 576 460 607 450 q 515 475 544 469 q 463 481 485 481 q 365 432 365 481 q 388 396 365 408 q 446 374 410 383 q 585 332 518 354 q 705 277 653 310 q 788 198 757 244 q 818 83 818 151 q 788 -44 818 10 q 708 -133 758 -99 q 588 -185 657 -168 q 443 -201 519 -201 q 240 -172 339 -201 q 49 -79 140 -142 l 150 119 q 208 83 175 100 q 278 53 242 65 q 351 33 314 40 q 422 25 389 25 q 505 35 481 24 q 529 76 529 47 q 496 121 529 106 q 417 149 463 136 q 276 192 339 169 q 170 249 214 215 q 102 328 126 282 q 76 440 78 374 q 106 561 75 511 q 189 643 138 611 q 305 690 240 675 q 436 706 369 706 q 633 672 546 706 q 789 597 721 639 l 696 407 l 696 407 z "},"t":{"ha":697,"x_min":28,"x_max":669,"o":"m 467 664 l 656 664 l 656 425 l 467 425 l 467 153 q 486 99 467 119 q 540 79 506 79 l 669 79 l 669 -160 l 433 -160 q 335 -142 381 -160 q 253 -93 289 -125 q 198 -16 218 -61 q 178 86 178 29 l 178 425 l 28 425 l 28 664 l 178 664 l 178 947 l 467 947 l 467 664 z "},"u":{"ha":1088,"x_min":97,"x_max":990,"o":"m 721 -101 q 606 -165 671 -142 q 485 -187 542 -187 q 331 -163 401 -187 q 208 -94 260 -139 q 126 11 156 -50 q 97 146 97 72 l 97 664 l 386 664 l 386 235 q 399 148 386 183 q 432 91 411 113 q 480 60 453 69 q 535 51 507 51 q 642 90 597 51 q 701 190 688 128 l 701 664 l 990 664 l 990 -160 l 743 -160 l 721 -101 z "},"v":{"ha":1024,"x_min":28,"x_max":994,"o":"m 675 -160 l 347 -160 l 28 664 l 325 664 l 511 160 l 697 664 l 994 664 l 675 -160 z "},"w":{"ha":1315,"x_min":28,"x_max":1286,"o":"m 794 664 l 907 233 l 1028 664 l 1286 664 l 1040 -160 l 793 -160 l 657 354 l 521 -160 l 274 -160 l 28 664 l 286 664 l 406 233 l 519 664 l 794 664 z "},"x":{"ha":1036,"x_min":28,"x_max":1008,"o":"m 365 664 l 518 468 l 671 664 l 994 664 l 679 261 l 1008 -160 l 685 -160 l 518 53 l 351 -160 l 28 -160 l 356 261 l 42 664 l 365 664 z "},"y":{"ha":1088,"x_min":97,"x_max":990,"o":"m 990 -128 q 958 -297 990 -221 q 870 -428 926 -374 q 736 -513 814 -482 q 567 -549 658 -544 q 407 -534 486 -551 q 264 -475 328 -517 q 158 -367 200 -433 q 108 -204 115 -300 l 397 -204 q 443 -284 403 -257 q 533 -311 483 -311 q 599 -300 568 -311 q 652 -267 629 -289 q 688 -215 675 -246 q 701 -144 701 -185 l 701 -79 q 601 -139 658 -118 q 485 -160 543 -160 q 331 -135 401 -160 q 208 -67 260 -111 q 126 39 156 -22 q 97 174 97 100 l 97 664 l 386 664 l 386 263 q 399 176 386 211 q 432 119 411 140 q 480 88 453 97 q 535 79 507 79 q 642 117 597 79 q 701 218 688 156 l 701 664 l 990 664 l 990 -128 z "},"z":{"ha":965,"x_min":69,"x_max":894,"o":"m 69 -160 l 69 53 l 489 425 l 100 425 l 100 665 l 865 665 l 865 454 l 440 79 l 894 79 l 894 -160 l 69 -160 z "},"{":{"ha":624,"x_min":28,"x_max":596,"o":"m 274 394 q 402 320 363 375 q 442 178 442 265 l 442 124 q 483 34 442 58 q 596 10 524 10 l 596 -229 q 416 -209 497 -229 q 276 -149 335 -189 q 185 -51 218 -110 q 153 86 153 8 l 153 144 q 120 246 153 217 q 28 275 88 275 l 28 514 q 120 543 88 514 q 153 644 153 572 l 153 703 q 185 840 153 781 q 276 938 218 899 q 416 998 335 978 q 596 1018 497 1018 l 596 779 q 483 755 524 779 q 442 665 442 731 l 442 611 q 402 469 442 524 q 274 394 363 414 z "},"|":{"ha":483,"x_min":97,"x_max":386,"o":"m 386 989 l 386 -201 l 97 -201 l 97 989 l 386 989 z "},"}":{"ha":624,"x_min":28,"x_max":596,"o":"m 350 394 q 222 469 261 414 q 182 611 182 524 l 182 665 q 141 755 182 731 q 28 779 100 779 l 28 1018 q 207 998 125 1018 q 347 938 289 978 q 438 840 406 899 q 471 703 471 781 l 471 644 q 503 543 471 572 q 596 514 536 514 l 596 275 q 503 246 536 275 q 471 144 471 217 l 471 86 q 438 -51 471 8 q 347 -149 406 -110 q 207 -209 289 -189 q 28 -229 125 -229 l 28 10 q 141 34 100 10 q 182 124 182 58 l 182 178 q 222 320 182 265 q 350 394 261 375 z "},"~":{"ha":899,"x_min":97,"x_max":801,"o":"m 283 603 q 373 588 326 603 q 458 557 419 574 q 546 525 499 539 q 638 511 593 511 q 727 523 689 511 q 801 560 765 535 l 801 321 q 717 286 764 299 q 615 274 671 274 q 526 288 572 274 q 440 318 479 301 q 353 351 400 336 q 261 365 306 365 q 172 356 210 365 q 97 328 133 347 l 97 567 q 180 593 133 583 q 283 603 226 603 z "},"、":{"ha":1306,"x_min":74,"x_max":429,"o":"m 74 22 l 74 197 l 429 56 l 429 -206 l 74 22 z "},"。":{"ha":1306,"x_min":92,"x_max":444,"o":"m 444 0 q 431 -69 444 -37 q 394 -125 418 -101 q 338 -162 371 -149 q 268 -175 306 -175 q 200 -162 232 -175 q 144 -125 168 -149 q 106 -69 119 -101 q 92 0 92 -37 q 106 72 92 39 q 144 128 119 104 q 200 164 168 151 q 268 176 232 176 q 336 163 304 176 q 392 126 368 150 q 431 71 417 103 q 444 0 444 39 m 328 0 q 311 47 328 29 q 268 65 294 65 q 225 47 242 65 q 208 0 208 29 q 225 -47 208 -29 q 268 -64 242 -64 q 311 -47 294 -64 q 328 0 328 -29 z "},"·":{"ha":417,"x_min":96,"x_max":319,"o":"m 319 307 l 96 307 l 96 531 l 319 531 l 319 307 z "},"‥":{"ha":1111,"x_min":206,"x_max":903,"o":"m 429 307 l 206 307 l 206 531 l 429 531 l 429 307 m 903 307 l 679 307 l 679 531 l 903 531 l 903 307 z "},"…":{"ha":1111,"x_min":71,"x_max":1038,"o":"m 294 307 l 71 307 l 71 531 l 294 531 l 294 307 m 663 307 l 439 307 l 439 531 l 663 531 l 663 307 m 1038 307 l 814 307 l 814 531 l 1038 531 l 1038 307 z "},"¨":{"ha":722,"x_min":106,"x_max":614,"o":"m 315 738 l 106 738 l 106 947 l 315 947 l 315 738 m 614 738 l 403 738 l 403 947 l 614 947 l 614 738 z "},"〃":{"ha":1306,"x_min":356,"x_max":960,"o":"m 483 161 l 356 161 l 488 646 l 703 646 l 483 161 m 740 161 l 613 161 l 744 646 l 960 646 l 740 161 z "},"­":{"ha":694,"x_min":114,"x_max":582,"o":"m 114 507 l 582 507 l 582 328 l 114 328 l 114 507 z "},"＼":{"ha":1306,"x_min":135,"x_max":1164,"o":"m 1164 -136 l 1032 -232 l 135 965 l 267 1057 l 1164 -136 z "},"∼":{"ha":1306,"x_min":149,"x_max":1151,"o":"m 1151 440 q 990 333 1065 369 q 825 296 914 296 q 716 315 774 296 q 604 365 658 333 q 538 394 572 382 q 472 407 503 407 q 361 381 414 407 q 238 303 308 356 l 149 408 q 236 476 196 447 q 315 525 276 506 q 392 554 354 544 q 472 564 431 564 q 576 548 521 564 q 681 504 631 532 q 758 469 721 482 q 825 456 796 456 q 949 472 892 456 q 1074 531 1006 489 l 1151 440 z "},"‘":{"ha":479,"x_min":97,"x_max":382,"o":"m 97 826 q 118 915 97 876 q 176 980 139 953 q 265 1022 213 1007 q 379 1042 317 1038 l 379 928 q 268 899 300 922 q 236 835 236 875 l 382 835 l 382 568 l 97 568 l 97 826 z "},"’":{"ha":479,"x_min":97,"x_max":382,"o":"m 382 783 q 361 695 382 733 q 303 630 340 657 q 215 588 267 603 q 100 568 163 572 l 100 682 q 211 711 179 688 q 243 775 243 735 l 97 775 l 97 1042 l 382 1042 l 382 783 z "},"“":{"ha":814,"x_min":97,"x_max":717,"o":"m 432 897 q 453 985 432 947 q 510 1051 474 1024 q 599 1093 547 1078 q 714 1113 651 1108 l 714 999 q 603 969 635 993 q 571 906 571 946 l 717 906 l 717 639 l 432 639 l 432 897 m 97 828 q 118 916 97 878 q 176 981 139 954 q 265 1024 213 1008 q 379 1043 317 1039 l 379 929 q 268 900 300 924 q 236 836 236 876 l 382 836 l 382 569 l 97 569 l 97 828 z "},"”":{"ha":814,"x_min":97,"x_max":717,"o":"m 382 714 q 361 626 382 664 q 303 560 340 588 q 215 518 267 533 q 100 499 163 503 l 100 613 q 211 642 179 618 q 243 706 243 665 l 97 706 l 97 972 l 382 972 l 382 714 m 717 783 q 696 695 717 733 q 638 630 675 657 q 549 588 601 603 q 435 568 497 572 l 435 682 q 546 711 514 688 q 578 775 578 735 l 432 775 l 432 1042 l 717 1042 l 717 783 z "},"〔":{"ha":694,"x_min":169,"x_max":583,"o":"m 583 -97 l 517 -249 l 169 -101 l 169 936 l 518 1085 l 583 936 l 368 839 l 368 -4 l 583 -97 z "},"〕":{"ha":694,"x_min":125,"x_max":539,"o":"m 340 -4 l 340 839 l 125 936 l 190 1085 l 539 936 l 539 -101 l 192 -249 l 125 -97 l 340 -4 z "},"〈":{"ha":764,"x_min":106,"x_max":736,"o":"m 328 417 l 736 -79 l 600 -186 l 106 417 l 601 1019 l 736 911 l 328 417 z "},"〉":{"ha":764,"x_min":24,"x_max":654,"o":"m 24 911 l 158 1019 l 654 417 l 160 -186 l 24 -79 l 432 417 l 24 911 z "},"《":{"ha":833,"x_min":50,"x_max":825,"o":"m 239 417 l 583 -108 l 447 -186 l 50 417 l 447 1018 l 576 944 l 239 417 m 481 417 l 825 -108 l 689 -186 l 292 417 l 689 1018 l 818 944 l 481 417 z "},"》":{"ha":833,"x_min":22,"x_max":797,"o":"m 271 944 l 400 1018 l 797 417 l 400 -186 l 264 -108 l 608 417 l 271 944 m 29 944 l 158 1018 l 556 417 l 158 -186 l 22 -108 l 367 417 l 29 944 z "},"「":{"ha":625,"x_min":119,"x_max":574,"o":"m 574 872 l 335 872 l 335 421 l 119 421 l 119 1044 l 574 1044 l 574 872 z "},"」":{"ha":625,"x_min":50,"x_max":504,"o":"m 50 -39 l 289 -39 l 289 426 l 504 426 l 504 -211 l 50 -211 l 50 -39 z "},"『":{"ha":625,"x_min":121,"x_max":574,"o":"m 574 832 l 354 832 l 354 421 l 121 421 l 121 1043 l 574 1043 l 574 832 m 474 921 l 474 949 l 219 949 l 219 515 l 253 515 l 253 921 l 474 921 z "},"』":{"ha":625,"x_min":50,"x_max":504,"o":"m 50 6 l 269 6 l 269 429 l 504 429 l 504 -210 l 50 -210 l 50 6 m 150 -87 l 150 -115 l 404 -115 l 404 335 l 371 335 l 371 -87 l 150 -87 z "},"【":{"ha":639,"x_min":118,"x_max":658,"o":"m 118 -189 l 118 1024 l 656 1024 q 533 894 585 965 q 447 746 481 824 q 398 585 414 668 q 382 419 382 503 q 397 253 382 336 q 446 91 413 169 q 532 -58 479 13 q 658 -189 585 -129 l 118 -189 z "},"】":{"ha":639,"x_min":-21,"x_max":519,"o":"m -21 -189 q 106 -58 53 -129 q 192 91 158 13 q 240 253 225 169 q 256 419 256 336 q 240 585 256 503 q 190 746 224 668 q 105 894 157 824 q -18 1024 53 965 l 519 1024 l 519 -189 l -21 -189 z "},"±":{"ha":917,"x_min":118,"x_max":801,"o":"m 564 631 l 801 631 l 801 451 l 564 451 l 564 200 l 353 200 l 353 451 l 118 451 l 118 631 l 353 631 l 353 881 l 564 881 l 564 631 m 118 -32 l 118 143 l 799 143 l 799 -32 l 118 -32 z "},"×":{"ha":903,"x_min":96,"x_max":804,"o":"m 96 228 l 281 413 l 96 597 l 265 767 l 450 582 l 635 767 l 804 597 l 619 413 l 804 228 l 635 58 l 450 243 l 265 58 l 96 228 z "},"÷":{"ha":956,"x_min":69,"x_max":886,"o":"m 69 539 l 886 539 l 886 314 l 69 314 l 69 539 m 478 867 q 533 856 507 867 q 579 825 560 844 q 610 779 599 806 q 621 724 621 753 q 610 668 621 694 q 579 622 599 642 q 533 592 560 603 q 478 581 507 581 q 422 592 449 581 q 376 622 396 603 q 346 668 357 642 q 335 724 335 694 q 346 779 335 753 q 376 825 357 806 q 422 856 396 844 q 478 867 449 867 m 478 272 q 533 261 507 272 q 579 231 560 250 q 610 185 599 211 q 621 129 621 158 q 610 74 621 100 q 579 28 599 47 q 533 -3 560 8 q 478 -14 507 -14 q 422 -3 449 -14 q 376 28 396 8 q 346 74 357 47 q 335 129 335 100 q 346 185 335 158 q 376 231 357 211 q 422 261 396 250 q 478 272 449 272 z "},"≠":{"ha":1028,"x_min":96,"x_max":931,"o":"m 653 636 l 931 636 l 931 467 l 608 467 l 583 367 l 931 367 l 931 199 l 539 199 l 494 24 l 286 24 l 331 199 l 96 199 l 96 367 l 374 367 l 399 467 l 96 467 l 96 636 l 443 636 l 483 794 l 694 794 l 653 636 z "},"≤":{"ha":972,"x_min":104,"x_max":867,"o":"m 108 485 l 108 607 l 867 899 l 867 704 l 435 546 l 867 385 l 867 194 l 108 485 m 104 -6 l 104 169 l 867 169 l 867 -6 l 104 -6 z "},"≥":{"ha":972,"x_min":104,"x_max":867,"o":"m 104 194 l 104 385 l 536 546 l 104 704 l 104 899 l 863 607 l 863 485 l 104 194 m 104 -6 l 104 169 l 867 169 l 867 -6 l 104 -6 z "},"∞":{"ha":1111,"x_min":74,"x_max":1033,"o":"m 1033 454 q 1016 354 1033 400 q 966 275 999 308 q 888 222 933 242 q 786 203 842 203 q 661 236 724 203 q 557 322 599 269 q 458 240 517 272 q 322 208 400 208 q 219 227 265 208 q 141 279 174 246 q 91 358 108 313 q 74 458 74 404 q 92 558 74 513 q 145 638 111 604 q 226 689 179 671 q 331 707 274 707 q 452 674 396 707 q 553 588 508 640 q 656 674 593 640 q 785 707 718 707 q 889 688 843 707 q 967 636 935 669 q 1016 556 999 603 q 1033 454 1033 510 m 865 456 q 859 494 865 475 q 842 527 853 513 q 817 551 831 542 q 786 560 803 560 q 714 528 750 560 q 651 451 678 496 q 711 379 676 407 q 785 351 746 351 q 844 383 822 351 q 865 456 865 414 m 324 354 q 396 381 361 354 q 458 453 431 407 q 399 528 433 496 q 328 560 365 560 q 269 530 293 560 q 244 460 244 500 q 266 386 244 418 q 324 354 288 354 z "},"∴":{"ha":1306,"x_min":200,"x_max":1101,"o":"m 778 717 q 768 666 778 689 q 741 625 758 643 q 700 597 724 607 q 650 588 676 588 q 600 597 624 588 q 559 625 576 607 q 532 666 542 643 q 522 717 522 689 q 532 767 522 743 q 559 808 542 790 q 600 835 576 825 q 650 844 624 844 q 700 835 676 844 q 741 808 724 825 q 768 767 758 790 q 778 717 778 743 m 456 161 q 446 110 456 133 q 419 69 436 88 q 378 42 401 51 q 328 32 354 32 q 278 42 301 32 q 237 69 254 51 q 210 110 219 88 q 200 161 200 133 q 210 211 200 188 q 237 252 219 235 q 278 279 254 269 q 328 289 301 289 q 378 279 354 289 q 419 252 401 269 q 446 211 436 235 q 456 161 456 188 m 1101 161 q 1092 110 1101 133 q 1065 69 1082 88 q 1024 42 1047 51 q 974 32 1000 32 q 924 42 947 32 q 883 69 900 51 q 856 110 865 88 q 846 161 846 133 q 856 211 846 188 q 883 252 865 235 q 924 279 900 269 q 974 289 947 289 q 1024 279 1000 289 q 1065 252 1047 269 q 1092 211 1082 235 q 1101 161 1101 188 z "},"°":{"ha":583,"x_min":108,"x_max":474,"o":"m 474 863 q 459 790 474 824 q 419 733 444 757 q 361 694 394 708 q 292 681 328 681 q 222 694 256 681 q 164 733 189 708 q 124 790 139 757 q 108 863 108 824 q 124 935 108 901 q 164 992 139 968 q 222 1031 189 1017 q 292 1044 256 1044 q 361 1031 328 1044 q 419 992 394 1017 q 459 935 444 968 q 474 863 474 901 m 340 863 q 326 902 340 888 q 292 917 311 917 q 256 902 271 917 q 242 863 242 888 q 256 822 242 836 q 292 807 271 807 q 326 822 311 807 q 340 863 340 836 z "},"′":{"ha":472,"x_min":68,"x_max":436,"o":"m 219 629 l 68 629 l 210 1001 l 436 1001 l 219 629 z "},"″":{"ha":750,"x_min":67,"x_max":685,"o":"m 213 631 l 67 631 l 210 1001 l 431 1001 l 213 631 m 463 631 l 315 631 l 465 1001 l 685 1001 l 463 631 z "},"℃":{"ha":1478,"x_min":69,"x_max":1435,"o":"m 306 367 q 352 585 306 483 q 480 761 399 686 q 672 878 561 836 q 911 921 783 921 q 1208 851 1083 921 q 1433 643 1333 781 l 1243 483 q 1113 629 1192 575 q 918 683 1035 683 q 786 657 846 683 q 684 587 726 631 q 618 486 642 543 q 594 367 594 429 q 617 247 594 304 q 683 147 640 190 q 787 77 726 103 q 921 51 847 51 q 1028 65 981 51 q 1116 106 1076 79 q 1188 169 1156 132 q 1249 254 1221 207 l 1435 89 q 1215 -115 1340 -43 q 911 -187 1089 -187 q 672 -145 783 -187 q 480 -28 561 -103 q 352 149 399 47 q 306 367 306 250 m 69 908 q 85 983 69 947 q 129 1047 101 1019 q 195 1090 157 1074 q 278 1106 233 1106 q 359 1090 321 1106 q 425 1047 397 1074 q 469 983 453 1019 q 485 908 485 947 q 469 832 485 868 q 425 769 453 796 q 359 725 397 742 q 278 708 321 708 q 194 724 232 708 q 128 767 156 740 q 85 831 100 794 q 69 908 69 868 m 278 860 q 312 874 297 860 q 326 908 326 889 q 312 942 326 928 q 278 957 297 957 q 244 942 258 957 q 229 908 229 928 q 244 874 229 889 q 278 860 258 860 z "},"Å":{"ha":833,"x_min":1,"x_max":832,"o":"m 542 121 l 293 121 l 225 -71 l 1 -71 l 314 779 l 518 779 l 832 -69 l 610 -69 l 542 121 m 556 950 q 544 893 556 918 q 512 851 532 868 q 467 826 492 835 q 415 817 442 817 q 363 826 389 817 q 318 851 338 835 q 286 893 299 868 q 274 950 274 918 q 286 1007 274 982 q 318 1049 299 1032 q 363 1074 338 1065 q 415 1083 389 1083 q 467 1074 442 1083 q 512 1049 492 1065 q 544 1007 532 1032 q 556 950 556 982 m 354 294 l 479 294 l 417 471 l 354 294 m 442 950 q 434 968 442 961 q 417 975 426 975 q 397 968 404 975 q 390 950 390 961 q 417 925 390 925 q 434 932 426 925 q 442 950 442 939 z "},"￠":{"ha":667,"x_min":43,"x_max":628,"o":"m 322 46 q 208 87 260 58 q 120 162 157 115 q 63 274 83 208 q 43 425 43 339 q 63 572 43 508 q 120 682 83 636 q 208 757 157 728 q 322 799 260 786 l 322 929 l 494 929 l 494 806 q 555 792 524 801 q 626 763 586 782 l 578 592 q 534 609 554 601 q 494 622 514 617 l 494 231 q 540 242 515 235 q 593 258 564 249 l 628 89 q 558 61 589 72 q 494 43 526 50 l 494 -76 l 322 -76 l 322 46 m 258 432 q 276 320 258 363 q 322 254 293 278 l 322 597 q 276 534 293 574 q 258 432 258 494 z "},"￡":{"ha":750,"x_min":46,"x_max":704,"o":"m 397 507 l 606 507 l 606 324 l 397 324 q 384 212 394 265 q 346 111 374 158 l 704 111 l 704 -72 l 46 -72 l 46 78 q 113 126 88 99 q 152 184 138 153 q 172 251 167 215 q 179 324 178 286 l 53 324 l 53 507 l 179 507 l 179 615 q 260 864 179 783 q 497 944 340 944 q 563 940 536 944 q 612 929 590 936 q 651 912 633 922 q 688 889 668 901 l 638 713 q 567 753 597 739 q 497 767 538 767 q 446 758 465 767 q 416 733 426 750 q 401 688 406 715 q 397 625 397 661 l 397 507 z "},"￥":{"ha":833,"x_min":-10,"x_max":846,"o":"m 529 104 l 529 -82 l 300 -82 l 300 104 l 85 104 l 85 276 l 300 276 l 300 322 l 85 322 l 85 494 l 239 494 l -10 944 l 233 944 l 415 585 l 603 944 l 846 944 l 592 494 l 750 494 l 750 322 l 529 322 l 529 276 l 750 276 l 750 104 l 529 104 z "},"♂":{"ha":875,"x_min":100,"x_max":767,"o":"m 528 457 q 631 410 586 442 q 706 337 675 379 q 751 244 736 294 q 767 142 767 194 q 740 10 767 69 q 669 -94 714 -50 q 564 -162 624 -137 q 436 -186 504 -186 q 310 -162 369 -186 q 206 -94 250 -137 q 135 10 161 -50 q 108 142 108 71 q 123 242 108 193 q 166 334 138 292 q 238 408 194 376 q 338 456 281 440 l 338 676 l 221 544 l 100 656 l 436 1035 l 744 656 l 619 532 l 528 654 l 528 457 m 578 143 q 541 256 578 210 q 438 301 504 301 q 335 256 372 301 q 297 143 297 211 q 335 28 297 72 q 438 -17 372 -17 q 541 29 504 -17 q 578 143 578 75 z "},"♀":{"ha":875,"x_min":108,"x_max":765,"o":"m 765 689 q 703 495 765 578 q 536 378 642 413 l 536 250 l 760 250 l 760 74 l 536 74 l 536 -182 l 335 -182 l 335 74 l 117 74 l 117 250 l 335 250 l 335 378 q 167 492 226 407 q 108 689 108 576 q 132 820 108 760 q 199 924 156 881 q 302 992 242 968 q 436 1017 363 1017 q 571 992 510 1017 q 675 923 632 967 q 742 819 718 879 q 765 689 765 760 m 572 689 q 535 802 572 758 q 436 846 497 846 q 338 803 376 846 q 300 689 300 760 q 338 572 300 614 q 436 531 376 531 q 535 574 497 531 q 572 689 572 618 z "},"∠":{"ha":1111,"x_min":115,"x_max":1001,"o":"m 115 -44 l 115 69 l 786 846 l 933 736 l 422 129 l 1001 129 l 1001 -44 l 115 -44 z "},"⊥":{"ha":1111,"x_min":82,"x_max":1026,"o":"m 82 -53 l 82 122 l 446 122 l 446 796 l 664 796 l 664 122 l 1026 122 l 1026 -53 l 82 -53 z "},"⌒":{"ha":750,"x_min":69,"x_max":679,"o":"m 375 893 q 319 876 343 893 q 276 814 296 858 l 69 814 q 182 1002 107 946 q 375 1058 257 1058 q 567 1002 493 1058 q 679 814 642 946 l 472 814 q 430 876 453 858 q 375 893 407 893 z "},"∂":{"ha":833,"x_min":69,"x_max":764,"o":"m 138 853 q 260 894 211 883 q 363 904 310 904 q 538 865 463 904 q 663 760 613 826 q 738 603 713 693 q 764 408 764 513 q 735 196 764 292 q 655 31 707 100 q 529 -75 603 -37 q 365 -112 456 -112 q 232 -86 288 -112 q 140 -15 176 -60 q 87 88 104 29 q 69 211 69 146 q 94 367 69 297 q 164 485 119 436 q 270 560 208 533 q 407 586 332 586 q 490 576 449 586 q 563 546 531 567 q 524 631 547 596 q 473 686 501 665 q 412 717 444 707 q 347 726 379 726 q 281 717 319 726 q 188 685 242 708 l 138 853 m 374 63 q 435 81 407 63 q 485 131 463 99 q 522 206 507 163 q 543 301 536 250 q 544 317 546 308 q 539 332 542 325 q 497 392 525 368 q 435 417 469 417 q 331 371 369 417 q 283 246 292 325 q 283 184 281 217 q 294 124 285 151 q 324 80 304 97 q 374 63 343 63 z "},"∇":{"ha":1306,"x_min":124,"x_max":1178,"o":"m 124 836 l 1178 836 l 657 -87 l 124 836 m 938 707 l 461 707 l 703 281 l 938 707 z "},"≡":{"ha":1167,"x_min":165,"x_max":999,"o":"m 165 556 l 165 731 l 999 731 l 999 556 l 165 556 m 165 332 l 165 507 l 999 507 l 999 332 l 165 332 m 165 108 l 165 283 l 999 283 l 999 108 l 165 108 z "},"≒":{"ha":1028,"x_min":96,"x_max":931,"o":"m 96 453 l 96 622 l 931 622 l 931 453 l 96 453 m 96 213 l 96 381 l 931 381 l 931 213 l 96 213 m 397 767 q 364 689 397 721 q 285 657 331 657 q 206 689 239 657 q 174 767 174 721 q 206 845 174 813 q 285 878 239 878 q 364 845 331 878 q 397 767 397 813 m 853 67 q 819 -11 853 21 q 740 -43 786 -43 q 662 -11 694 -43 q 629 67 629 21 q 662 145 629 113 q 740 178 694 178 q 819 145 786 178 q 853 67 853 113 z "},"§":{"ha":625,"x_min":56,"x_max":565,"o":"m 110 128 q 202 83 160 96 q 283 71 244 71 q 313 73 297 71 q 340 82 328 75 q 360 101 353 89 q 368 135 368 114 q 347 181 368 161 q 268 225 325 201 q 176 273 213 247 q 117 328 139 299 q 87 392 96 358 q 78 461 78 425 q 100 553 78 508 q 161 628 122 599 q 98 704 118 663 q 78 790 78 746 q 147 951 78 896 q 340 1007 217 1007 q 449 994 401 1007 q 543 949 496 982 l 489 779 q 414 821 453 801 q 338 840 375 840 q 274 794 274 840 q 299 742 274 763 q 375 700 325 721 q 522 599 481 657 q 563 453 563 540 q 545 365 563 404 q 489 292 528 325 q 544 214 522 257 q 565 124 565 171 q 495 -35 565 26 q 281 -97 425 -97 q 163 -82 214 -97 q 56 -31 111 -67 l 110 128 m 374 447 q 356 497 374 478 q 294 533 338 515 q 276 506 283 524 q 268 469 268 489 q 289 424 268 442 q 357 386 310 407 q 369 415 365 397 q 374 447 374 432 z "},"※":{"ha":1293,"x_min":42,"x_max":1238,"o":"m 240 994 l 646 588 l 1053 994 l 1219 828 l 813 421 l 1219 15 l 1053 -151 l 646 254 l 240 -151 l 74 15 l 479 421 l 74 828 l 240 994 m 185 551 q 240 540 214 551 q 286 510 267 529 q 317 464 306 490 q 328 408 328 438 q 317 353 328 379 q 286 307 306 326 q 240 276 267 288 q 185 265 214 265 q 129 276 156 265 q 83 307 103 288 q 53 353 64 326 q 42 408 42 379 q 53 464 42 438 q 83 510 64 490 q 129 540 103 529 q 185 551 156 551 m 1094 551 q 1150 540 1124 551 q 1196 510 1176 529 q 1226 464 1215 490 q 1238 408 1238 438 q 1226 353 1238 379 q 1196 307 1215 326 q 1150 276 1176 288 q 1094 265 1124 265 q 1039 276 1065 265 q 993 307 1013 288 q 963 353 974 326 q 951 408 951 379 q 963 464 951 438 q 993 510 974 490 q 1039 540 1013 529 q 1094 551 1065 551 m 646 1008 q 701 997 675 1008 q 747 967 728 986 q 778 921 767 947 q 789 865 789 894 q 778 810 789 836 q 747 764 767 783 q 701 733 728 744 q 646 722 675 722 q 590 733 617 722 q 544 764 564 744 q 514 810 525 783 q 503 865 503 836 q 514 921 503 894 q 544 967 525 947 q 590 997 564 986 q 646 1008 617 1008 m 646 108 q 701 97 675 108 q 747 67 728 86 q 778 21 767 47 q 789 -35 789 -6 q 778 -90 789 -64 q 747 -136 767 -117 q 701 -167 728 -156 q 646 -178 675 -178 q 590 -167 617 -178 q 544 -136 564 -156 q 514 -90 525 -117 q 503 -35 503 -64 q 514 21 503 -6 q 544 67 525 47 q 590 97 564 86 q 646 108 617 108 z "},"☆":{"ha":1306,"x_min":36,"x_max":1268,"o":"m 699 521 l 650 686 l 603 521 l 371 521 l 558 385 l 490 208 l 646 328 l 813 200 l 738 383 l 932 521 l 699 521 m 903 347 l 1054 -122 l 649 168 l 249 -112 l 394 353 l 36 636 l 490 636 l 650 1079 l 813 636 l 1268 636 l 903 347 z "},"★":{"ha":1306,"x_min":36,"x_max":1268,"o":"m 903 347 l 1054 -122 l 649 168 l 249 -112 l 394 353 l 36 636 l 490 636 l 650 1079 l 813 636 l 1268 636 l 903 347 z "},"○":{"ha":1306,"x_min":82,"x_max":1224,"o":"m 1224 417 q 1181 193 1224 297 q 1062 12 1138 89 q 881 -110 986 -65 q 653 -154 776 -154 q 432 -112 536 -154 q 250 6 328 -69 q 127 187 172 82 q 82 417 82 292 q 125 640 82 536 q 244 820 168 743 q 424 941 319 897 q 653 985 529 985 q 874 943 771 985 q 1056 826 978 901 q 1178 647 1133 751 q 1224 417 1224 542 m 1053 417 q 1022 580 1053 504 q 936 712 990 656 q 809 801 882 768 q 653 833 736 833 q 501 803 574 833 q 373 717 428 772 q 285 585 318 663 q 253 417 253 508 q 284 253 253 329 q 369 119 315 176 q 497 28 424 61 q 653 -4 569 -4 q 805 27 732 -4 q 933 114 878 58 q 1020 247 988 169 q 1053 417 1053 324 z "},"●":{"ha":1306,"x_min":82,"x_max":1224,"o":"m 1224 417 q 1181 193 1224 297 q 1062 12 1138 89 q 881 -110 986 -65 q 653 -154 776 -154 q 432 -112 536 -154 q 250 6 328 -69 q 127 187 172 82 q 82 417 82 292 q 125 640 82 536 q 244 820 168 743 q 424 941 319 897 q 653 985 529 985 q 874 943 771 985 q 1056 826 978 901 q 1178 647 1133 751 q 1224 417 1224 542 z "},"◎":{"ha":1306,"x_min":82,"x_max":1224,"o":"m 1017 419 q 990 278 1017 344 q 914 162 963 211 q 799 84 865 113 q 653 56 732 56 q 512 83 578 56 q 397 158 446 110 q 319 274 347 207 q 290 419 290 340 q 317 560 290 494 q 393 674 344 625 q 508 750 442 722 q 653 778 574 778 q 794 751 728 778 q 910 677 860 725 q 988 564 960 629 q 1017 419 1017 499 m 856 419 q 841 506 856 465 q 799 576 826 546 q 735 624 772 607 q 653 642 699 642 q 573 625 610 642 q 509 579 536 608 q 467 509 482 550 q 451 419 451 468 q 466 332 451 374 q 507 260 481 290 q 570 211 533 229 q 653 193 607 193 q 733 210 696 193 q 798 257 771 226 q 840 329 825 288 q 856 419 856 371 m 1224 417 q 1181 193 1224 297 q 1062 12 1138 89 q 881 -110 986 -65 q 653 -154 776 -154 q 432 -112 536 -154 q 250 6 328 -69 q 127 187 172 82 q 82 417 82 292 q 125 640 82 536 q 244 820 168 743 q 424 941 319 897 q 653 985 529 985 q 874 943 771 985 q 1056 826 978 901 q 1178 647 1133 751 q 1224 417 1224 542 m 1057 417 q 1025 584 1057 507 q 938 718 993 661 q 810 807 883 775 q 653 839 736 839 q 500 808 574 839 q 371 722 426 778 q 282 589 315 667 q 249 417 249 511 q 281 249 249 326 q 367 114 313 171 q 496 24 422 57 q 653 -8 569 -8 q 806 22 732 -8 q 935 109 879 53 q 1024 243 990 165 q 1057 417 1057 321 z "},"◇":{"ha":1306,"x_min":17,"x_max":1289,"o":"m 651 -211 l 17 422 l 651 1057 l 1289 422 l 651 -211 m 1067 422 l 651 840 l 238 422 l 651 7 l 1067 422 z "},"◆":{"ha":1306,"x_min":17,"x_max":1289,"o":"m 651 -211 l 17 422 l 651 1057 l 1289 422 l 651 -211 z "},"□":{"ha":1306,"x_min":111,"x_max":1193,"o":"m 111 -118 l 111 957 l 1193 957 l 1193 -118 l 111 -118 m 1022 814 l 281 814 l 281 25 l 1022 25 l 1022 814 z "},"■":{"ha":1306,"x_min":111,"x_max":1193,"o":"m 111 -118 l 111 957 l 1193 957 l 1193 -118 l 111 -118 z "},"△":{"ha":1306,"x_min":71,"x_max":1235,"o":"m 657 899 l 1235 -17 l 71 -17 l 657 899 m 656 608 l 346 122 l 956 122 l 656 608 z "},"▲":{"ha":1306,"x_min":71,"x_max":1235,"o":"m 657 899 l 1235 -17 l 71 -17 l 657 899 z "},"▽":{"ha":1306,"x_min":71,"x_max":1235,"o":"m 71 836 l 1235 836 l 657 -79 l 71 836 m 956 697 l 346 697 l 656 211 l 956 697 z "},"▼":{"ha":1306,"x_min":71,"x_max":1235,"o":"m 71 836 l 1235 836 l 657 -79 l 71 836 z "},"→":{"ha":1306,"x_min":-6,"x_max":1311,"o":"m 881 139 l 881 331 l -6 331 l -6 503 l 881 503 l 881 696 l 1311 417 l 881 139 z "},"←":{"ha":1306,"x_min":-8,"x_max":1308,"o":"m -8 417 l 422 696 l 422 503 l 1308 503 l 1308 331 l 422 331 l 422 139 l -8 417 z "},"↑":{"ha":1111,"x_min":275,"x_max":832,"o":"m 832 647 l 640 647 l 640 -222 l 468 -222 l 468 647 l 275 647 l 554 1078 l 832 647 z "},"↓":{"ha":1111,"x_min":275,"x_max":832,"o":"m 554 -242 l 275 189 l 468 189 l 468 1058 l 640 1058 l 640 189 l 832 189 l 554 -242 z "},"↔":{"ha":1306,"x_min":11,"x_max":1315,"o":"m 893 142 l 893 331 l 433 331 l 433 142 l 11 417 l 433 693 l 433 503 l 893 503 l 893 693 l 1315 417 l 893 142 z "},"〓":{"ha":1306,"x_min":53,"x_max":1254,"o":"m 53 489 l 53 658 l 1254 658 l 1254 489 l 53 489 m 53 157 l 53 326 l 1254 326 l 1254 157 l 53 157 z "},"≪":{"ha":1306,"x_min":85,"x_max":1226,"o":"m 885 43 l 796 -85 l 85 415 l 789 931 l 882 814 l 354 415 l 885 43 m 1226 44 l 1138 -83 l 426 417 l 1131 932 l 1224 815 l 696 417 l 1226 44 z "},"≫":{"ha":1306,"x_min":79,"x_max":1221,"o":"m 951 417 l 424 815 l 517 932 l 1221 417 l 510 -83 l 421 44 l 951 417 m 610 418 l 82 817 l 175 933 l 879 418 l 168 -82 l 79 46 l 610 418 z "},"√":{"ha":722,"x_min":-12,"x_max":779,"o":"m 553 -268 l 444 -268 l 183 332 l 71 258 l -12 396 l 281 572 l 442 194 l 585 1079 l 779 1079 l 553 -268 z "},"∽":{"ha":1306,"x_min":82,"x_max":1222,"o":"m 1222 415 q 1202 298 1222 353 q 1144 203 1182 243 q 1051 140 1106 163 q 926 117 996 117 q 885 118 906 117 q 844 126 865 119 q 795 147 822 133 q 733 183 768 160 l 826 321 q 888 290 867 296 q 926 283 910 283 q 998 320 975 283 q 1021 415 1021 357 q 998 503 1021 469 q 926 536 975 536 q 827 491 871 536 q 746 379 783 446 q 680 274 714 322 q 603 192 646 226 q 506 137 560 157 q 379 117 451 117 q 159 192 236 117 q 82 415 82 268 q 105 539 82 485 q 167 630 128 593 q 261 685 207 667 q 379 704 315 704 q 423 702 401 704 q 467 694 444 700 q 517 678 490 689 q 576 649 543 667 l 493 499 q 448 521 465 513 q 418 533 431 529 q 397 537 406 536 q 378 538 388 538 q 305 506 329 538 q 281 417 281 475 q 304 322 281 357 q 376 289 328 286 q 483 333 444 292 q 563 453 522 374 q 628 563 594 515 q 705 641 663 610 q 801 688 747 672 q 926 704 856 704 q 1054 682 999 704 q 1147 622 1110 660 q 1203 531 1185 583 q 1222 415 1222 478 z "},"∝":{"ha":1306,"x_min":146,"x_max":1176,"o":"m 1176 193 q 1068 134 1115 150 q 967 118 1021 118 q 890 131 926 118 q 820 163 853 143 q 760 209 788 183 q 711 263 733 235 q 585 155 654 192 q 435 118 515 118 q 318 142 371 118 q 227 207 265 167 q 167 301 189 247 q 146 417 146 356 q 167 535 146 481 q 225 631 188 590 q 317 695 263 672 q 438 718 371 718 q 590 683 519 718 q 713 579 660 647 q 823 680 761 642 q 968 718 885 718 q 1072 702 1025 718 q 1176 646 1118 686 l 1090 493 q 1048 520 1065 510 q 1017 537 1031 531 q 990 546 1003 543 q 965 549 978 549 q 885 509 922 549 q 817 418 849 469 q 846 371 829 394 q 883 328 863 347 q 925 299 903 310 q 971 288 947 288 q 1018 296 990 288 q 1090 344 1046 304 l 1176 193 m 435 286 q 525 324 488 286 q 596 421 563 361 q 526 513 565 475 q 436 551 488 551 q 367 511 392 551 q 342 417 342 471 q 349 369 342 392 q 368 327 356 346 q 397 297 381 308 q 435 286 414 286 z "},"∵":{"ha":1306,"x_min":188,"x_max":1117,"o":"m 790 161 q 779 110 790 133 q 749 68 768 86 q 705 40 731 50 q 650 29 679 29 q 595 40 621 29 q 551 68 569 50 q 521 110 532 86 q 510 161 510 133 q 521 212 510 188 q 551 255 532 236 q 595 284 569 274 q 650 294 621 294 q 705 284 679 294 q 749 255 731 274 q 779 212 768 236 q 790 161 790 188 m 468 717 q 457 665 468 689 q 427 624 446 642 q 383 595 408 606 q 328 585 357 585 q 273 595 299 585 q 228 624 247 606 q 199 665 210 642 q 188 717 188 689 q 199 767 188 743 q 228 810 210 792 q 273 840 247 829 q 328 850 299 850 q 383 840 357 850 q 427 810 408 829 q 457 767 446 792 q 468 717 468 743 m 1117 717 q 1106 665 1117 689 q 1076 624 1094 642 q 1031 595 1057 606 q 976 585 1006 585 q 922 595 947 585 q 877 624 896 606 q 847 665 858 642 q 836 717 836 689 q 847 767 836 743 q 877 810 858 792 q 922 840 896 829 q 976 850 947 850 q 1031 840 1006 850 q 1076 810 1057 829 q 1106 767 1094 792 q 1117 717 1117 743 z "},"∫":{"ha":611,"x_min":78,"x_max":536,"o":"m 429 40 q 379 -137 435 -74 q 206 -201 324 -201 q 178 -201 190 -201 q 153 -198 167 -200 q 122 -192 140 -196 q 78 -181 104 -187 l 78 0 q 149 -22 129 -19 q 181 -25 169 -25 q 214 -10 206 -25 q 219 38 222 6 l 182 792 q 229 972 175 911 q 406 1033 283 1033 q 433 1033 421 1033 q 460 1030 446 1032 q 492 1024 475 1028 q 536 1013 510 1019 l 536 826 q 465 850 489 843 q 431 857 442 857 q 392 794 388 857 l 429 40 z "},"∬":{"ha":944,"x_min":71,"x_max":882,"o":"m 418 40 q 368 -137 424 -74 q 194 -201 313 -201 q 168 -201 179 -201 q 144 -198 157 -200 q 115 -192 132 -196 q 71 -182 97 -189 l 71 -1 q 113 -16 96 -11 q 140 -23 129 -21 q 157 -25 150 -25 q 169 -25 164 -25 q 203 -10 194 -25 q 208 38 211 6 l 171 792 q 218 972 164 911 q 394 1033 272 1033 q 422 1033 410 1033 q 446 1030 433 1032 q 474 1025 458 1028 q 511 1017 489 1022 l 511 835 q 472 847 488 843 q 447 853 457 851 q 431 856 438 856 q 419 857 425 857 q 381 794 376 857 l 418 40 m 789 40 q 739 -137 794 -74 q 565 -201 683 -201 q 539 -201 550 -201 q 515 -198 528 -200 q 485 -192 503 -196 q 442 -182 468 -189 l 442 -1 q 483 -16 467 -11 q 510 -23 500 -21 q 528 -25 521 -25 q 540 -25 535 -25 q 574 -10 565 -25 q 579 38 582 6 l 542 792 q 589 972 535 911 q 765 1033 643 1033 q 792 1033 781 1033 q 817 1030 804 1032 q 844 1025 829 1028 q 882 1017 860 1022 l 882 835 q 843 847 858 843 q 818 853 828 851 q 802 856 808 856 q 790 857 796 857 q 751 794 747 857 l 789 40 z "},"∈":{"ha":1306,"x_min":156,"x_max":1150,"o":"m 521 1 q 358 33 426 1 q 244 121 289 65 q 178 253 200 176 q 156 417 156 329 q 181 578 156 506 q 256 703 207 651 q 374 785 304 756 q 531 814 443 814 l 1150 814 l 1150 638 l 528 638 q 428 600 463 638 q 379 497 394 563 l 1150 497 l 1150 319 l 379 319 q 428 217 394 257 q 519 178 461 178 l 1150 178 l 1150 1 l 521 1 z "},"∋":{"ha":1306,"x_min":156,"x_max":1150,"o":"m 156 1 l 156 178 l 786 178 q 878 217 844 178 q 926 319 911 257 l 156 319 l 156 497 l 926 497 q 877 600 911 563 q 778 638 843 638 l 156 638 l 156 814 l 775 814 q 932 785 863 814 q 1050 703 1001 756 q 1124 578 1099 651 q 1150 417 1150 506 q 1128 253 1150 329 q 1061 121 1106 176 q 947 33 1017 65 q 785 1 878 1 l 156 1 z "},"⊆":{"ha":1306,"x_min":151,"x_max":1140,"o":"m 167 -57 l 167 119 l 1140 119 l 1140 -57 l 167 -57 m 469 185 q 228 270 306 185 q 151 507 151 356 q 238 738 151 658 q 479 817 324 817 l 1140 817 l 1140 639 l 476 639 q 383 606 411 639 q 354 501 354 574 q 381 398 354 435 q 469 361 408 361 l 1140 361 l 1140 185 l 469 185 z "},"⊇":{"ha":1306,"x_min":150,"x_max":1140,"o":"m 150 -57 l 150 119 l 1125 119 l 1125 -57 l 150 -57 m 150 185 l 150 361 l 822 361 q 910 398 883 361 q 938 501 938 435 q 909 606 938 574 q 815 639 881 639 l 150 639 l 150 817 l 813 817 q 1054 738 968 817 q 1140 507 1140 658 q 1063 270 1140 356 q 822 185 986 185 l 150 185 z "},"⊂":{"ha":1306,"x_min":156,"x_max":1147,"o":"m 524 0 q 360 32 429 0 q 246 120 292 64 q 178 253 200 176 q 156 417 156 329 q 181 579 156 506 q 256 706 207 653 q 374 788 304 758 q 531 817 443 817 l 1147 817 l 1147 640 l 528 640 q 410 585 453 640 q 368 417 368 529 q 410 232 368 288 q 522 176 451 176 l 1147 176 l 1147 0 l 524 0 z "},"⊃":{"ha":1306,"x_min":156,"x_max":1147,"o":"m 156 0 l 156 176 l 781 176 q 893 232 851 176 q 935 417 935 288 q 892 585 935 529 q 775 640 850 640 l 156 640 l 156 817 l 772 817 q 929 788 860 817 q 1047 706 999 758 q 1122 579 1096 653 q 1147 417 1147 506 q 1125 253 1147 329 q 1057 120 1103 176 q 942 32 1011 64 q 779 0 872 0 l 156 0 z "},"∪":{"ha":1111,"x_min":161,"x_max":950,"o":"m 950 324 q 922 160 950 233 q 843 35 894 88 q 719 -45 792 -17 q 556 -74 646 -74 q 385 -45 458 -74 q 261 36 311 -17 q 186 163 211 89 q 161 326 161 236 l 161 919 l 374 919 l 374 339 q 413 166 374 228 q 556 104 453 104 q 698 167 658 104 q 738 342 738 231 l 738 919 l 950 919 l 950 324 z "},"∩":{"ha":1111,"x_min":161,"x_max":950,"o":"m 950 -74 l 738 -74 l 738 504 q 728 603 738 560 q 698 678 719 647 q 642 725 676 708 q 556 742 607 742 q 413 680 453 742 q 374 507 374 618 l 374 -74 l 161 -74 l 161 519 q 186 683 161 610 q 261 810 211 757 q 385 891 311 863 q 556 919 458 919 q 719 891 646 919 q 843 810 792 863 q 922 685 894 758 q 950 522 950 611 l 950 -74 z "},"∧":{"ha":1306,"x_min":156,"x_max":1146,"o":"m 1146 -46 l 924 -46 l 654 519 l 381 -44 l 156 -44 l 654 932 l 1146 -46 z "},"∨":{"ha":1306,"x_min":156,"x_max":1146,"o":"m 654 -90 l 156 886 l 381 886 l 654 322 l 924 888 l 1146 888 l 654 -90 z "},"￢":{"ha":1306,"x_min":28,"x_max":1276,"o":"m 1276 -246 l 1057 -246 l 1057 64 l 28 64 l 28 240 l 1276 240 l 1276 -246 z "},"⇒":{"ha":1306,"x_min":32,"x_max":1289,"o":"m 824 193 l 32 193 l 32 363 l 992 363 l 1046 417 l 990 472 l 32 472 l 32 640 l 822 640 l 751 711 l 869 842 l 1289 417 l 874 -10 l 756 124 l 824 193 z "},"⇔":{"ha":1306,"x_min":13,"x_max":1289,"o":"m 824 193 l 476 193 l 546 124 l 428 -10 l 13 417 l 432 842 l 550 711 l 479 640 l 822 640 l 751 711 l 869 842 l 1289 417 l 874 -10 l 756 124 l 824 193 m 308 363 l 992 363 l 1046 417 l 990 472 l 311 472 l 256 417 l 308 363 z "},"∀":{"ha":833,"x_min":-6,"x_max":835,"o":"m 225 946 l 292 714 l 538 714 l 603 946 l 835 946 l 528 -72 l 304 -72 l -6 946 l 225 946 m 488 540 l 343 540 l 417 286 l 488 540 z "},"∃":{"ha":778,"x_min":49,"x_max":685,"o":"m 92 360 l 92 543 l 456 543 l 456 761 l 71 761 l 71 946 l 685 946 l 685 -72 l 49 -72 l 49 113 l 456 113 l 456 360 l 92 360 z "},"´":{"ha":556,"x_min":108,"x_max":472,"o":"m 243 1057 l 472 1057 l 285 818 l 108 818 l 243 1057 z "},"ˇ":{"ha":500,"x_min":32,"x_max":465,"o":"m 324 817 l 172 817 l 32 1057 l 215 1057 l 251 988 l 283 1057 l 465 1057 l 324 817 z "},"˘":{"ha":521,"x_min":71,"x_max":453,"o":"m 453 1057 q 396 903 446 947 q 263 860 346 860 q 126 908 175 860 q 71 1057 78 957 l 235 1057 q 246 1009 238 1018 q 263 1000 254 1000 q 280 1009 272 1000 q 289 1057 288 1018 l 453 1057 l 453 1057 z "},"˝":{"ha":611,"x_min":29,"x_max":565,"o":"m 165 1057 l 356 1057 l 169 818 l 29 818 l 165 1057 m 375 1057 l 565 1057 l 379 818 l 239 818 l 375 1057 z "},"˚":{"ha":417,"x_min":63,"x_max":353,"o":"m 353 939 q 340 879 353 906 q 307 833 328 853 q 260 803 286 814 q 208 793 235 793 q 156 803 182 793 q 108 833 129 814 q 75 879 88 853 q 63 939 63 906 q 75 999 63 972 q 108 1044 88 1025 q 156 1073 129 1063 q 208 1083 182 1083 q 260 1073 235 1083 q 307 1044 286 1063 q 340 999 328 1025 q 353 939 353 972 m 233 939 q 226 958 233 950 q 208 965 218 965 q 190 958 197 965 q 182 939 182 950 q 208 913 182 913 q 226 920 218 913 q 233 939 233 928 z "},"˙":{"ha":417,"x_min":111,"x_max":306,"o":"m 111 878 l 111 1072 l 306 1072 l 306 878 l 111 878 z "},"¸":{"ha":417,"x_min":68,"x_max":347,"o":"m 290 -11 l 269 -61 q 328 -106 308 -76 q 347 -171 347 -135 q 335 -220 347 -200 q 301 -253 322 -240 q 251 -271 279 -265 q 190 -276 222 -276 q 68 -246 121 -276 l 103 -156 q 147 -172 131 -168 q 174 -176 163 -175 q 195 -175 190 -178 q 201 -167 200 -172 q 178 -146 204 -154 q 104 -135 151 -137 l 169 17 l 290 -11 z "},"˛":{"ha":417,"x_min":69,"x_max":344,"o":"m 297 -89 q 233 -117 258 -96 q 217 -157 208 -137 q 240 -168 221 -168 q 310 -142 267 -168 l 344 -233 q 276 -265 313 -256 q 208 -275 240 -275 q 157 -270 182 -275 q 113 -253 132 -265 q 81 -219 93 -240 q 69 -165 69 -197 q 83 -110 69 -139 q 121 -56 96 -81 q 182 -12 146 -31 q 264 13 218 7 l 297 -89 z "},"¡":{"ha":333,"x_min":47,"x_max":285,"o":"m 274 404 l 285 -315 l 47 -315 l 57 404 l 274 404 m 278 693 l 278 471 l 49 471 l 49 693 l 278 693 z "},"¿":{"ha":611,"x_min":33,"x_max":589,"o":"m 436 371 q 433 308 436 342 q 420 240 431 275 q 390 169 410 206 q 338 96 371 133 q 273 5 292 44 q 254 -76 254 -35 q 272 -126 254 -110 q 318 -142 290 -142 q 354 -137 338 -142 q 388 -122 371 -133 q 426 -89 406 -110 q 472 -35 446 -68 l 589 -189 q 521 -252 553 -226 q 456 -294 489 -278 q 385 -316 422 -310 q 306 -322 349 -322 q 185 -305 236 -322 q 100 -257 133 -287 q 50 -185 67 -226 q 33 -93 33 -143 q 69 51 33 -21 q 156 183 104 122 q 206 275 192 226 q 219 372 219 324 l 219 440 l 436 440 l 436 371 m 444 697 l 444 475 l 210 475 l 210 697 l 444 697 z "},"ː":{"ha":417,"x_min":38,"x_max":375,"o":"m 211 468 l 38 761 l 375 761 l 211 468 m 211 365 l 38 72 l 375 72 l 211 365 z "},"∮":{"ha":833,"x_min":97,"x_max":733,"o":"m 529 665 q 659 578 611 640 q 707 419 707 515 q 644 242 707 307 q 476 161 581 176 l 464 38 q 446 -56 458 -12 q 407 -131 433 -99 q 338 -181 381 -162 q 231 -199 294 -199 q 206 -199 217 -199 q 181 -197 194 -199 q 149 -190 168 -194 q 97 -176 129 -185 l 125 0 q 190 -21 172 -19 q 219 -22 208 -22 q 293 46 285 -22 l 307 172 q 178 261 226 199 q 131 419 131 324 q 194 595 131 529 q 361 676 257 661 l 375 801 q 393 894 381 851 q 431 967 406 936 q 499 1016 457 999 q 607 1033 542 1033 q 660 1027 635 1033 q 733 1007 685 1021 l 710 831 q 650 853 669 850 q 618 857 631 857 q 568 842 590 857 q 542 788 546 826 l 529 665 m 297 421 q 325 339 297 369 l 343 514 q 310 476 322 499 q 297 421 297 453 m 536 419 q 511 494 536 465 l 493 325 q 536 419 536 356 z "},"∑":{"ha":972,"x_min":82,"x_max":888,"o":"m 82 -72 l 82 26 l 463 433 l 82 813 l 82 944 l 886 944 l 886 758 l 421 758 l 743 449 l 429 115 l 888 115 l 888 -72 l 82 -72 z "},"∏":{"ha":956,"x_min":10,"x_max":935,"o":"m 797 763 l 797 -87 l 561 -87 l 561 763 l 379 763 l 379 -87 l 147 -87 l 147 763 l 10 763 l 10 944 l 935 944 l 935 763 l 797 763 z "},"¤":{"ha":778,"x_min":19,"x_max":757,"o":"m 386 769 q 467 758 431 769 q 531 731 503 746 l 632 839 l 757 713 l 640 614 q 668 548 658 583 q 678 467 678 513 q 669 376 678 414 q 642 307 660 339 l 751 204 l 628 82 l 526 192 q 458 163 496 174 q 383 153 421 153 q 310 163 346 153 q 243 190 275 172 l 143 81 l 19 201 l 132 303 q 102 372 113 335 q 92 458 92 410 q 103 548 92 507 q 133 621 114 589 l 21 717 l 143 842 l 247 732 q 311 758 275 747 q 386 769 347 769 m 385 603 q 317 561 340 603 q 293 460 293 519 q 301 397 293 424 q 323 354 310 371 q 352 329 336 338 q 383 321 368 321 q 447 354 418 321 q 476 465 476 388 q 471 515 476 490 q 454 560 465 540 q 426 591 443 579 q 385 603 408 603 z "},"℉":{"ha":1347,"x_min":69,"x_max":1306,"o":"m 69 908 q 85 983 69 947 q 129 1047 101 1019 q 195 1090 157 1074 q 278 1106 233 1106 q 359 1090 321 1106 q 425 1047 397 1074 q 469 983 453 1019 q 485 908 485 947 q 469 832 485 868 q 425 769 453 796 q 359 725 397 742 q 278 708 321 708 q 194 724 232 708 q 128 767 156 740 q 85 831 100 794 q 69 908 69 868 m 278 860 q 312 874 297 860 q 326 908 326 889 q 312 942 326 928 q 278 957 297 957 q 244 942 258 957 q 229 908 229 928 q 244 874 229 889 q 278 860 258 860 m 1279 497 l 1279 258 l 831 258 l 831 -160 l 542 -160 l 542 892 l 1306 892 l 1306 653 l 831 653 l 831 497 l 1279 497 z "},"‰":{"ha":1306,"x_min":40,"x_max":1264,"o":"m 219 769 q 213 765 215 769 q 208 748 210 761 q 204 710 206 735 q 203 644 203 685 q 204 586 203 608 q 208 551 206 564 q 213 535 210 539 q 221 531 217 531 q 226 535 224 531 q 231 551 229 539 q 235 586 233 564 q 236 644 236 608 q 235 710 236 685 q 231 748 233 735 q 226 765 229 761 q 219 769 224 769 m 571 947 l 719 947 l 343 -68 l 194 -68 l 571 947 m 219 383 q 83 449 126 383 q 40 644 40 514 q 83 845 40 774 q 219 917 125 917 q 356 845 314 917 q 399 644 399 774 q 356 449 399 514 q 219 383 313 383 m 696 350 q 689 346 692 350 q 684 328 686 342 q 681 290 682 315 q 679 225 679 265 q 681 167 679 189 q 684 132 682 144 q 690 115 686 119 q 697 111 693 111 q 703 115 700 111 q 708 132 706 119 q 711 167 710 144 q 713 225 713 189 q 711 290 713 265 q 708 328 710 315 q 703 346 706 342 q 696 350 700 350 m 696 -36 q 560 29 603 -36 q 517 225 517 94 q 559 426 517 354 q 696 497 601 497 q 833 426 790 497 q 875 225 875 354 q 832 29 875 94 q 696 -36 789 -36 m 1085 350 q 1078 346 1081 350 q 1073 328 1075 342 q 1069 290 1071 315 q 1068 225 1068 265 q 1069 167 1068 189 q 1073 132 1071 144 q 1078 115 1075 119 q 1086 111 1082 111 q 1092 115 1089 111 q 1097 132 1094 119 q 1100 167 1099 144 q 1101 225 1101 189 q 1100 290 1101 265 q 1097 328 1099 315 q 1092 346 1094 342 q 1085 350 1089 350 m 1085 -36 q 949 29 992 -36 q 906 225 906 94 q 948 426 906 354 q 1085 497 990 497 q 1222 426 1179 497 q 1264 225 1264 354 q 1221 29 1264 94 q 1085 -36 1178 -36 z "},"◁":{"ha":1306,"x_min":196,"x_max":1099,"o":"m 196 419 l 1099 982 l 1099 -139 l 196 419 m 464 418 l 943 126 l 943 713 l 464 418 z "},"◀":{"ha":1306,"x_min":196,"x_max":1099,"o":"m 196 419 l 1099 982 l 1099 -139 l 196 419 z "},"▷":{"ha":1306,"x_min":207,"x_max":1110,"o":"m 207 -139 l 207 982 l 1110 419 l 207 -139 m 363 713 l 363 126 l 842 418 l 363 713 z "},"▶":{"ha":1306,"x_min":207,"x_max":1110,"o":"m 207 -139 l 207 982 l 1110 419 l 207 -139 z "},"♤":{"ha":1306,"x_min":168,"x_max":1136,"o":"m 849 -187 l 457 -187 l 457 -107 q 473 -72 465 -93 q 488 -26 481 -50 q 502 22 496 -3 q 513 69 508 47 q 440 44 478 54 q 381 33 403 33 q 222 98 276 33 q 168 267 168 163 q 290 577 168 383 q 653 1029 413 771 q 1015 577 893 771 q 1136 267 1136 383 q 1083 97 1136 163 q 925 32 1029 32 q 865 41 901 32 q 790 68 828 50 q 815 -26 800 22 q 849 -107 831 -74 l 849 -187 m 994 268 q 959 398 994 322 q 872 554 924 474 q 760 710 819 635 q 653 839 701 786 q 545 710 604 786 q 434 554 486 635 q 347 398 382 474 q 311 268 311 322 q 326 190 311 222 q 381 157 340 157 q 431 168 404 157 q 507 210 457 179 q 540 226 522 219 q 576 232 557 232 q 626 213 610 232 q 642 149 642 194 q 630 42 642 101 q 601 -67 618 -18 l 601 -71 l 703 -71 l 703 -67 q 676 42 688 -18 q 665 149 665 101 q 681 213 665 194 q 729 232 696 232 q 766 226 749 232 q 799 210 783 219 q 877 168 849 179 q 925 157 906 157 q 980 190 965 157 q 994 268 994 222 z "},"♠":{"ha":1306,"x_min":168,"x_max":1136,"o":"m 849 -187 l 457 -187 l 457 -107 q 473 -72 465 -93 q 488 -26 481 -50 q 502 22 496 -3 q 513 69 508 47 q 440 44 478 54 q 381 33 403 33 q 222 98 276 33 q 168 267 168 163 q 290 577 168 383 q 653 1029 413 771 q 1015 577 893 771 q 1136 267 1136 383 q 1083 97 1136 163 q 925 32 1029 32 q 865 41 901 32 q 790 68 828 50 q 815 -26 800 22 q 849 -107 831 -74 l 849 -187 z "},"♡":{"ha":1379,"x_min":75,"x_max":1311,"o":"m 693 -147 q 454 26 567 -71 q 258 224 342 122 q 124 428 174 326 q 75 618 75 531 q 99 747 75 685 q 164 857 122 810 q 264 933 206 904 q 392 961 322 961 q 482 950 436 961 q 568 917 528 939 q 641 863 608 894 q 693 792 674 832 q 745 863 713 832 q 818 917 778 894 q 904 950 858 939 q 994 961 950 961 q 1122 933 1064 961 q 1222 857 1181 904 q 1288 747 1264 810 q 1311 618 1311 685 q 1262 428 1311 531 q 1128 224 1213 326 q 932 26 1044 122 q 693 -147 819 -71 m 693 14 q 869 153 785 79 q 1017 305 953 228 q 1120 458 1082 382 q 1158 603 1158 533 q 1142 703 1158 661 q 1100 772 1126 744 q 1039 812 1074 799 q 967 825 1004 825 q 899 814 929 825 q 844 785 868 803 q 802 743 821 767 q 769 696 783 719 q 734 644 754 669 q 693 618 714 618 q 652 643 672 618 q 617 694 632 668 q 583 742 601 718 q 541 784 565 765 q 487 814 517 803 q 419 825 457 825 q 347 812 382 825 q 286 772 313 799 q 244 703 260 744 q 228 603 228 661 q 266 458 228 533 q 369 305 304 382 q 517 153 433 228 q 693 14 601 79 z "},"♥":{"ha":1379,"x_min":75,"x_max":1311,"o":"m 693 -147 q 454 26 567 -71 q 258 224 342 122 q 124 428 174 326 q 75 618 75 531 q 99 747 75 685 q 164 857 122 810 q 264 933 206 904 q 392 961 322 961 q 482 950 436 961 q 568 917 528 939 q 641 863 608 894 q 693 792 674 832 q 745 863 713 832 q 818 917 778 894 q 904 950 858 939 q 994 961 950 961 q 1122 933 1064 961 q 1222 857 1181 904 q 1288 747 1264 810 q 1311 618 1311 685 q 1262 428 1311 531 q 1128 224 1213 326 q 932 26 1044 122 q 693 -147 819 -71 z "},"♧":{"ha":1306,"x_min":63,"x_max":1243,"o":"m 457 -106 q 499 -28 478 -65 q 532 56 521 10 q 537 80 536 74 q 533 88 538 86 q 514 79 525 90 q 492 60 503 68 q 415 13 451 28 q 325 -1 379 -1 q 218 22 267 -1 q 135 85 169 46 q 82 174 101 124 q 63 279 63 225 q 82 385 63 335 q 135 473 101 435 q 216 533 169 511 q 318 556 263 556 q 394 542 356 556 q 476 503 432 528 q 494 494 483 499 q 510 500 504 490 q 509 515 515 510 q 496 528 503 521 q 441 581 464 557 q 403 633 418 606 q 381 691 389 660 q 374 765 374 722 q 398 867 374 821 q 461 947 422 914 q 550 999 500 981 q 653 1017 600 1017 q 755 999 704 1017 q 844 947 806 981 q 908 867 883 914 q 932 765 932 821 q 924 690 932 722 q 899 631 915 658 q 858 579 882 604 q 803 525 833 554 q 791 513 796 518 q 792 499 786 508 q 807 492 797 489 q 824 500 817 496 q 909 540 868 525 q 988 556 950 556 q 1085 534 1039 556 q 1167 476 1132 513 q 1223 388 1203 439 q 1243 279 1243 338 q 1224 170 1243 221 q 1169 81 1204 119 q 1085 21 1133 43 q 981 -1 1038 -1 q 890 14 926 -1 q 815 61 854 29 q 793 78 804 69 q 774 86 782 88 q 769 80 767 85 q 775 57 771 75 q 807 -27 786 11 q 849 -106 828 -65 l 849 -174 l 457 -174 l 457 -106 m 706 -61 l 706 -58 q 674 53 685 -7 q 664 160 664 113 q 682 217 664 197 q 728 236 700 236 q 793 211 765 236 q 874 147 833 174 q 969 119 915 119 q 1078 167 1039 119 q 1118 285 1118 214 q 1108 346 1118 317 q 1078 397 1097 375 q 1033 433 1060 419 q 976 446 1007 446 q 865 415 922 446 q 821 397 846 404 q 772 388 796 389 q 724 396 747 388 q 686 425 701 404 q 667 499 660 461 q 706 567 675 536 q 751 615 732 593 q 783 658 771 636 q 801 703 796 679 q 807 760 807 726 q 763 864 807 824 q 653 904 719 904 q 543 864 586 904 q 500 760 500 824 q 506 703 500 726 q 523 658 511 679 q 553 615 535 636 q 600 567 572 593 q 636 497 628 539 q 619 422 644 456 q 583 394 604 403 q 536 388 561 386 q 486 397 511 389 q 440 415 461 404 q 329 446 385 446 q 272 433 297 446 q 227 397 246 419 q 198 346 208 375 q 188 285 188 317 q 227 167 188 214 q 336 119 267 119 q 431 147 390 119 q 513 211 472 174 q 578 236 539 236 q 624 217 606 236 q 642 160 642 197 q 639 108 642 136 q 631 51 636 81 q 617 -6 625 22 q 600 -58 610 -33 l 600 -61 l 706 -61 z "},"♣":{"ha":1306,"x_min":63,"x_max":1243,"o":"m 457 -106 q 499 -28 478 -65 q 532 56 521 10 q 537 80 536 74 q 533 88 538 86 q 514 79 525 90 q 492 60 503 68 q 415 13 451 28 q 325 -1 379 -1 q 218 22 267 -1 q 135 85 169 46 q 82 174 101 124 q 63 279 63 225 q 82 385 63 335 q 135 473 101 435 q 216 533 169 511 q 318 556 263 556 q 394 542 356 556 q 476 503 432 528 q 494 494 483 499 q 510 500 504 490 q 509 515 515 510 q 496 528 503 521 q 441 581 464 557 q 403 633 418 606 q 381 691 389 660 q 374 765 374 722 q 398 867 374 821 q 461 947 422 914 q 550 999 500 981 q 653 1017 600 1017 q 755 999 704 1017 q 844 947 806 981 q 908 867 883 914 q 932 765 932 821 q 924 690 932 722 q 899 631 915 658 q 858 579 882 604 q 803 525 833 554 q 791 513 796 518 q 792 499 786 508 q 807 492 797 489 q 824 500 817 496 q 909 540 868 525 q 988 556 950 556 q 1085 534 1039 556 q 1167 476 1132 513 q 1223 388 1203 439 q 1243 279 1243 338 q 1224 170 1243 221 q 1169 81 1204 119 q 1085 21 1133 43 q 981 -1 1038 -1 q 890 14 926 -1 q 815 61 854 29 q 793 78 804 69 q 774 86 782 88 q 769 80 767 85 q 775 57 771 75 q 807 -27 786 11 q 849 -106 828 -65 l 849 -174 l 457 -174 l 457 -106 z "},"⊙":{"ha":1306,"x_min":82,"x_max":1224,"o":"m 1224 417 q 1181 193 1224 297 q 1062 12 1138 89 q 881 -110 986 -65 q 653 -154 776 -154 q 432 -112 536 -154 q 250 6 328 -69 q 127 187 172 82 q 82 417 82 292 q 125 640 82 536 q 244 820 168 743 q 424 941 319 897 q 653 985 529 985 q 874 943 771 985 q 1056 826 978 901 q 1178 647 1133 751 q 1224 417 1224 542 m 1053 417 q 1022 580 1053 504 q 936 712 990 656 q 809 801 882 768 q 653 833 736 833 q 501 803 574 833 q 373 717 428 772 q 285 585 318 663 q 253 417 253 508 q 284 253 253 329 q 369 119 315 176 q 497 28 424 61 q 653 -4 569 -4 q 805 27 732 -4 q 933 114 878 58 q 1020 247 988 169 q 1053 417 1053 324 m 867 417 q 849 335 867 374 q 803 267 832 296 q 734 221 774 238 q 651 204 694 204 q 568 221 607 204 q 500 267 529 238 q 453 335 471 296 q 436 417 436 374 q 453 501 436 463 q 500 569 471 540 q 568 613 529 597 q 651 629 607 629 q 733 613 694 629 q 802 569 772 597 q 849 501 832 540 q 867 417 867 463 z "},"◈":{"ha":1306,"x_min":13,"x_max":1290,"o":"m 651 -211 l 13 422 l 651 1058 l 1290 422 l 651 -211 m 1072 422 l 651 846 l 229 422 l 651 3 l 1072 422 m 651 56 l 285 422 l 651 789 l 1018 422 l 651 56 z "},"▣":{"ha":1306,"x_min":114,"x_max":1193,"o":"m 114 -118 l 114 957 l 1193 957 l 1193 -118 l 114 -118 m 1022 814 l 283 814 l 283 25 l 1022 25 l 1022 814 m 947 129 l 360 129 l 360 708 l 947 708 l 947 129 z "},"◐":{"ha":1306,"x_min":82,"x_max":1222,"o":"m 1222 419 q 1179 191 1222 296 q 1060 10 1136 86 q 878 -108 983 -65 q 646 -151 772 -151 q 420 -109 524 -151 q 242 10 317 -67 q 124 191 167 86 q 82 419 82 296 q 124 647 82 543 q 242 826 167 751 q 420 944 317 901 q 646 986 524 986 q 878 944 772 986 q 1060 826 983 901 q 1179 646 1136 750 q 1222 419 1222 542 m 1078 418 q 1050 577 1078 503 q 973 709 1022 651 q 856 804 924 767 q 707 853 788 842 l 707 -18 q 854 30 786 -8 q 972 126 922 68 q 1050 259 1022 185 q 1078 418 1078 333 z "},"◑":{"ha":1306,"x_min":82,"x_max":1222,"o":"m 82 419 q 125 646 82 542 q 244 826 168 750 q 426 944 321 901 q 658 986 532 986 q 884 944 781 986 q 1063 826 988 901 q 1180 647 1138 751 q 1222 419 1222 543 q 1180 191 1222 296 q 1063 10 1138 86 q 884 -109 988 -67 q 658 -151 781 -151 q 426 -108 532 -151 q 244 10 321 -65 q 125 191 168 86 q 82 419 82 296 m 226 418 q 254 259 226 333 q 332 126 282 185 q 450 30 382 68 q 597 -18 518 -8 l 597 853 q 449 804 517 842 q 331 709 381 767 q 254 577 282 651 q 226 418 226 503 z "},"▒":{"ha":1306,"x_min":72,"x_max":1232,"o":"m 1231 944 q 1217 911 1231 924 q 1185 899 1203 899 q 1149 911 1164 899 q 1135 944 1135 924 q 1149 978 1135 965 q 1185 992 1164 992 q 1217 978 1203 992 q 1231 944 1231 965 m 1054 944 q 1040 911 1054 924 q 1006 899 1026 899 q 971 911 985 899 q 957 944 957 924 q 971 979 957 965 q 1006 993 985 993 q 1040 979 1026 993 q 1054 944 1054 965 m 1231 768 q 1217 733 1231 747 q 1185 719 1203 719 q 1149 733 1164 719 q 1135 768 1135 746 q 1149 802 1135 789 q 1185 815 1164 815 q 1217 802 1203 815 q 1231 768 1231 789 m 878 944 q 865 911 878 924 q 831 899 851 899 q 796 911 810 899 q 782 944 782 924 q 796 979 782 965 q 831 993 810 993 q 865 979 851 993 q 878 944 878 965 m 1054 769 q 1040 733 1054 747 q 1006 719 1026 719 q 971 733 985 719 q 957 769 957 747 q 971 803 957 790 q 1006 817 985 817 q 1040 803 1026 817 q 1054 769 1054 790 m 1231 590 q 1217 556 1231 569 q 1185 543 1203 543 q 1149 556 1164 543 q 1135 590 1135 569 q 1149 625 1135 611 q 1185 639 1164 639 q 1217 625 1203 639 q 1231 590 1231 611 m 878 769 q 865 733 878 747 q 831 719 851 719 q 796 733 810 719 q 782 769 782 747 q 796 803 782 790 q 831 817 810 817 q 865 803 851 817 q 878 769 878 790 m 700 944 q 687 911 700 924 q 651 899 674 899 q 619 911 632 899 q 606 944 606 924 q 619 978 606 965 q 651 992 632 992 q 687 978 674 992 q 700 944 700 965 m 1054 592 q 1040 556 1054 569 q 1006 543 1026 543 q 971 557 985 543 q 957 592 957 571 q 971 626 957 613 q 1006 639 985 639 q 1040 626 1026 639 q 1054 592 1054 613 m 1231 413 q 1217 381 1231 394 q 1185 367 1203 367 q 1149 381 1164 367 q 1135 413 1135 394 q 1149 447 1135 433 q 1185 461 1164 461 q 1217 447 1203 461 q 1231 413 1231 433 m 878 592 q 865 557 878 571 q 831 543 851 543 q 796 557 810 543 q 782 592 782 571 q 796 626 782 613 q 831 639 810 639 q 865 626 851 639 q 878 592 878 613 m 700 768 q 687 733 700 746 q 651 719 674 719 q 619 733 632 719 q 606 768 606 747 q 619 802 606 789 q 651 815 632 815 q 687 802 674 815 q 700 768 700 789 m 1231 238 q 1217 203 1231 218 q 1185 189 1203 189 q 1149 203 1164 189 q 1135 238 1135 218 q 1149 271 1135 257 q 1185 285 1164 285 q 1217 271 1203 285 q 1231 238 1231 257 m 522 944 q 509 911 522 924 q 474 899 496 899 q 440 911 453 899 q 426 944 426 924 q 440 978 426 965 q 474 992 453 992 q 509 978 496 992 q 522 944 522 965 m 1053 413 q 1040 381 1053 394 q 1006 367 1026 367 q 971 381 985 367 q 957 413 957 394 q 971 447 957 433 q 1006 461 985 461 q 1040 447 1026 461 q 1053 413 1053 433 m 700 590 q 687 556 700 569 q 651 543 674 543 q 619 556 632 543 q 606 590 606 569 q 619 625 606 611 q 651 639 632 639 q 687 625 674 639 q 700 590 700 611 m 876 413 q 864 381 876 394 q 831 367 851 367 q 796 381 810 367 q 782 413 782 394 q 796 447 782 433 q 831 461 810 461 q 864 447 851 461 q 876 413 876 433 m 1232 60 q 1218 26 1232 40 q 1186 11 1204 11 q 1149 26 1163 11 q 1135 60 1135 40 q 1149 96 1135 82 q 1186 110 1163 110 q 1218 95 1204 110 q 1232 60 1232 81 m 347 944 q 333 911 347 924 q 297 899 318 899 q 263 911 276 899 q 249 944 249 924 q 263 979 249 965 q 297 993 276 993 q 333 979 318 993 q 347 944 347 965 m 522 768 q 509 733 522 746 q 474 719 496 719 q 440 733 453 719 q 426 768 426 747 q 440 802 426 789 q 474 815 453 815 q 509 802 496 815 q 522 768 522 789 m 1053 238 q 1040 203 1053 218 q 1006 189 1026 189 q 971 203 985 189 q 957 238 957 218 q 971 271 957 257 q 1006 285 985 285 q 1040 271 1026 285 q 1053 238 1053 257 m 700 413 q 687 381 700 394 q 651 367 674 367 q 619 381 632 367 q 606 413 606 394 q 619 447 606 433 q 651 461 632 461 q 687 447 674 461 q 700 413 700 433 m 876 238 q 864 203 876 218 q 831 189 851 189 q 796 203 810 189 q 782 238 782 218 q 796 271 782 257 q 831 285 810 285 q 864 271 851 285 q 876 238 876 257 m 1232 -117 q 1218 -151 1232 -137 q 1186 -165 1204 -165 q 1149 -151 1163 -165 q 1135 -117 1135 -137 q 1149 -83 1135 -97 q 1186 -69 1163 -69 q 1218 -83 1204 -69 q 1232 -117 1232 -97 m 347 769 q 333 733 347 747 q 297 719 318 719 q 263 733 276 719 q 249 769 249 747 q 263 803 249 790 q 297 817 276 817 q 333 803 318 817 q 347 769 347 790 m 522 590 q 509 556 522 569 q 474 543 496 543 q 440 556 453 543 q 426 590 426 569 q 440 625 426 611 q 474 639 453 639 q 509 625 496 639 q 522 590 522 611 m 1054 60 q 1040 26 1054 40 q 1006 11 1026 11 q 972 26 986 11 q 957 60 957 40 q 971 95 957 81 q 1006 110 985 110 q 1040 95 1026 110 q 1054 60 1054 81 m 168 944 q 153 911 168 924 q 118 899 139 899 q 86 911 100 899 q 72 944 72 924 q 86 978 72 965 q 118 992 100 992 q 153 978 139 992 q 168 944 168 965 m 700 238 q 687 203 700 218 q 651 189 674 189 q 619 203 632 189 q 606 238 606 218 q 619 271 606 257 q 651 285 632 285 q 687 271 674 285 q 700 238 700 257 m 878 60 q 865 26 878 40 q 831 11 851 11 q 796 26 810 11 q 782 60 782 40 q 796 95 782 81 q 831 110 810 110 q 865 95 851 110 q 878 60 878 81 m 347 592 q 333 557 347 571 q 297 543 318 543 q 263 556 276 543 q 249 592 249 569 q 263 626 249 613 q 297 639 276 639 q 333 626 318 639 q 347 592 347 613 m 522 413 q 509 381 522 394 q 474 367 496 367 q 440 381 453 367 q 426 413 426 394 q 440 447 426 433 q 474 461 453 461 q 509 447 496 461 q 522 413 522 433 m 1054 -117 q 1040 -151 1054 -137 q 1006 -165 1026 -165 q 972 -151 986 -165 q 957 -117 957 -136 q 971 -83 957 -97 q 1006 -69 985 -69 q 1040 -83 1026 -69 q 1054 -117 1054 -97 m 168 768 q 153 733 168 747 q 118 719 139 719 q 86 733 100 719 q 72 768 72 747 q 86 802 72 789 q 118 815 100 815 q 153 802 139 815 q 168 768 168 789 m 701 60 q 688 26 701 40 q 651 11 675 11 q 619 26 632 11 q 606 60 606 40 q 619 95 606 81 q 651 110 632 110 q 688 96 675 110 q 701 60 701 82 m 878 -117 q 865 -151 878 -136 q 831 -165 851 -165 q 796 -151 810 -165 q 782 -117 782 -136 q 796 -83 782 -97 q 831 -69 810 -69 q 865 -83 851 -69 q 878 -117 878 -97 m 522 238 q 509 203 522 218 q 474 189 496 189 q 440 203 453 189 q 426 238 426 218 q 440 271 426 257 q 474 285 453 285 q 509 271 496 285 q 522 238 522 257 m 168 589 q 153 556 168 569 q 118 543 139 543 q 86 556 100 543 q 72 589 72 569 q 86 626 72 613 q 118 639 100 639 q 153 626 139 639 q 168 589 168 613 m 346 413 q 331 381 346 394 q 297 367 317 367 q 263 381 276 367 q 249 413 249 394 q 263 447 249 433 q 297 461 276 461 q 332 447 318 461 q 346 413 346 433 m 701 -117 q 688 -151 701 -137 q 651 -165 675 -165 q 619 -151 632 -165 q 606 -117 606 -137 q 619 -83 606 -97 q 651 -69 632 -69 q 688 -83 675 -69 q 701 -117 701 -97 m 524 60 q 510 26 524 40 q 475 11 497 11 q 440 26 454 11 q 426 60 426 40 q 440 95 426 81 q 475 110 454 110 q 510 95 497 110 q 524 60 524 81 m 346 238 q 331 203 346 218 q 297 189 317 189 q 263 203 276 189 q 249 238 249 218 q 263 271 249 257 q 297 285 276 285 q 332 271 318 285 q 346 238 346 257 m 168 411 q 153 378 168 392 q 118 365 139 365 q 86 378 100 365 q 72 411 72 392 q 86 445 72 432 q 118 458 100 458 q 153 445 139 458 q 168 411 168 432 m 524 -117 q 510 -151 524 -137 q 475 -165 497 -165 q 440 -151 454 -165 q 426 -117 426 -137 q 440 -83 426 -97 q 475 -69 454 -69 q 510 -83 497 -69 q 524 -117 524 -97 m 347 60 q 333 26 347 40 q 297 11 318 11 q 263 26 276 11 q 249 60 249 40 q 263 95 249 81 q 297 110 276 110 q 333 95 318 110 q 347 60 347 81 m 168 238 q 153 203 168 218 q 118 189 139 189 q 86 203 100 189 q 72 238 72 218 q 86 270 72 257 q 118 283 100 283 q 168 238 168 283 m 347 -117 q 333 -151 347 -136 q 297 -165 318 -165 q 263 -151 276 -165 q 249 -117 249 -137 q 263 -83 249 -97 q 297 -69 276 -69 q 333 -83 318 -69 q 347 -117 347 -97 m 168 60 q 153 26 168 40 q 118 11 139 11 q 86 26 100 11 q 72 60 72 40 q 86 93 72 79 q 118 107 100 107 q 153 93 139 107 q 168 60 168 79 m 168 -117 q 153 -151 168 -137 q 118 -165 139 -165 q 86 -151 100 -165 q 72 -117 72 -137 q 86 -83 72 -97 q 118 -69 100 -69 q 153 -83 139 -69 q 168 -117 168 -97 z "},"▤":{"ha":1306,"x_min":72,"x_max":1232,"o":"m 72 -164 l 72 988 l 1232 988 l 1232 -164 l 72 -164 m 1182 939 l 121 939 l 121 831 l 1182 831 l 1182 939 m 1182 781 l 121 781 l 121 665 l 1182 665 l 1182 781 m 1182 618 l 121 618 l 121 515 l 1182 515 l 1182 618 m 1182 464 l 121 464 l 121 354 l 1182 354 l 1182 464 m 1182 304 l 121 304 l 121 192 l 1182 192 l 1182 304 m 1182 143 l 121 143 l 121 39 l 1182 39 l 1182 143 m 1182 -11 l 121 -11 l 121 -114 l 1182 -114 l 1182 -11 z "},"▥":{"ha":1306,"x_min":72,"x_max":1232,"o":"m 72 -164 l 72 986 l 1232 986 l 1232 -164 l 72 -164 m 1183 936 l 1076 936 l 1076 -114 l 1183 -114 l 1183 936 m 1028 936 l 925 936 l 925 -114 l 1028 -114 l 1028 936 m 874 936 l 763 936 l 763 -114 l 874 -114 l 874 936 m 713 936 l 601 936 l 601 -114 l 713 -114 l 713 936 m 550 936 l 444 936 l 444 -114 l 550 -114 l 550 936 m 396 936 l 281 936 l 281 -114 l 396 -114 l 396 936 m 231 936 l 121 936 l 121 -114 l 231 -114 l 231 936 z "},"▨":{"ha":1306,"x_min":72,"x_max":1232,"o":"m 72 986 l 1232 986 l 1232 -164 l 72 -164 l 72 986 m 664 -114 l 861 -114 l 1178 201 l 1178 397 l 664 -114 m 401 -114 l 594 -114 l 1178 463 l 1178 660 l 401 -114 m 922 -114 l 1178 -114 l 1178 138 l 922 -114 m 156 -114 l 331 -114 l 1178 725 l 1178 901 l 156 -114 m 119 89 l 119 -82 l 1142 936 l 969 936 l 119 89 m 119 353 l 119 153 l 903 936 l 704 936 l 119 353 m 119 622 l 119 419 l 633 936 l 438 936 l 119 622 m 119 682 l 367 936 l 119 936 l 119 682 z "},"▧":{"ha":1306,"x_min":72,"x_max":1232,"o":"m 72 -165 l 72 988 l 1232 988 l 1232 -165 l 72 -165 m 922 938 q 1051 810 989 871 q 1178 683 1113 749 l 1178 938 l 922 938 m 664 938 q 921 680 794 807 q 1178 422 1047 553 l 1178 619 q 1019 778 1099 699 q 861 938 940 858 l 664 938 m 401 938 q 789 551 597 743 q 1178 163 981 358 l 1178 360 q 887 648 1031 504 q 594 938 743 792 l 401 938 m 156 938 q 667 428 414 679 q 1178 -79 919 178 l 1178 94 q 755 516 964 307 q 331 938 546 725 l 156 938 m 1142 -114 q 631 395 883 143 q 119 906 378 647 l 119 732 q 544 308 335 518 q 969 -114 754 99 l 1142 -114 m 903 -114 q 512 278 707 83 q 119 668 317 472 l 119 469 q 413 177 268 321 q 704 -114 557 33 l 903 -114 m 633 -114 q 376 144 503 17 q 119 401 250 271 l 119 199 q 280 42 201 119 q 438 -114 358 -36 l 633 -114 m 367 -114 q 243 12 304 -50 q 119 139 182 74 l 119 -114 l 367 -114 z "},"▦":{"ha":1306,"x_min":72,"x_max":1232,"o":"m 72 -164 l 72 988 l 1232 988 l 1232 -164 l 72 -164 m 1182 939 l 1069 939 l 1069 829 l 1182 829 l 1182 939 m 1024 939 l 915 939 l 915 829 l 1024 829 l 1024 939 m 1182 783 l 1069 783 l 1069 664 l 1182 664 l 1182 783 m 869 939 l 754 939 l 754 829 l 869 829 l 869 939 m 1024 783 l 915 783 l 915 664 l 1024 664 l 1024 783 m 1182 619 l 1069 619 l 1069 511 l 1182 511 l 1182 619 m 869 783 l 754 783 l 754 664 l 869 664 l 869 783 m 710 939 l 590 939 l 590 829 l 710 829 l 710 939 m 1024 619 l 915 619 l 915 511 l 1024 511 l 1024 619 m 1182 465 l 1069 465 l 1069 353 l 1182 353 l 1182 465 m 1024 465 l 915 465 l 915 353 l 1024 353 l 1024 465 m 546 939 l 440 939 l 440 829 l 546 829 l 546 939 m 869 619 l 754 619 l 754 511 l 869 511 l 869 619 m 710 783 l 590 783 l 590 664 l 710 664 l 710 783 m 1182 307 l 1069 307 l 1069 190 l 1182 190 l 1182 307 m 396 939 l 278 939 l 278 829 l 396 829 l 396 939 m 869 465 l 754 465 l 754 353 l 869 353 l 869 465 m 1024 307 l 915 307 l 915 190 l 1024 190 l 1024 307 m 1182 146 l 1069 146 l 1069 38 l 1182 38 l 1182 146 m 546 783 l 440 783 l 440 664 l 546 664 l 546 783 m 710 619 l 590 619 l 590 511 l 710 511 l 710 619 m 1182 -7 l 1069 -7 l 1069 -114 l 1182 -114 l 1182 -7 m 1024 146 l 915 146 l 915 38 l 1024 38 l 1024 146 m 232 939 l 121 939 l 121 829 l 232 829 l 232 939 m 869 307 l 754 307 l 754 190 l 869 190 l 869 307 m 396 783 l 278 783 l 278 664 l 396 664 l 396 783 m 710 465 l 590 465 l 590 353 l 710 353 l 710 465 m 546 619 l 440 619 l 440 511 l 546 511 l 546 619 m 1024 -7 l 915 -7 l 915 -114 l 1024 -114 l 1024 -7 m 869 146 l 754 146 l 754 38 l 869 38 l 869 146 m 546 465 l 440 465 l 440 353 l 546 353 l 546 465 m 396 619 l 278 619 l 278 511 l 396 511 l 396 619 m 232 783 l 121 783 l 121 664 l 232 664 l 232 783 m 710 307 l 590 307 l 590 190 l 710 190 l 710 307 m 869 -7 l 754 -7 l 754 -114 l 869 -114 l 869 -7 m 396 465 l 278 465 l 278 353 l 396 353 l 396 465 m 710 146 l 590 146 l 590 38 l 710 38 l 710 146 m 546 307 l 440 307 l 440 190 l 546 190 l 546 307 m 232 619 l 121 619 l 121 511 l 232 511 l 232 619 m 710 -7 l 590 -7 l 590 -114 l 710 -114 l 710 -7 m 232 465 l 121 465 l 121 353 l 232 353 l 232 465 m 396 307 l 278 307 l 278 190 l 396 190 l 396 307 m 546 146 l 440 146 l 440 38 l 546 38 l 546 146 m 546 -7 l 440 -7 l 440 -114 l 546 -114 l 546 -7 m 396 146 l 278 146 l 278 38 l 396 38 l 396 146 m 232 307 l 121 307 l 121 190 l 232 190 l 232 307 m 396 -7 l 278 -7 l 278 -114 l 396 -114 l 396 -7 m 232 146 l 121 146 l 121 38 l 232 38 l 232 146 m 232 -7 l 121 -7 l 121 -114 l 232 -114 l 232 -7 z "},"▩":{"ha":1306,"x_min":74,"x_max":1232,"o":"m 74 -165 l 74 986 l 1232 986 l 1232 -165 l 74 -165 m 500 289 q 449 341 475 315 q 399 392 424 367 q 349 341 374 367 q 297 290 324 315 q 349 240 324 265 q 400 189 375 214 l 500 289 m 769 567 q 819 615 794 592 q 869 664 844 639 l 769 764 l 669 664 q 719 615 694 639 q 769 567 744 592 m 903 699 q 951 749 928 724 q 1000 799 975 774 l 903 897 q 853 848 878 872 q 803 799 828 824 l 903 699 m 263 58 q 312 108 288 83 q 361 160 336 133 l 265 256 l 167 156 l 263 58 m 531 58 q 580 108 556 83 q 631 157 604 132 l 533 254 l 435 156 q 483 107 460 131 q 531 58 506 83 m 1133 664 l 1038 761 q 988 712 1013 736 q 938 663 963 688 l 1036 567 l 1133 664 m 397 -72 q 447 -24 422 -47 q 497 24 472 0 l 400 121 l 300 21 q 349 -26 325 -4 q 397 -72 372 -47 m 633 701 q 683 751 658 726 q 732 801 707 776 q 687 849 708 826 q 642 894 665 871 q 592 844 617 869 q 540 794 567 819 q 588 747 565 769 q 633 701 610 725 m 906 436 q 953 484 931 461 q 1000 531 975 507 q 953 579 975 556 q 906 628 931 603 q 858 580 881 603 q 811 533 836 557 l 906 436 m 657 -69 q 708 -20 683 -44 q 758 29 733 4 l 667 119 l 569 21 q 613 -24 590 -1 q 657 -69 635 -46 m 358 428 q 313 472 335 450 q 268 518 292 494 q 219 469 243 493 q 169 421 194 446 q 214 376 192 399 q 260 329 236 353 l 358 428 m 1033 304 q 1082 353 1057 329 q 1132 401 1107 376 q 1086 447 1108 425 q 1039 492 1064 469 l 943 396 q 989 350 967 372 q 1033 304 1011 328 m 374 897 q 328 853 350 875 q 285 810 307 832 q 335 760 310 785 q 385 711 360 736 l 471 799 l 374 897 m 263 590 q 307 634 285 613 q 351 678 329 656 q 301 726 326 701 q 250 775 275 750 l 164 689 l 263 590 m 783 311 q 869 397 825 356 q 821 447 844 422 q 772 497 797 472 q 729 452 751 474 q 685 407 707 431 l 783 311 m 650 447 q 692 491 672 469 q 735 535 713 513 l 639 631 q 595 588 617 608 q 553 544 574 567 l 650 447 m 528 325 q 570 368 549 347 q 613 411 592 389 q 564 460 588 436 q 515 510 540 485 l 432 422 q 480 374 457 399 q 528 325 503 350 m 746 276 q 699 325 722 301 q 653 374 676 349 q 608 331 629 351 q 565 288 586 310 q 613 240 589 263 q 663 192 638 217 l 746 276 m 1042 53 q 1086 97 1065 75 q 1129 142 1107 119 q 1084 188 1106 165 q 1038 233 1063 210 q 994 190 1015 211 q 950 146 972 169 q 996 100 974 122 q 1042 53 1018 78 m 601 668 q 556 714 578 692 q 510 758 533 736 q 422 671 464 714 q 467 627 444 649 q 514 582 489 606 l 601 668 m 390 458 q 433 503 413 482 q 476 547 454 525 q 432 593 454 571 q 388 638 410 615 q 344 594 365 617 q 300 550 322 572 q 345 504 324 526 q 390 458 367 482 m 913 183 q 956 228 935 207 q 999 271 976 249 l 908 363 q 865 318 886 340 q 822 274 843 296 l 913 183 m 1007 18 l 915 110 l 829 24 q 876 -22 854 0 q 921 -68 899 -43 l 1007 18 m 792 65 q 834 106 814 85 q 875 149 854 128 q 831 194 853 172 q 788 240 810 217 q 744 198 765 219 q 701 153 722 176 q 747 108 725 131 q 792 65 768 86 m 1179 899 q 1123 844 1149 871 q 1069 790 1097 818 l 1179 682 l 1179 899 m 121 -83 q 175 -29 149 -56 q 231 25 201 -3 q 175 81 201 53 q 121 136 149 108 l 121 -83 m 121 447 q 175 501 149 475 q 231 556 201 528 l 121 664 l 121 447 m 906 -114 q 851 -61 876 -87 q 796 -8 825 -35 q 742 -61 768 -35 q 688 -114 715 -87 l 906 -114 m 1179 374 q 1125 321 1151 347 q 1072 268 1099 294 l 1179 161 l 1179 374 m 121 189 q 174 243 147 217 q 228 297 200 269 q 174 349 200 324 q 121 400 147 374 l 121 189 m 1028 832 q 1082 885 1056 858 q 1135 936 1108 911 l 921 936 q 975 885 949 911 q 1028 832 1001 858 m 1075 528 q 1126 474 1100 500 q 1179 422 1153 449 l 1179 631 q 1126 579 1153 604 q 1075 528 1100 554 m 506 833 q 558 885 532 860 q 610 936 583 911 l 401 936 l 506 833 m 267 -14 q 215 -64 240 -39 q 164 -114 190 -89 l 371 -114 l 267 -14 m 636 -114 q 584 -65 610 -89 q 533 -15 558 -40 l 433 -114 l 636 -114 m 765 836 q 815 886 790 861 q 864 936 839 911 l 665 936 l 765 836 m 1179 111 l 1082 15 l 1179 -81 l 1179 111 m 1046 -21 q 998 -67 1021 -46 q 950 -114 975 -89 l 1139 -114 l 1046 -21 m 213 813 l 121 904 l 121 721 l 213 813 m 244 846 q 291 891 269 869 q 336 936 313 913 l 154 936 l 244 846 z "},"♨":{"ha":1306,"x_min":94,"x_max":1211,"o":"m 924 344 q 874 186 924 282 q 829 93 846 132 q 810 31 813 54 l 792 31 q 781 107 781 75 q 785 163 781 131 q 799 233 789 194 q 813 308 808 276 q 818 361 818 339 q 788 513 818 421 q 757 660 757 604 q 803 786 757 690 q 841 874 826 839 q 860 925 856 908 l 875 925 q 885 860 885 906 q 882 818 885 843 q 874 760 879 793 q 865 703 868 728 q 863 660 863 678 q 893 500 863 593 q 924 344 924 407 m 747 361 q 694 188 747 290 q 640 80 660 121 q 614 19 619 39 l 593 19 q 588 49 590 33 q 586 85 586 65 q 613 217 586 138 q 639 351 639 297 q 606 508 639 406 q 572 663 572 610 q 618 828 572 729 q 672 989 668 929 l 690 989 q 715 885 715 936 q 694 775 715 847 q 674 669 674 704 q 710 518 674 629 q 747 361 747 415 m 551 344 q 501 188 551 283 q 457 95 474 135 q 438 32 440 56 l 421 32 q 408 110 408 58 q 426 235 408 164 q 440 306 436 274 q 444 363 444 338 q 415 514 444 415 q 388 663 388 622 q 432 788 388 692 q 470 871 456 836 q 488 926 485 906 l 503 926 q 511 861 511 899 q 508 817 511 843 q 500 757 506 792 q 492 697 494 722 q 489 654 489 672 q 519 497 489 590 q 551 344 551 386 m 1211 125 q 1183 24 1211 67 q 1107 -51 1154 -19 q 1000 -103 1060 -83 q 876 -136 940 -124 q 751 -153 813 -149 q 639 -158 689 -158 q 535 -153 593 -158 q 417 -137 478 -149 q 299 -106 357 -125 q 195 -56 240 -86 q 122 14 150 -26 q 94 108 94 54 q 125 195 94 156 q 200 265 156 235 q 297 316 244 296 q 393 344 349 336 l 399 326 q 337 299 372 318 q 269 253 301 279 q 214 199 236 228 q 192 142 192 169 q 216 77 192 104 q 278 31 240 50 q 366 1 317 13 q 465 -15 415 -10 q 560 -23 514 -21 q 639 -25 606 -25 q 723 -23 674 -25 q 826 -15 772 -21 q 932 3 879 -8 q 1027 35 985 15 q 1096 85 1069 56 q 1122 156 1122 114 q 1082 237 1122 194 q 954 315 1042 279 l 964 332 q 1043 306 1000 325 q 1124 260 1086 288 q 1186 199 1161 233 q 1211 125 1211 164 z "},"☏":{"ha":1306,"x_min":22,"x_max":1283,"o":"m 1221 536 q 1169 669 1221 613 q 1006 763 1118 725 q 654 814 857 814 q 296 761 457 814 q 132 667 183 724 q 81 532 81 610 q 91 492 81 501 q 121 482 101 482 q 167 488 142 482 q 231 506 192 493 q 295 532 276 521 q 314 560 314 543 q 301 594 314 567 q 289 644 289 624 q 303 681 289 663 q 336 714 317 700 q 417 742 376 742 q 446 722 433 742 q 458 668 458 701 q 441 524 458 589 q 383 408 424 458 q 317 333 351 368 q 250 258 282 297 q 231 225 239 244 q 217 181 224 206 q 208 140 213 161 q 200 100 204 119 q 183 61 197 88 q 174 25 174 43 q 181 7 174 10 q 203 4 188 4 l 1053 4 q 1103 11 1089 4 q 1117 40 1117 18 q 1106 82 1117 60 q 1092 110 1097 100 q 1086 124 1088 121 q 1078 172 1083 143 q 1060 239 1074 201 q 1026 299 1049 269 q 972 360 1003 328 q 886 469 906 432 q 847 656 847 542 q 860 712 847 690 q 892 733 872 733 q 931 729 911 733 q 971 717 951 725 q 1010 688 994 706 q 1025 654 1025 671 q 1011 604 1025 632 q 997 561 997 576 q 1015 535 997 546 q 1075 511 1032 524 q 1137 496 1111 500 q 1182 492 1163 492 q 1213 501 1204 492 q 1221 536 1221 510 m 815 611 q 722 554 815 554 l 569 554 q 489 608 489 554 l 489 729 q 577 719 536 722 q 654 715 618 715 q 728 718 689 715 q 815 726 768 721 l 815 611 m 881 282 q 863 192 881 233 q 815 119 846 150 q 741 72 783 89 q 649 54 699 54 q 556 72 599 54 q 483 119 514 89 q 434 192 451 150 q 417 282 417 233 q 434 373 417 331 q 482 447 451 415 q 556 495 513 478 q 649 513 599 513 q 742 495 700 513 q 815 447 785 478 q 863 373 846 415 q 881 282 881 331 m 768 685 q 719 677 744 679 q 653 675 693 675 q 589 678 615 675 q 535 688 563 681 l 535 626 q 545 603 535 611 q 582 596 556 596 l 719 596 q 768 628 768 596 l 768 685 m 826 283 q 814 354 826 321 q 778 413 801 388 q 722 452 754 438 q 650 467 689 467 q 576 453 610 467 q 519 415 543 439 q 483 356 496 390 q 471 283 471 322 q 517 153 471 204 q 646 101 563 101 q 718 115 685 101 q 776 153 751 129 q 813 211 800 178 q 826 283 826 244 m 1283 542 q 1260 465 1283 493 q 1196 438 1236 438 q 1128 446 1168 438 q 1050 465 1089 454 q 968 505 997 481 q 939 556 939 529 q 954 611 939 575 q 963 630 960 622 q 965 644 965 638 q 953 662 965 656 q 924 672 940 668 q 914 672 918 674 q 910 663 910 671 l 910 632 q 950 472 910 540 q 982 428 960 456 q 1036 365 1004 401 q 1088 301 1067 333 q 1119 240 1108 269 q 1131 210 1126 226 q 1138 176 1135 193 q 1146 132 1143 150 q 1151 108 1149 114 q 1167 81 1151 107 q 1179 42 1179 60 q 1148 -21 1179 7 q 1058 -49 1117 -49 l 189 -49 q 132 -26 149 -49 q 115 31 115 -4 q 128 79 115 56 q 139 99 135 90 q 144 114 143 107 q 151 151 147 133 q 160 188 156 169 q 193 274 175 240 q 276 371 210 300 q 326 426 306 400 q 358 475 347 453 q 388 546 378 507 q 399 629 399 585 l 399 672 q 394 684 399 681 q 383 685 389 688 q 358 672 369 681 q 347 640 347 663 q 350 628 347 633 q 356 614 353 624 q 364 587 360 601 q 368 558 368 572 q 338 506 368 535 q 257 461 308 478 q 180 440 221 450 q 108 429 139 429 q 47 456 71 429 q 22 528 22 482 q 89 694 22 621 q 269 808 156 768 q 443 849 346 836 q 653 863 540 863 q 1029 810 864 863 q 1217 700 1151 769 q 1283 542 1283 631 z "},"☎":{"ha":1306,"x_min":38,"x_max":1268,"o":"m 1268 543 q 1199 454 1268 454 q 1056 481 1136 454 q 953 557 953 513 q 965 607 953 575 q 979 653 979 636 q 956 681 979 668 q 910 693 933 693 q 892 674 892 693 l 892 633 q 933 468 892 539 q 965 424 943 451 q 1022 360 988 397 q 1073 297 1053 328 q 1104 236 1093 265 q 1121 172 1115 213 q 1128 132 1125 149 q 1135 108 1132 115 q 1151 74 1136 99 q 1163 39 1163 54 q 1134 -14 1163 7 q 1063 -35 1106 -35 l 185 -35 q 131 28 131 -35 q 143 72 131 51 q 155 93 150 83 q 161 110 160 103 q 168 147 164 129 q 176 185 172 165 q 191 232 183 211 q 208 268 199 253 q 292 365 225 294 q 343 422 322 396 q 375 471 364 449 q 414 631 414 539 l 414 689 q 403 701 414 701 q 357 683 381 701 q 333 643 333 665 q 344 606 333 632 q 354 560 354 581 q 250 474 354 508 q 103 444 167 444 q 38 529 38 444 q 269 794 38 715 q 653 849 425 849 q 1029 796 864 849 q 1268 543 1268 717 m 815 726 q 728 718 768 721 q 654 715 689 715 q 577 719 618 715 q 489 729 536 722 l 489 608 q 569 554 489 554 l 722 554 q 815 611 815 554 l 815 726 m 879 282 q 862 373 879 331 q 813 446 844 415 q 740 494 782 476 q 649 511 699 511 q 558 494 600 511 q 484 446 515 476 q 435 373 453 415 q 418 282 418 331 q 436 192 418 233 q 485 120 454 150 q 558 73 517 90 q 649 56 600 56 q 739 72 697 56 q 812 119 781 89 q 861 192 843 150 q 879 282 879 233 z "},"☜":{"ha":1306,"x_min":115,"x_max":1188,"o":"m 1083 260 l 1083 289 l 1047 289 q 1012 272 1029 281 q 976 257 994 264 q 901 231 940 242 q 817 213 861 219 q 661 208 774 207 q 554 213 558 211 q 504 225 526 213 q 478 265 478 239 q 500 301 478 293 q 456 324 469 301 q 447 349 447 336 q 463 388 447 368 q 430 401 446 388 q 413 432 414 415 q 525 486 413 482 l 521 497 q 431 501 489 499 q 288 508 372 504 q 183 514 185 513 q 119 569 115 524 q 189 614 122 607 q 235 617 213 617 q 279 618 257 617 q 440 623 343 621 q 671 625 536 625 q 832 621 794 625 q 1004 544 936 606 q 1086 538 1007 540 l 1086 581 l 1188 581 l 1188 260 l 1083 260 m 1086 514 q 1077 515 1085 514 q 1054 517 1069 515 q 1039 518 1046 518 q 1025 518 1032 518 q 1031 496 1031 506 q 1028 492 1031 492 q 1000 518 1025 492 q 939 567 969 547 q 718 606 879 606 q 689 604 693 606 q 599 571 631 592 q 569 536 583 563 q 542 500 554 508 q 545 494 540 499 q 560 490 550 490 q 585 494 569 490 q 619 519 597 500 q 646 540 642 540 q 650 539 649 540 q 644 518 654 531 q 668 513 644 515 q 701 513 690 510 q 717 518 708 515 q 736 526 726 521 q 756 536 754 536 q 758 535 758 536 q 739 503 761 521 q 753 489 746 496 q 769 475 761 482 q 846 432 803 446 q 936 415 881 422 q 972 403 972 408 q 929 396 972 394 q 853 408 888 399 q 753 463 796 425 l 717 499 q 686 494 693 494 q 628 504 653 494 l 608 486 q 630 481 619 483 q 650 476 640 479 q 696 453 693 464 q 700 435 700 442 q 681 396 700 415 q 709 380 693 396 q 725 351 725 364 q 703 315 725 332 q 725 306 718 311 q 747 275 746 293 q 729 231 749 250 q 735 231 731 231 q 746 229 739 231 q 763 229 756 229 q 776 231 769 229 q 876 247 826 233 q 978 282 926 260 q 1058 319 1054 313 l 1058 304 q 1086 304 1060 303 l 1086 514 m 618 604 q 449 603 533 604 q 281 599 365 601 q 216 596 242 597 q 179 592 190 594 q 142 565 143 585 q 174 536 142 544 q 281 528 197 532 q 398 523 335 525 q 536 518 461 521 q 547 534 540 524 q 564 560 554 544 q 618 604 578 585 m 1165 557 l 1106 557 l 1106 282 l 1165 282 l 1165 557 m 667 407 q 679 431 679 417 q 640 463 679 457 q 519 467 590 472 q 446 450 472 468 q 438 433 438 443 q 469 406 438 406 q 547 403 472 403 q 667 407 656 403 m 703 351 q 642 383 703 383 l 508 383 q 483 373 494 383 q 471 351 471 363 q 490 324 471 335 q 512 321 493 322 q 563 318 531 319 q 629 318 622 315 q 671 324 653 318 q 703 346 701 332 l 703 351 m 725 274 q 682 297 721 297 l 615 297 q 578 297 600 297 q 529 296 557 297 q 503 268 503 294 q 521 240 503 246 q 608 232 543 233 q 674 235 671 232 q 706 243 689 235 q 725 274 729 256 z "},"☞":{"ha":1306,"x_min":118,"x_max":1190,"o":"m 219 581 l 219 538 q 301 544 296 539 q 474 621 369 606 q 635 625 511 625 q 866 623 769 625 q 1026 618 963 621 q 1071 617 1049 617 q 1117 614 1093 617 q 1186 569 1183 607 q 1122 514 1190 524 q 1018 508 1121 513 q 875 501 933 504 q 785 497 817 499 l 781 486 q 893 432 893 482 q 876 401 892 415 q 843 388 860 388 q 858 349 858 368 q 850 324 858 336 q 806 301 836 301 q 828 265 828 293 q 801 225 828 239 q 751 213 778 213 q 644 208 747 211 q 489 213 532 207 q 329 257 407 225 q 294 272 311 264 q 258 289 276 281 l 222 289 l 222 260 l 118 260 l 118 581 l 219 581 m 219 304 q 247 304 246 303 l 247 319 q 328 282 250 313 q 429 247 379 260 q 529 231 479 233 q 543 229 536 229 q 560 229 550 229 q 571 231 567 231 q 576 231 575 231 q 558 275 557 250 q 581 306 560 293 q 603 315 588 311 q 581 351 581 332 q 597 380 581 364 q 625 396 613 396 q 606 435 606 415 q 610 453 606 442 q 656 476 613 464 q 676 481 665 479 q 697 486 686 483 l 678 504 q 619 494 653 494 q 589 499 611 494 l 553 463 q 453 408 508 425 q 376 396 418 399 q 333 403 333 394 q 369 415 333 408 q 460 432 425 422 q 536 475 503 446 q 552 489 544 482 q 567 503 560 496 q 547 535 544 521 q 550 536 547 536 q 569 526 551 536 q 588 518 579 521 q 604 513 597 515 q 638 513 614 510 q 661 518 661 515 q 656 539 651 531 q 660 540 657 540 q 686 519 663 540 q 721 494 708 500 q 746 490 735 490 q 760 494 756 490 q 764 500 765 499 q 736 536 751 508 q 707 571 722 563 q 617 604 675 592 q 588 606 613 606 q 367 567 426 606 q 306 518 335 547 q 278 492 281 492 q 275 496 275 492 q 281 518 275 506 q 267 518 274 518 q 251 517 260 518 q 228 515 236 515 q 219 514 221 514 l 219 304 m 688 604 q 742 560 728 585 q 758 534 751 544 q 769 518 765 524 q 908 523 844 521 q 1025 528 971 525 q 1132 536 1108 532 q 1164 565 1164 544 q 1126 592 1163 585 q 1090 596 1115 594 q 1025 599 1064 597 q 856 603 940 601 q 688 604 772 604 m 200 557 l 140 557 l 140 282 l 200 282 l 200 557 m 639 407 q 758 403 649 403 q 836 406 833 403 q 868 433 868 406 q 860 450 868 443 q 786 467 833 468 q 665 463 715 472 q 626 431 626 457 q 639 407 626 417 m 603 346 q 635 324 604 332 q 676 318 653 318 q 743 318 682 315 q 794 321 775 319 q 815 324 813 322 q 835 351 835 335 q 823 373 835 363 q 797 383 811 383 l 664 383 q 603 351 603 383 l 603 346 m 581 274 q 600 243 576 256 q 632 235 617 235 q 697 232 635 232 q 785 240 761 233 q 803 268 803 246 q 776 296 803 294 q 727 297 749 297 q 690 297 706 297 l 624 297 q 581 274 585 297 z "},"¶":{"ha":778,"x_min":71,"x_max":663,"o":"m 332 336 q 240 362 286 342 q 156 418 193 382 q 94 510 118 454 q 71 642 71 565 q 85 765 71 704 q 144 876 100 826 q 267 955 188 925 q 476 985 347 985 q 535 983 510 985 q 581 980 560 982 q 621 974 601 978 q 663 964 640 969 l 663 -112 l 519 -112 l 519 828 l 485 828 l 485 -112 l 332 -112 l 332 336 z "},"†":{"ha":889,"x_min":97,"x_max":790,"o":"m 549 460 l 549 -115 l 339 -115 l 339 460 l 97 460 l 97 636 l 339 636 l 339 939 l 549 939 l 549 636 l 790 636 l 790 460 l 549 460 z "},"‡":{"ha":889,"x_min":99,"x_max":790,"o":"m 339 494 l 339 590 l 99 590 l 99 767 l 339 767 l 339 940 l 549 940 l 549 767 l 790 767 l 790 590 l 549 590 l 549 494 l 790 494 l 790 318 l 549 318 l 549 -118 l 339 -118 l 339 318 l 99 318 l 99 494 l 339 494 z "},"↕":{"ha":972,"x_min":217,"x_max":754,"o":"m 754 100 l 485 -262 l 217 100 l 382 100 l 382 733 l 217 733 l 485 1096 l 754 733 l 586 733 l 586 100 l 754 100 z "},"↗":{"ha":1306,"x_min":11,"x_max":1265,"o":"m 1106 783 l 146 -276 l 11 -162 l 983 906 l 836 1054 l 1265 1074 l 1243 647 l 1106 783 z "},"↙":{"ha":1306,"x_min":39,"x_max":1293,"o":"m 197 38 l 1158 1099 l 1293 985 l 319 -83 l 468 -232 l 39 -251 l 61 175 l 197 38 z "},"↖":{"ha":1306,"x_min":36,"x_max":1290,"o":"m 58 649 l 36 1075 l 465 1056 l 317 907 l 1290 -161 l 1156 -275 l 194 785 l 58 649 z "},"↘":{"ha":1306,"x_min":11,"x_max":1265,"o":"m 1243 175 l 1265 -251 l 836 -232 l 983 -83 l 11 985 l 146 1099 l 1106 38 l 1243 175 z "},"♭":{"ha":806,"x_min":124,"x_max":681,"o":"m 681 419 q 638 220 681 308 q 522 70 596 132 q 345 -25 447 8 q 124 -61 243 -58 l 124 969 l 331 969 l 331 553 q 402 619 363 601 q 474 638 442 638 q 630 580 579 638 q 681 419 681 522 m 468 376 q 426 447 468 447 q 399 438 413 447 q 372 412 385 428 q 349 376 360 396 q 331 336 339 357 l 331 153 q 468 376 468 226 z "},"♩":{"ha":556,"x_min":76,"x_max":429,"o":"m 429 97 q 410 12 429 54 q 359 -64 392 -31 q 284 -117 326 -97 q 194 -137 242 -137 q 108 -115 140 -137 q 76 -33 76 -93 q 92 28 76 -1 q 135 79 108 57 q 196 115 161 101 q 267 128 231 128 l 279 128 q 285 130 283 128 q 286 142 286 132 l 286 1004 l 429 1004 l 429 97 z "},"♪":{"ha":833,"x_min":61,"x_max":769,"o":"m 414 97 q 395 12 414 54 q 344 -64 376 -31 q 269 -117 311 -97 q 179 -137 226 -137 q 93 -115 125 -137 q 61 -33 61 -93 q 77 28 61 -1 q 119 79 93 57 q 181 115 146 101 q 251 128 215 128 l 264 128 q 269 130 268 128 q 271 142 271 132 l 271 999 l 372 999 q 472 874 414 926 q 599 771 529 821 q 676 705 644 738 q 729 635 708 672 q 760 556 750 599 q 769 460 769 513 q 755 356 769 404 q 712 265 740 308 q 642 183 683 222 q 549 104 601 143 l 494 165 q 562 245 536 208 q 601 314 588 282 q 620 374 615 346 q 625 426 625 401 q 617 473 625 451 q 588 515 608 494 q 503 584 549 554 q 414 650 458 614 l 414 97 l 414 97 z "},"♬":{"ha":1167,"x_min":69,"x_max":1043,"o":"m 1043 250 q 1024 165 1043 207 q 973 89 1006 122 q 898 35 940 56 q 808 15 856 15 q 722 38 754 15 q 690 119 690 60 q 706 181 690 151 q 749 232 722 210 q 810 267 775 254 q 881 281 844 281 l 893 281 q 899 283 897 281 q 900 294 900 285 l 900 581 l 422 479 l 422 97 q 403 12 422 54 q 352 -64 385 -31 q 277 -117 319 -97 q 188 -137 235 -137 q 101 -115 133 -137 q 69 -33 69 -93 q 85 28 69 -1 q 128 79 101 57 q 189 115 154 101 q 260 128 224 128 l 272 128 q 278 130 276 128 q 279 142 279 132 l 279 886 l 1043 1047 l 1043 250 m 906 824 l 426 717 l 426 674 l 906 781 l 906 824 z "},"㉿":{"ha":1306,"x_min":69,"x_max":1236,"o":"m 1090 617 q 1019 738 1064 685 q 915 829 974 792 q 790 888 857 867 q 650 910 722 908 q 481 882 563 911 q 335 799 400 853 q 229 667 271 744 q 179 493 188 589 l 339 493 l 339 396 l 69 396 l 69 424 q 115 660 69 553 q 240 845 161 768 q 425 965 319 922 q 650 1007 531 1007 q 828 978 742 1007 q 987 899 914 950 q 1115 776 1060 849 q 1200 617 1171 704 l 1090 617 m 794 125 l 567 388 l 561 381 l 561 125 l 447 125 l 447 749 l 561 749 l 561 514 l 760 743 l 903 743 l 644 454 l 946 125 l 794 125 m 1236 424 q 1190 197 1236 303 q 1063 11 1143 90 q 877 -114 983 -68 q 650 -160 771 -160 q 458 -126 551 -160 q 287 -31 364 -92 q 156 113 210 29 q 82 294 101 196 l 189 296 q 253 152 208 218 q 358 38 297 86 q 494 -37 419 -10 q 650 -64 569 -64 q 831 -28 744 -64 q 985 69 918 7 q 1094 216 1053 132 q 1138 396 1135 300 l 869 396 l 869 493 l 1232 493 q 1236 424 1236 457 z "},"㈜":{"ha":1306,"x_min":21,"x_max":1286,"o":"m 340 861 l 964 861 l 964 693 l 788 693 q 874 626 819 653 q 999 576 928 599 l 936 411 q 774 475 847 435 q 651 582 700 515 q 528 475 600 515 q 361 411 457 435 l 297 576 q 428 625 372 597 q 515 693 483 653 l 340 693 l 340 861 m 1074 1011 q 1238 729 1189 881 q 1286 417 1286 578 q 1274 256 1286 338 q 1238 95 1263 174 q 1172 -56 1213 17 q 1075 -190 1132 -129 l 899 -190 q 997 -49 957 -124 q 1063 103 1038 25 q 1101 261 1089 182 q 1113 417 1113 340 q 1101 572 1113 493 q 1064 726 1089 650 q 998 874 1039 801 q 899 1011 957 946 l 1074 1011 m 408 1011 q 309 874 350 946 q 243 726 268 801 q 206 572 218 650 q 194 417 194 493 q 206 261 194 340 q 244 103 218 182 q 310 -49 269 25 q 408 -190 350 -124 l 232 -190 q 135 -56 175 -129 q 69 95 94 17 q 33 256 44 174 q 21 417 21 338 q 69 729 21 578 q 233 1011 118 881 l 408 1011 m 546 -51 l 546 207 l 249 207 l 249 379 l 1053 379 l 1053 207 l 754 207 l 754 -51 l 546 -51 z "},"№":{"ha":1306,"x_min":39,"x_max":1274,"o":"m 565 -75 l 367 -75 l 215 454 l 215 -75 l 39 -75 l 39 947 l 243 947 l 389 432 l 389 947 l 565 947 l 565 -75 m 847 517 q 822 498 831 517 q 807 448 813 479 q 800 376 801 417 q 799 293 799 336 q 810 133 799 188 q 847 78 822 78 q 884 133 874 78 q 894 293 894 188 q 893 376 894 336 q 888 448 892 417 q 874 498 883 479 q 847 517 864 517 m 1274 -78 l 1089 -78 l 1089 107 l 1274 107 l 1274 -78 m 847 -86 q 727 -54 775 -86 q 651 31 679 -22 q 610 153 622 85 q 599 293 599 221 q 610 438 599 368 q 650 563 622 508 q 726 649 678 617 q 847 681 774 681 q 968 649 921 681 q 1043 563 1015 617 q 1082 438 1071 508 q 1093 293 1093 368 q 1082 153 1093 221 q 1042 31 1071 85 q 967 -54 1014 -22 q 847 -86 919 -86 z "},"㏇":{"ha":1306,"x_min":43,"x_max":1274,"o":"m 43 431 q 63 649 43 553 q 125 813 83 746 q 233 916 167 881 q 390 951 299 951 q 451 947 424 951 q 502 933 478 943 q 550 904 526 922 q 601 858 574 886 l 511 682 q 472 721 488 704 q 442 748 456 738 q 417 763 429 758 q 389 768 404 768 q 318 736 344 768 q 278 655 292 704 q 259 546 264 606 q 254 431 254 486 q 259 319 254 378 q 278 210 264 260 q 318 128 292 161 q 389 96 344 96 q 420 99 406 96 q 451 111 435 101 q 484 138 467 121 q 524 183 501 154 l 621 28 q 513 -62 565 -37 q 390 -87 460 -87 q 233 -51 299 -87 q 125 53 167 -15 q 63 216 83 121 q 43 431 43 311 m 847 517 q 822 498 831 517 q 807 448 813 479 q 800 376 801 417 q 799 293 799 336 q 810 133 799 188 q 847 78 822 78 q 884 133 874 78 q 894 293 894 188 q 893 376 894 336 q 888 448 892 417 q 874 498 883 479 q 847 517 864 517 m 1274 -78 l 1089 -78 l 1089 107 l 1274 107 l 1274 -78 m 847 -86 q 727 -54 775 -86 q 651 31 679 -22 q 610 153 622 85 q 599 293 599 221 q 610 438 599 368 q 650 563 622 508 q 726 649 678 617 q 847 681 774 681 q 968 649 921 681 q 1043 563 1015 617 q 1082 438 1071 508 q 1093 293 1093 368 q 1082 153 1093 221 q 1042 31 1071 85 q 967 -54 1014 -22 q 847 -86 919 -86 z "},"™":{"ha":1111,"x_min":44,"x_max":1054,"o":"m 372 843 l 372 492 l 168 492 l 168 843 l 44 843 l 44 1013 l 499 1013 l 499 843 l 372 843 m 896 492 l 896 625 l 850 492 l 739 492 l 686 635 l 686 492 l 528 492 l 528 1013 l 675 1013 l 793 718 l 903 1013 l 1054 1013 l 1054 492 l 896 492 z "},"㏂":{"ha":1306,"x_min":43,"x_max":1250,"o":"m 956 438 q 955 499 956 485 q 947 514 954 514 q 933 501 938 514 q 921 468 928 488 l 921 -72 l 754 -72 l 754 429 q 753 496 754 478 q 744 514 751 514 q 731 498 735 514 q 719 454 726 482 l 719 -72 l 550 -72 l 550 665 l 707 665 l 707 633 q 737 669 718 657 q 775 681 756 681 q 826 659 804 681 q 863 608 849 638 q 913 663 883 646 q 974 681 943 681 q 1093 622 1061 681 q 1125 450 1125 563 l 1125 -72 l 956 -72 l 956 438 m 43 131 q 101 324 43 253 q 251 400 158 394 l 251 411 q 203 522 251 522 q 170 508 189 522 q 119 451 151 493 l 49 579 q 128 655 85 624 q 229 686 171 686 q 315 664 281 686 q 369 604 349 642 q 399 516 390 567 q 407 408 407 465 l 407 -72 l 263 -72 l 263 -44 q 228 -77 249 -67 q 189 -87 207 -87 q 122 -69 150 -87 q 77 -22 94 -51 q 51 48 60 8 q 43 131 43 88 m 533 -68 l 426 -68 l 426 96 l 533 96 l 533 -68 m 1250 -68 l 1143 -68 l 1143 96 l 1250 96 l 1250 -68 m 226 72 q 240 76 235 72 q 247 94 244 81 q 251 131 250 107 q 251 197 251 156 l 251 253 q 217 213 231 242 q 203 144 203 185 q 208 86 203 100 q 226 72 214 72 z "},"㏘":{"ha":1306,"x_min":42,"x_max":1250,"o":"m 956 438 q 955 499 956 485 q 947 514 954 514 q 933 501 938 514 q 921 468 928 488 l 921 -72 l 754 -72 l 754 429 q 753 496 754 478 q 744 514 751 514 q 731 498 735 514 q 719 454 726 482 l 719 -72 l 550 -72 l 550 665 l 707 665 l 707 633 q 737 669 718 657 q 775 681 756 681 q 826 659 804 681 q 863 608 849 638 q 913 663 883 646 q 974 681 943 681 q 1093 622 1061 681 q 1125 450 1125 563 l 1125 -72 l 956 -72 l 956 438 m 192 667 l 192 632 q 235 669 211 658 q 278 681 258 681 q 398 581 357 681 q 439 288 439 481 q 430 137 439 206 q 400 18 421 68 q 346 -60 379 -32 q 265 -89 313 -89 q 236 -83 251 -89 q 206 -64 221 -78 l 206 -315 l 42 -315 l 42 667 l 192 667 m 207 213 q 242 83 207 83 q 267 141 261 83 q 272 292 272 199 q 267 454 272 399 q 240 510 263 510 q 217 477 226 510 q 207 379 207 444 l 207 213 m 533 -68 l 426 -68 l 426 96 l 533 96 l 533 -68 m 1250 -68 l 1143 -68 l 1143 96 l 1250 96 l 1250 -68 z "},"℡":{"ha":1306,"x_min":-3,"x_max":1256,"o":"m -3 760 l -3 944 l 607 944 l 607 760 l 408 760 l 408 -71 l 185 -71 l 185 760 l -3 760 m 731 511 q 676 478 694 511 q 651 406 657 446 l 794 406 q 775 478 789 444 q 731 511 761 511 m 990 11 q 872 -65 928 -42 q 746 -87 815 -87 q 626 -63 681 -87 q 533 9 572 -39 q 474 130 494 57 q 453 299 453 203 q 469 454 453 383 q 520 576 486 525 q 606 656 554 628 q 731 683 658 683 q 880 640 825 683 q 962 531 935 597 q 994 385 989 465 q 996 231 1000 306 l 646 231 q 660 160 650 188 q 684 116 669 132 q 716 94 699 100 q 753 88 733 88 q 786 89 769 88 q 824 98 803 90 q 871 119 844 106 q 933 158 897 133 l 990 11 m 1256 988 l 1256 -72 l 1033 -72 l 1033 988 l 1256 988 z "},"！":{"ha":1250,"x_min":481,"x_max":768,"o":"m 481 160 l 481 1003 l 768 1003 l 768 160 l 481 160 m 481 -189 l 481 85 l 768 85 l 768 -189 l 481 -189 z "},"＂":{"ha":1250,"x_min":315,"x_max":935,"o":"m 586 499 l 315 499 l 315 972 l 586 972 l 586 499 m 935 568 l 664 568 l 664 1042 l 935 1042 l 935 568 z "},"＃":{"ha":1250,"x_min":72,"x_max":1176,"o":"m 128 732 l 350 732 l 392 947 l 640 947 l 599 732 l 767 732 l 808 947 l 1057 947 l 1015 732 l 1176 732 l 1176 493 l 971 493 l 933 301 l 1121 301 l 1121 63 l 888 63 l 846 -160 l 599 -160 l 640 63 l 471 63 l 429 -160 l 181 -160 l 222 63 l 72 63 l 72 301 l 268 301 l 306 493 l 128 493 l 128 732 m 517 301 l 686 301 l 722 493 l 554 493 l 517 301 z "},"＄":{"ha":1250,"x_min":186,"x_max":1063,"o":"m 732 1017 l 732 928 q 883 882 811 914 q 1033 799 956 850 l 926 618 q 836 674 886 650 q 732 711 786 697 l 732 485 q 863 440 803 464 q 968 381 924 415 q 1038 298 1013 347 q 1063 178 1063 249 q 1038 60 1063 111 q 968 -26 1013 10 q 863 -85 924 -62 q 732 -115 803 -107 l 732 -215 l 540 -215 l 540 -114 q 351 -62 440 -100 q 186 31 263 -24 l 300 221 q 409 149 347 181 q 540 100 471 117 l 540 338 q 419 377 478 354 q 314 435 360 400 q 240 520 268 469 q 213 644 213 571 q 238 767 213 715 q 309 853 264 819 q 414 906 354 888 q 540 932 474 925 l 540 1017 l 732 1017 m 828 182 q 805 238 828 214 q 732 282 782 261 l 732 92 q 806 123 783 100 q 828 182 828 146 m 444 642 q 465 588 444 610 q 540 546 486 567 l 540 724 q 466 694 488 715 q 444 642 444 674 z "},"％":{"ha":1250,"x_min":24,"x_max":1225,"o":"m 79 -160 l 871 947 l 1161 947 l 371 -160 l 79 -160 m 24 722 q 47 828 24 781 q 108 908 69 875 q 196 958 146 940 q 299 975 246 975 q 402 958 353 975 q 490 908 451 940 q 550 828 528 875 q 572 722 572 782 q 550 617 572 664 q 490 538 528 571 q 402 488 451 506 q 299 471 353 471 q 196 488 246 471 q 108 538 146 506 q 47 617 69 571 q 24 722 24 664 m 299 657 q 347 676 329 657 q 364 722 364 694 q 347 769 364 751 q 299 788 329 788 q 249 769 267 788 q 232 722 232 750 q 249 676 232 694 q 299 657 267 657 m 676 65 q 699 171 676 124 q 760 251 722 218 q 849 301 799 283 q 951 318 899 318 q 1055 301 1006 318 q 1142 251 1104 283 q 1203 172 1181 218 q 1225 65 1225 125 q 1203 -40 1225 7 q 1142 -119 1181 -86 q 1055 -169 1104 -151 q 951 -186 1006 -186 q 849 -169 899 -186 q 760 -119 799 -151 q 699 -40 722 -86 q 676 65 676 7 m 951 0 q 999 19 982 0 q 1017 65 1017 38 q 999 113 1017 94 q 951 131 982 131 q 902 112 919 131 q 885 65 885 93 q 902 19 885 38 q 951 0 919 0 z "},"＆":{"ha":1250,"x_min":79,"x_max":1169,"o":"m 807 -112 q 666 -168 742 -149 q 501 -187 590 -187 q 325 -165 403 -187 q 192 -101 247 -143 q 108 -1 138 -60 q 79 131 79 57 q 90 217 79 176 q 125 294 100 257 q 193 365 150 331 q 303 432 236 399 q 234 554 258 493 q 210 678 210 615 q 237 797 210 743 q 312 891 264 851 q 425 953 360 931 q 567 975 490 975 q 707 954 643 975 q 817 896 771 933 q 888 807 863 858 q 913 694 913 756 q 899 601 913 643 q 856 520 886 558 q 778 447 826 482 q 661 376 731 413 l 804 225 q 849 390 836 303 l 1110 390 q 1067 201 1099 290 q 979 39 1035 113 l 1169 -161 l 853 -161 l 807 -112 m 518 24 q 651 53 593 24 l 446 271 q 389 232 410 250 q 357 198 368 214 q 343 167 346 182 q 340 136 340 151 q 385 53 340 83 q 518 24 431 24 m 471 671 q 526 532 471 613 q 626 605 600 571 q 651 678 651 639 q 629 739 651 714 q 567 764 607 764 q 499 740 528 764 q 471 671 471 715 z "},"＇":{"ha":1250,"x_min":489,"x_max":760,"o":"m 760 568 l 489 568 l 489 1042 l 760 1042 l 760 568 z "},"（":{"ha":1250,"x_min":617,"x_max":1188,"o":"m 617 401 q 630 576 617 493 q 672 734 643 658 q 749 880 701 810 q 864 1017 796 950 l 1188 1017 q 978 734 1051 886 q 906 401 906 582 q 978 68 906 221 q 1188 -215 1051 -85 l 864 -215 q 749 -78 796 -149 q 672 68 701 -8 q 630 227 643 144 q 617 401 617 310 z "},"）":{"ha":1250,"x_min":61,"x_max":632,"o":"m 632 401 q 619 227 632 310 q 576 68 606 144 q 500 -78 547 -8 q 385 -215 453 -149 l 61 -215 q 270 68 197 -85 q 343 401 343 221 q 270 734 343 582 q 61 1017 197 886 l 385 1017 q 500 880 453 950 q 576 734 547 810 q 619 576 606 658 q 632 401 632 493 z "},"＊":{"ha":1250,"x_min":326,"x_max":924,"o":"m 924 686 l 782 644 l 878 517 l 726 403 l 628 539 l 529 403 l 376 517 l 469 644 l 326 686 l 397 878 l 531 825 l 531 982 l 722 982 l 722 825 l 853 876 l 924 686 z "},"＋":{"ha":1250,"x_min":244,"x_max":1006,"o":"m 244 539 l 481 539 l 481 753 l 769 753 l 769 539 l 1006 539 l 1006 300 l 769 300 l 769 63 l 481 63 l 481 300 l 244 300 l 244 539 z "},"，":{"ha":1250,"x_min":204,"x_max":489,"o":"m 489 -161 q 468 -249 489 -211 q 410 -315 447 -287 q 322 -357 374 -342 q 207 -376 269 -372 l 207 -262 q 318 -233 286 -257 q 350 -169 350 -210 l 204 -169 l 204 97 l 489 97 l 489 -161 z "},"－":{"ha":1250,"x_min":244,"x_max":1006,"o":"m 244 539 l 1006 539 l 1006 300 l 244 300 l 244 539 z "},"．":{"ha":1250,"x_min":204,"x_max":489,"o":"m 204 -169 l 204 97 l 489 97 l 489 -169 l 204 -169 z "},"／":{"ha":1250,"x_min":243,"x_max":1006,"o":"m 243 -160 l 701 947 l 1006 947 l 558 -160 l 243 -160 z "},"０":{"ha":1250,"x_min":142,"x_max":1108,"o":"m 142 394 q 174 637 142 529 q 269 819 207 744 q 420 934 331 894 q 625 974 510 974 q 827 934 738 974 q 979 819 917 894 q 1075 637 1042 744 q 1108 394 1108 529 q 1077 151 1108 258 q 984 -32 1046 43 q 832 -147 922 -107 q 625 -187 742 -187 q 420 -147 510 -187 q 269 -32 331 -107 q 174 151 207 43 q 142 394 142 258 m 431 394 q 447 236 431 301 q 490 130 463 171 q 551 70 517 89 q 625 51 586 51 q 701 70 665 51 q 763 130 736 89 q 806 236 790 171 q 821 394 821 301 q 806 551 821 486 q 763 657 790 617 q 701 716 736 697 q 625 735 665 735 q 551 716 586 735 q 490 657 517 697 q 447 551 463 617 q 431 394 431 486 z "},"１":{"ha":1250,"x_min":397,"x_max":853,"o":"m 397 947 l 853 947 l 853 -160 l 564 -160 l 564 708 l 397 708 l 397 947 z "},"２":{"ha":1250,"x_min":171,"x_max":1078,"o":"m 544 303 q 691 453 639 378 q 743 596 743 529 q 737 642 743 618 q 716 687 731 667 q 676 719 701 707 q 614 732 651 732 q 392 547 460 732 l 171 663 q 238 796 193 738 q 342 894 282 854 q 477 953 403 933 q 633 971 551 972 q 794 942 719 969 q 922 864 868 914 q 1007 744 976 814 q 1035 589 1038 674 q 1010 473 1032 528 q 954 367 989 418 q 874 270 919 317 q 776 182 828 224 l 649 78 l 1078 78 l 1078 -160 l 201 -160 l 201 26 l 544 303 z "},"３":{"ha":1250,"x_min":169,"x_max":1081,"o":"m 193 710 q 258 823 215 774 q 359 906 301 872 q 483 956 417 939 q 617 974 549 974 q 783 949 704 974 q 922 881 863 925 q 1015 774 981 836 q 1050 638 1050 713 q 1040 564 1050 600 q 1010 497 1031 528 q 960 442 990 465 q 888 408 929 419 q 964 377 929 399 q 1025 324 999 356 q 1066 253 1051 293 q 1081 169 1081 214 q 1043 17 1081 83 q 942 -95 1006 -50 q 794 -164 879 -140 q 615 -187 710 -187 q 483 -174 550 -187 q 355 -129 415 -160 q 245 -50 294 -99 q 169 68 196 -1 l 411 179 q 487 84 432 117 q 610 51 542 51 q 675 58 643 51 q 733 78 707 64 q 776 114 760 92 q 792 168 792 136 q 774 230 792 206 q 728 269 756 254 q 665 289 700 283 q 596 294 629 294 l 483 294 l 483 506 l 596 506 q 653 510 624 506 q 706 528 682 515 q 746 564 731 542 q 761 621 761 586 q 748 672 761 650 q 713 707 735 693 q 662 728 690 721 q 604 735 633 735 q 497 700 546 735 q 424 606 449 665 l 193 710 z "},"４":{"ha":1250,"x_min":156,"x_max":1093,"o":"m 156 26 l 156 265 l 635 947 l 944 947 l 944 265 l 1093 265 l 1093 26 l 944 26 l 944 -160 l 656 -160 l 656 26 l 156 26 m 656 604 l 425 265 l 656 265 l 656 604 z "},"５":{"ha":1250,"x_min":172,"x_max":1078,"o":"m 415 203 q 492 90 446 128 q 622 51 539 51 q 743 92 697 51 q 789 199 789 132 q 742 304 789 265 q 619 346 694 343 q 471 290 521 349 l 213 290 l 213 947 l 1019 947 l 1019 708 l 501 708 l 501 542 q 591 574 542 564 q 693 585 640 585 q 829 560 761 585 q 953 486 897 535 q 1043 366 1008 438 q 1078 201 1078 294 q 1045 51 1078 122 q 953 -73 1013 -19 q 810 -157 894 -126 q 621 -187 725 -187 q 457 -167 532 -187 q 324 -107 382 -146 q 226 -14 265 -68 q 172 106 188 40 l 415 203 l 415 203 z "},"６":{"ha":1250,"x_min":161,"x_max":1075,"o":"m 807 947 l 632 582 q 692 586 663 586 q 828 558 760 586 q 952 481 897 531 q 1041 363 1007 432 q 1075 211 1075 294 q 1035 38 1075 113 q 931 -87 996 -37 q 782 -162 865 -137 q 611 -187 699 -187 q 422 -156 510 -187 q 273 -63 333 -124 q 187 84 213 -3 q 186 282 161 171 q 215 363 194 319 q 260 456 236 406 l 496 947 l 807 947 m 628 349 q 508 305 549 349 q 468 199 468 261 q 510 93 468 136 q 628 50 551 50 q 746 93 704 50 q 788 199 788 136 q 747 305 788 261 q 628 349 707 349 z "},"７":{"ha":1250,"x_min":201,"x_max":1049,"o":"m 628 -160 l 317 -160 l 710 708 l 201 708 l 201 947 l 1049 947 l 1049 769 l 628 -160 z "},"８":{"ha":1250,"x_min":181,"x_max":1069,"o":"m 625 -187 q 453 -165 535 -187 q 312 -98 372 -142 q 216 8 251 -54 q 181 149 181 71 q 198 249 181 204 q 244 326 215 293 q 311 381 274 360 q 389 413 349 403 q 261 497 310 432 q 213 651 213 561 q 245 788 213 728 q 333 890 278 849 q 464 953 389 932 q 625 975 539 975 q 785 953 710 975 q 917 890 861 932 q 1005 788 972 849 q 1038 651 1038 728 q 989 497 1038 561 q 861 413 940 432 q 940 383 903 404 q 1006 328 978 361 q 1052 249 1035 294 q 1069 149 1069 204 q 1034 8 1069 71 q 938 -98 999 -54 q 797 -165 878 -142 q 625 -187 715 -187 m 625 24 q 738 61 696 24 q 779 157 779 99 q 738 253 779 215 q 625 292 696 292 q 513 253 554 292 q 471 157 471 215 q 513 61 471 99 q 625 24 554 24 m 625 524 q 726 559 692 524 q 761 643 761 594 q 726 728 761 692 q 625 764 692 764 q 524 728 558 764 q 489 643 489 692 q 524 559 489 594 q 625 524 558 524 z "},"９":{"ha":1250,"x_min":174,"x_max":1088,"o":"m 442 -160 l 617 206 q 557 201 585 201 q 420 229 489 201 q 297 306 351 257 q 208 424 242 356 q 174 576 174 493 q 213 750 174 675 q 318 875 253 825 q 467 950 383 925 q 638 975 550 975 q 827 943 739 975 q 976 851 915 911 q 1062 703 1036 790 q 1063 506 1088 615 q 1033 425 1054 468 q 989 332 1013 382 l 753 -160 l 442 -160 m 621 439 q 740 483 700 439 q 781 589 781 526 q 739 694 781 651 q 621 738 697 738 q 503 694 544 738 q 461 589 461 651 q 501 483 461 526 q 621 439 542 439 z "},"：":{"ha":1250,"x_min":482,"x_max":767,"o":"m 482 -21 l 482 246 l 767 246 l 767 -21 l 482 -21 m 482 576 l 482 843 l 767 843 l 767 576 l 482 576 z "},"；":{"ha":1250,"x_min":482,"x_max":767,"o":"m 482 576 l 482 843 l 767 843 l 767 576 l 482 576 m 767 -12 q 746 -101 767 -62 q 688 -166 725 -139 q 599 -208 651 -193 q 485 -228 547 -224 l 485 -114 q 596 -85 564 -108 q 628 -21 628 -61 l 482 -21 l 482 246 l 767 246 l 767 -12 z "},"＜":{"ha":1250,"x_min":472,"x_max":1194,"o":"m 1194 -46 l 999 -242 l 472 285 l 472 508 l 999 1035 l 1194 839 l 750 397 l 1194 -46 z "},"＝":{"ha":1250,"x_min":244,"x_max":1006,"o":"m 244 706 l 1006 706 l 1006 467 l 244 467 l 244 706 m 244 372 l 1006 372 l 1006 133 l 244 133 l 244 372 z "},"＞":{"ha":1250,"x_min":56,"x_max":778,"o":"m 500 397 l 56 839 l 251 1035 l 778 508 l 778 285 l 251 -242 l 56 -46 l 500 397 z "},"？":{"ha":1250,"x_min":199,"x_max":1051,"o":"m 475 479 q 578 500 526 485 q 671 539 631 515 q 737 595 711 563 q 763 668 763 628 q 749 721 763 697 q 715 760 736 744 q 668 784 694 776 q 615 792 642 792 q 558 782 588 792 q 503 753 529 772 q 456 704 476 733 q 425 636 435 675 l 199 736 q 263 873 219 817 q 364 965 306 929 q 491 1016 422 1000 q 632 1032 560 1032 q 812 1003 733 1032 q 943 927 890 975 q 1024 816 996 879 q 1051 685 1051 753 q 1028 568 1051 624 q 967 467 1006 513 q 875 388 928 421 q 763 338 822 354 l 763 160 l 475 160 l 475 479 m 475 83 l 763 83 l 763 -189 l 475 -189 l 475 83 z "},"＠":{"ha":1250,"x_min":11,"x_max":1240,"o":"m 996 -135 q 815 -186 908 -171 q 622 -201 722 -201 q 371 -156 483 -201 q 178 -31 258 -111 q 55 159 99 50 q 11 396 11 268 q 55 628 11 519 q 179 817 99 736 q 373 944 260 897 q 626 990 486 990 q 883 948 769 990 q 1076 832 997 906 q 1198 658 1156 758 q 1240 442 1240 558 q 1220 301 1240 365 q 1160 189 1200 236 q 1062 115 1121 142 q 924 89 1003 89 q 817 105 865 89 q 746 160 769 121 l 744 160 q 669 113 714 131 q 571 96 624 96 q 456 118 508 96 q 367 179 404 140 q 308 272 329 218 q 288 389 288 326 q 310 508 288 453 q 372 602 333 563 q 463 665 411 642 q 571 688 514 688 q 660 676 617 688 q 731 640 703 665 l 750 679 l 910 679 l 910 331 q 921 287 910 300 q 960 274 932 274 q 1002 314 992 274 q 1013 435 1013 354 q 913 697 1013 604 q 625 790 814 790 q 462 762 533 790 q 340 682 390 733 q 265 558 290 631 q 239 396 239 485 q 265 233 239 306 q 340 108 290 160 q 460 29 389 57 q 622 1 532 1 q 799 12 721 1 q 943 46 878 22 l 996 -135 m 697 389 q 669 460 697 433 q 597 488 642 488 q 528 460 556 488 q 501 389 501 433 q 529 321 501 347 q 597 294 557 294 q 669 321 642 294 q 697 389 697 347 z "},"Ａ":{"ha":1250,"x_min":68,"x_max":1182,"o":"m 68 -160 l 443 947 l 807 947 l 1182 -160 l 893 -160 l 788 150 l 429 51 l 357 -160 l 68 -160 m 518 314 l 713 368 l 625 628 l 518 314 z "},"Ｂ":{"ha":1250,"x_min":115,"x_max":1133,"o":"m 1081 654 q 1053 517 1081 579 q 967 411 1026 456 q 1031 375 1001 397 q 1084 321 1061 353 q 1120 246 1107 289 q 1133 149 1133 203 q 1108 7 1133 65 q 1040 -89 1083 -51 q 938 -143 996 -126 q 813 -160 879 -160 l 115 -160 l 115 947 l 760 947 q 885 933 826 947 q 987 883 943 918 q 1056 793 1031 849 q 1081 654 1081 738 m 839 192 q 826 241 839 219 q 794 277 814 263 q 749 300 774 292 q 697 313 724 308 l 397 231 l 397 71 l 697 71 q 799 99 758 71 q 839 192 839 126 m 704 543 q 775 582 751 554 q 799 643 799 610 q 769 697 799 679 q 704 715 740 715 l 397 715 l 397 468 l 704 543 z "},"Ｃ":{"ha":1250,"x_min":60,"x_max":1189,"o":"m 60 394 q 106 629 60 522 q 234 813 153 736 q 426 933 315 890 q 665 976 538 976 q 963 906 838 976 q 1188 699 1088 836 l 997 539 q 867 685 946 631 q 672 739 789 739 q 540 713 600 739 q 438 640 481 686 q 372 530 396 593 q 349 394 349 467 q 372 260 349 322 q 438 151 394 197 q 541 78 481 104 q 675 51 601 51 q 783 65 735 51 q 870 106 831 79 q 942 169 910 132 q 1003 254 975 207 l 1189 89 q 969 -115 1094 -43 q 665 -187 843 -187 q 426 -144 538 -187 q 234 -24 315 -101 q 106 160 153 53 q 60 394 60 267 z "},"Ｄ":{"ha":1250,"x_min":115,"x_max":1133,"o":"m 115 947 l 651 947 q 853 905 764 947 q 1006 789 943 863 q 1101 615 1068 715 q 1133 396 1133 514 q 1098 172 1133 274 q 994 -4 1063 69 q 824 -119 925 -78 q 592 -160 724 -160 l 115 -160 l 115 947 m 404 79 l 575 79 q 694 105 643 79 q 778 174 744 131 q 828 276 811 218 q 844 400 844 335 q 825 520 844 464 q 769 618 806 576 q 678 684 732 660 q 553 708 624 708 l 404 708 l 404 79 z "},"Ｅ":{"ha":1250,"x_min":188,"x_max":1063,"o":"m 1022 525 l 1022 286 l 476 286 l 476 78 l 1063 78 l 1063 -160 l 188 -160 l 188 947 l 1049 947 l 1049 708 l 476 708 l 476 525 l 1022 525 z "},"Ｆ":{"ha":1250,"x_min":194,"x_max":1056,"o":"m 1029 525 l 1029 286 l 483 286 l 483 -160 l 194 -160 l 194 947 l 1056 947 l 1056 708 l 483 708 l 483 525 l 1029 525 z "},"Ｇ":{"ha":1250,"x_min":47,"x_max":1201,"o":"m 644 51 q 826 103 756 51 q 911 249 897 154 l 618 249 l 618 488 l 1201 488 l 1201 333 q 1158 108 1201 206 q 1038 -54 1114 11 q 861 -153 963 -119 q 646 -187 760 -187 q 410 -144 519 -187 q 221 -24 301 -101 q 94 160 140 53 q 47 394 47 267 q 94 629 47 522 q 222 813 140 736 q 414 933 303 890 q 653 976 525 976 q 950 906 825 976 q 1175 699 1075 836 l 985 539 q 849 685 933 631 q 649 739 765 739 q 529 714 586 739 q 430 644 472 689 q 362 535 388 599 q 336 394 336 472 q 360 253 336 317 q 425 145 383 190 q 523 76 467 100 q 644 51 579 51 z "},"Ｈ":{"ha":1250,"x_min":128,"x_max":1121,"o":"m 832 -160 l 832 358 l 417 244 l 417 -160 l 128 -160 l 128 947 l 417 947 l 417 482 l 832 597 l 832 947 l 1121 947 l 1121 -160 l 832 -160 z "},"Ｉ":{"ha":1250,"x_min":481,"x_max":769,"o":"m 769 947 l 769 -160 l 481 -160 l 481 947 l 769 947 z "},"Ｊ":{"ha":1250,"x_min":236,"x_max":1014,"o":"m 385 149 q 466 82 421 108 q 568 56 511 56 q 635 69 606 56 q 685 107 665 83 q 715 162 704 131 q 725 229 725 193 l 725 947 l 1014 947 l 1014 244 q 983 65 1014 146 q 895 -73 953 -15 q 755 -160 838 -131 q 568 -187 672 -190 q 393 -151 476 -183 q 236 -51 310 -118 l 385 149 z "},"Ｋ":{"ha":1250,"x_min":153,"x_max":1096,"o":"m 778 -160 l 442 310 l 442 -160 l 153 -160 l 153 947 l 442 947 l 442 531 l 778 947 l 1096 947 l 668 417 l 1096 -160 l 778 -160 z "},"Ｌ":{"ha":1250,"x_min":215,"x_max":1033,"o":"m 215 947 l 504 947 l 504 79 l 1033 79 l 1033 -160 l 215 -160 l 215 947 z "},"Ｍ":{"ha":1250,"x_min":6,"x_max":1243,"o":"m 947 947 l 1243 947 l 1243 -160 l 954 -160 l 954 393 l 728 -160 l 521 -160 l 294 393 l 294 -160 l 6 -160 l 6 947 l 301 947 l 624 160 l 947 947 z "},"Ｎ":{"ha":1250,"x_min":128,"x_max":1121,"o":"m 128 947 l 417 947 l 832 276 l 832 947 l 1121 947 l 1121 -160 l 832 -160 l 417 524 l 417 -160 l 128 -160 l 128 947 z "},"Ｏ":{"ha":1250,"x_min":17,"x_max":1232,"o":"m 17 396 q 63 629 17 522 q 191 813 110 736 q 383 933 272 890 q 625 976 494 976 q 868 933 757 976 q 1060 813 979 890 q 1187 629 1142 736 q 1232 396 1232 522 q 1187 161 1232 268 q 1060 -24 1142 54 q 868 -144 979 -101 q 625 -187 757 -187 q 383 -144 494 -187 q 191 -24 272 -101 q 63 161 110 54 q 17 396 17 268 m 306 396 q 328 256 306 319 q 393 147 351 193 q 494 76 435 101 q 625 50 553 50 q 756 76 697 50 q 857 147 815 101 q 922 256 899 193 q 944 396 944 319 q 922 532 944 469 q 857 640 899 594 q 756 712 815 686 q 625 738 697 738 q 494 712 553 738 q 393 640 435 686 q 328 532 351 594 q 306 396 306 469 z "},"Ｐ":{"ha":1250,"x_min":143,"x_max":1107,"o":"m 143 947 l 764 947 q 899 928 836 947 q 1008 869 963 908 q 1081 767 1054 829 q 1107 619 1107 704 q 1086 477 1107 536 q 1024 377 1065 418 q 920 309 982 336 q 778 264 858 282 l 432 188 l 432 -160 l 143 -160 l 143 947 m 819 613 q 794 680 819 651 q 725 708 768 708 l 432 708 l 432 440 l 696 489 q 793 535 767 501 q 819 613 819 568 z "},"Ｑ":{"ha":1250,"x_min":17,"x_max":1232,"o":"m 17 396 q 63 629 17 522 q 191 813 110 736 q 383 933 272 890 q 625 976 494 976 q 868 933 757 976 q 1060 813 979 890 q 1187 629 1142 736 q 1232 396 1232 522 q 1201 199 1232 290 q 1114 36 1171 108 l 1218 -68 l 1051 -236 l 931 -115 q 788 -169 864 -150 q 625 -187 711 -187 q 383 -144 494 -187 q 191 -24 272 -101 q 63 161 110 54 q 17 396 17 268 m 810 340 l 917 232 q 944 396 944 304 q 922 532 944 469 q 857 640 899 594 q 756 712 815 686 q 625 738 697 738 q 494 712 553 738 q 393 640 435 686 q 328 532 351 594 q 306 396 306 469 q 328 256 306 319 q 393 147 351 193 q 494 76 435 101 q 625 50 553 50 q 747 68 694 50 l 643 172 l 810 340 z "},"Ｒ":{"ha":1250,"x_min":111,"x_max":1138,"o":"m 111 947 l 732 947 q 867 928 804 947 q 976 869 931 908 q 1049 767 1022 829 q 1075 619 1075 704 q 1038 440 1075 508 q 926 329 1000 371 l 1138 -160 l 836 -160 l 664 246 l 400 188 l 400 -160 l 111 -160 l 111 947 m 788 613 q 762 680 788 651 q 693 708 736 708 l 400 708 l 400 440 l 664 489 q 761 535 735 501 q 788 613 788 568 z "},"Ｓ":{"ha":1250,"x_min":160,"x_max":1089,"o":"m 282 201 q 454 100 356 139 q 657 63 553 61 q 758 83 726 64 q 790 142 790 103 q 753 215 790 188 q 631 267 717 243 q 479 312 557 288 q 338 376 401 336 q 233 479 274 417 q 192 640 192 542 q 226 791 192 728 q 319 895 260 854 q 456 956 378 936 q 622 975 535 975 q 738 967 683 975 q 847 941 793 958 q 952 897 900 924 q 1060 833 1004 871 l 946 611 q 799 692 879 663 q 629 724 718 721 q 574 722 600 725 q 529 709 549 718 q 498 686 510 700 q 486 651 486 672 q 492 615 486 631 q 517 585 499 599 q 569 557 535 571 q 660 528 603 543 q 827 476 749 503 q 964 408 906 449 q 1056 306 1022 367 q 1089 151 1089 244 q 1056 1 1089 65 q 963 -104 1022 -62 q 821 -167 903 -146 q 642 -187 739 -187 q 383 -146 503 -187 q 160 -31 263 -104 l 282 201 z "},"Ｔ":{"ha":1250,"x_min":129,"x_max":1121,"o":"m 769 708 l 769 -160 l 481 -160 l 481 708 l 129 708 l 129 947 l 1121 947 l 1121 708 l 769 708 z "},"Ｕ":{"ha":1250,"x_min":128,"x_max":1121,"o":"m 624 -187 q 431 -156 521 -187 q 274 -65 342 -124 q 167 76 206 -7 q 128 261 128 158 l 128 947 l 417 947 l 417 275 q 431 192 417 231 q 471 124 444 153 q 536 77 497 94 q 624 60 575 60 q 711 77 672 60 q 777 124 750 94 q 818 192 804 153 q 832 275 832 231 l 832 947 l 1121 947 l 1121 261 q 1081 76 1121 158 q 974 -65 1042 -7 q 816 -156 907 -124 q 624 -187 725 -187 z "},"Ｖ":{"ha":1250,"x_min":68,"x_max":1182,"o":"m 357 947 l 625 160 l 893 947 l 1182 947 l 807 -160 l 443 -160 l 68 947 l 357 947 z "},"Ｗ":{"ha":1250,"x_min":6,"x_max":1246,"o":"m 767 947 l 871 232 l 972 947 l 1246 947 l 1021 -160 l 733 -160 l 624 532 l 517 -160 l 231 -160 l 6 947 l 279 947 l 376 247 l 485 947 l 767 947 z "},"Ｘ":{"ha":1250,"x_min":104,"x_max":1144,"o":"m 422 947 l 624 638 l 826 947 l 1144 947 l 786 389 l 1144 -160 l 815 -160 l 624 138 l 433 -160 l 104 -160 l 463 389 l 104 947 l 422 947 z "},"Ｙ":{"ha":1250,"x_min":90,"x_max":1160,"o":"m 408 947 l 625 582 l 842 947 l 1160 947 l 768 303 l 768 -160 l 479 -160 l 479 307 l 90 947 l 408 947 z "},"Ｚ":{"ha":1250,"x_min":192,"x_max":1058,"o":"m 192 -160 l 192 79 l 675 693 l 218 693 l 218 947 l 1036 947 l 1036 725 l 549 94 l 1058 94 l 1058 -160 l 192 -160 z "},"［":{"ha":1250,"x_min":667,"x_max":1138,"o":"m 1138 1017 l 1138 778 l 956 778 l 956 24 l 1138 24 l 1138 -215 l 667 -215 l 667 1017 l 1138 1017 z "},"￦":{"ha":1250,"x_min":243,"x_max":1006,"o":"m 690 -160 l 243 947 l 547 947 l 1006 -160 l 690 -160 z "},"］":{"ha":1250,"x_min":111,"x_max":582,"o":"m 582 1017 l 582 -215 l 111 -215 l 111 24 l 293 24 l 293 778 l 111 778 l 111 1017 l 582 1017 z "},"＾":{"ha":1250,"x_min":282,"x_max":967,"o":"m 757 994 l 967 613 l 700 613 l 626 765 l 553 613 l 282 613 l 492 994 l 757 994 z "},"＿":{"ha":1250,"x_min":314,"x_max":936,"o":"m 314 51 l 936 51 l 936 -187 l 314 -187 l 314 51 z "},"｀":{"ha":1250,"x_min":381,"x_max":869,"o":"m 611 626 l 381 994 l 669 994 l 869 626 l 611 626 z "},"ａ":{"ha":1250,"x_min":129,"x_max":1119,"o":"m 874 664 l 1119 664 l 1119 -160 l 872 -160 l 850 -93 q 719 -165 792 -142 q 568 -187 646 -189 q 390 -153 471 -186 q 251 -61 310 -119 q 161 76 193 -3 q 129 250 129 156 q 163 428 129 347 q 256 568 197 510 q 395 659 315 626 q 567 692 475 692 q 718 671 647 692 q 849 606 789 650 l 874 664 m 611 51 q 751 107 699 51 q 804 250 804 163 q 751 397 804 342 q 611 451 699 451 q 471 397 524 451 q 418 250 418 342 q 471 107 418 163 q 611 51 524 51 z "},"ｂ":{"ha":1250,"x_min":129,"x_max":1119,"o":"m 417 617 q 541 674 475 656 q 682 692 607 692 q 853 659 774 692 q 992 568 933 626 q 1085 428 1051 510 q 1119 250 1119 347 q 1088 76 1119 156 q 997 -61 1056 -3 q 858 -153 939 -119 q 681 -187 778 -186 q 529 -165 601 -189 q 399 -93 457 -142 l 376 -160 l 129 -160 l 129 947 l 417 947 l 417 617 m 638 51 q 778 107 725 51 q 831 250 831 163 q 778 397 831 342 q 638 451 725 451 q 497 397 550 451 q 444 250 444 342 q 497 107 444 163 q 638 51 550 51 z "},"ｃ":{"ha":1250,"x_min":181,"x_max":1069,"o":"m 672 467 q 522 407 576 467 q 468 251 468 347 q 482 167 468 206 q 522 99 496 128 q 586 54 549 71 q 672 38 624 38 q 792 67 739 38 q 881 157 844 97 l 1068 0 q 990 -83 1032 -46 q 900 -146 949 -119 q 793 -187 851 -172 q 665 -201 735 -201 q 474 -169 563 -201 q 319 -78 385 -137 q 217 64 254 -19 q 181 251 181 147 q 218 439 181 356 q 321 582 256 522 q 474 674 386 642 q 665 706 563 706 q 895 652 796 706 q 1069 503 994 599 l 881 347 q 794 435 847 404 q 672 467 742 467 z "},"ｄ":{"ha":1250,"x_min":129,"x_max":1119,"o":"m 832 947 l 1119 947 l 1119 -160 l 872 -160 l 850 -93 q 719 -165 792 -142 q 568 -187 646 -189 q 390 -153 471 -186 q 251 -61 310 -119 q 161 76 193 -3 q 129 250 129 156 q 163 428 129 347 q 256 568 197 510 q 395 659 315 626 q 567 692 475 692 q 708 674 642 692 q 832 617 774 656 l 832 947 m 611 51 q 751 107 699 51 q 804 250 804 163 q 751 397 804 342 q 611 451 699 451 q 471 397 524 451 q 418 250 418 342 q 471 107 418 163 q 611 51 524 51 z "},"ｅ":{"ha":1250,"x_min":143,"x_max":1107,"o":"m 449 103 q 631 24 511 24 q 774 49 714 24 q 886 132 833 75 l 1074 -7 q 892 -150 994 -99 q 653 -201 790 -201 q 447 -170 540 -201 q 286 -81 354 -139 q 181 62 218 -22 q 143 251 143 146 q 181 438 143 354 q 286 581 219 522 q 442 673 353 640 q 632 706 531 706 q 824 674 736 706 q 974 585 911 643 q 1072 442 1036 526 q 1107 250 1107 357 l 449 103 m 642 483 q 486 438 547 483 q 408 310 425 392 l 814 400 q 743 460 786 436 q 642 483 700 483 z "},"ｆ":{"ha":1250,"x_min":304,"x_max":946,"o":"m 743 -160 l 454 -160 l 454 397 l 304 397 l 304 636 l 454 636 l 454 701 q 474 803 454 757 q 530 881 494 849 q 611 930 565 913 q 710 947 657 947 l 946 947 l 946 708 l 817 708 q 763 688 782 708 q 743 636 743 668 l 932 636 l 932 397 l 743 397 l 743 -160 z "},"ｇ":{"ha":1250,"x_min":129,"x_max":1119,"o":"m 1119 -128 q 1085 -297 1119 -221 q 990 -428 1051 -374 q 845 -515 929 -483 q 661 -549 761 -546 q 487 -533 572 -551 q 333 -474 401 -515 q 219 -367 264 -433 q 168 -204 175 -300 l 457 -204 q 475 -251 460 -231 q 515 -284 490 -271 q 568 -304 539 -297 q 628 -311 597 -311 q 703 -300 667 -311 q 769 -267 740 -289 q 814 -215 797 -246 q 831 -144 831 -185 l 831 -60 q 708 -137 778 -112 q 568 -160 639 -161 q 397 -127 476 -158 q 257 -40 317 -96 q 163 92 197 15 q 129 264 129 169 q 165 440 129 361 q 260 575 200 519 q 400 661 321 631 q 567 692 479 692 q 718 671 647 692 q 849 606 789 650 l 874 664 l 1119 664 l 1119 -128 m 611 79 q 685 91 650 79 q 746 126 719 103 q 788 183 772 149 q 804 264 804 218 q 788 348 804 313 q 746 406 772 383 q 685 440 719 429 q 611 451 650 451 q 538 440 572 451 q 476 406 503 429 q 434 348 450 383 q 418 264 418 313 q 434 183 418 218 q 476 126 450 149 q 538 91 503 103 q 611 79 572 79 z "},"ｈ":{"ha":1250,"x_min":178,"x_max":1071,"o":"m 467 619 q 574 673 515 654 q 683 692 632 692 q 838 667 767 692 q 960 599 908 643 q 1042 493 1013 554 q 1071 358 1071 432 l 1071 -160 l 782 -160 l 782 269 q 769 356 782 321 q 736 413 757 392 q 688 444 715 435 q 633 453 661 453 q 526 415 571 453 q 467 314 481 376 l 467 -160 l 178 -160 l 178 947 l 467 947 l 467 619 z "},"ｉ":{"ha":1250,"x_min":481,"x_max":769,"o":"m 769 664 l 769 -160 l 481 -160 l 481 664 l 769 664 m 769 986 l 769 747 l 481 747 l 481 986 l 769 986 z "},"ｊ":{"ha":1250,"x_min":407,"x_max":843,"o":"m 843 986 l 843 747 l 554 747 l 554 986 l 843 986 m 554 664 l 843 664 l 843 40 q 823 -92 843 -37 q 768 -182 803 -147 q 687 -232 733 -217 q 588 -247 640 -247 l 407 -247 l 407 -8 l 482 -8 q 534 12 514 -8 q 554 81 554 32 l 554 664 z "},"ｋ":{"ha":1250,"x_min":179,"x_max":1071,"o":"m 715 -160 l 468 119 l 468 -160 l 179 -160 l 179 947 l 468 947 l 468 425 l 715 664 l 1061 664 l 668 286 l 1071 -160 l 715 -160 z "},"ｌ":{"ha":1250,"x_min":481,"x_max":769,"o":"m 769 947 l 769 -160 l 481 -160 l 481 947 l 769 947 z "},"ｍ":{"ha":1250,"x_min":8,"x_max":1242,"o":"m 769 -160 l 481 -160 l 481 339 q 456 419 481 388 q 386 451 432 451 q 349 441 364 451 q 323 415 333 431 q 306 378 313 399 q 297 339 300 358 l 297 -160 l 8 -160 l 8 664 l 256 664 l 276 606 q 369 672 317 653 q 474 692 421 690 q 595 664 536 693 q 697 579 654 635 q 817 668 749 643 q 951 692 886 693 q 1061 666 1008 690 q 1154 597 1114 642 q 1218 488 1194 551 q 1242 344 1242 424 l 1242 -160 l 953 -160 l 953 339 q 932 419 953 388 q 865 451 911 451 q 799 424 822 451 q 769 353 776 396 l 769 -160 z "},"ｎ":{"ha":1250,"x_min":178,"x_max":1071,"o":"m 447 606 q 501 641 472 625 q 562 668 531 657 q 624 685 593 679 q 683 692 656 692 q 838 667 767 692 q 960 599 908 643 q 1042 493 1013 554 q 1071 358 1071 432 l 1071 -160 l 782 -160 l 782 269 q 769 356 782 321 q 736 413 757 392 q 688 444 715 435 q 633 453 661 453 q 526 415 571 453 q 467 314 481 376 l 467 -160 l 178 -160 l 178 664 l 425 664 l 447 606 z "},"ｏ":{"ha":1250,"x_min":131,"x_max":1119,"o":"m 131 250 q 170 440 131 356 q 277 584 210 525 q 434 674 344 643 q 625 706 524 706 q 818 674 728 706 q 975 585 908 643 q 1081 442 1042 526 q 1119 251 1119 357 q 1081 63 1119 147 q 975 -80 1042 -21 q 818 -170 908 -139 q 625 -201 728 -201 q 434 -170 524 -201 q 277 -81 344 -139 q 170 62 210 -22 q 131 250 131 146 m 625 36 q 711 53 672 36 q 776 98 750 69 q 817 165 803 126 q 832 250 832 204 q 817 337 832 297 q 776 406 803 376 q 711 451 750 435 q 625 467 672 467 q 538 450 576 467 q 473 404 500 433 q 432 335 446 375 q 418 250 418 296 q 432 165 418 204 q 473 98 446 126 q 538 53 500 69 q 625 36 576 36 z "},"ｐ":{"ha":1250,"x_min":129,"x_max":1119,"o":"m 375 664 l 399 606 q 530 671 460 650 q 682 692 600 692 q 853 659 774 692 q 992 568 933 626 q 1085 428 1051 510 q 1119 250 1119 347 q 1088 76 1119 156 q 997 -61 1056 -3 q 858 -153 939 -119 q 681 -187 778 -186 q 542 -169 608 -189 q 418 -108 475 -149 l 418 -481 l 129 -481 l 129 664 l 375 664 m 638 51 q 778 107 725 51 q 831 250 831 163 q 778 397 831 342 q 638 451 725 451 q 497 397 550 451 q 444 250 444 342 q 497 107 444 163 q 638 51 550 51 z "},"ｑ":{"ha":1250,"x_min":129,"x_max":1119,"o":"m 874 664 l 1119 664 l 1119 -481 l 831 -481 l 831 -108 q 706 -169 774 -149 q 568 -187 639 -189 q 390 -153 471 -186 q 251 -61 310 -119 q 161 76 193 -3 q 129 250 129 156 q 163 428 129 347 q 256 568 197 510 q 395 659 315 626 q 567 692 475 692 q 718 671 647 692 q 849 606 789 650 l 874 664 m 611 51 q 751 107 699 51 q 804 250 804 163 q 751 397 804 342 q 611 451 699 451 q 471 397 524 451 q 418 250 418 342 q 471 107 418 163 q 611 51 524 51 z "},"ｒ":{"ha":1250,"x_min":311,"x_max":939,"o":"m 576 592 q 657 646 608 628 q 758 664 706 664 l 939 664 l 889 425 l 722 425 q 675 414 697 425 q 636 383 653 403 q 610 338 619 364 q 600 281 600 311 l 600 -160 l 311 -160 l 311 664 l 558 664 l 576 592 z "},"ｓ":{"ha":1250,"x_min":240,"x_max":1010,"o":"m 888 407 q 830 437 861 424 q 767 460 799 450 q 706 475 736 469 q 654 481 676 481 q 557 432 557 481 q 579 396 557 408 q 638 374 601 383 q 777 332 710 354 q 897 277 844 310 q 979 198 949 244 q 1010 83 1010 151 q 980 -44 1010 10 q 899 -133 950 -99 q 780 -185 849 -168 q 635 -201 711 -201 q 431 -172 531 -201 q 240 -79 332 -142 l 342 119 q 400 83 367 100 q 469 53 433 65 q 543 33 506 40 q 614 25 581 25 q 697 35 672 24 q 721 76 721 47 q 688 121 721 106 q 608 149 654 136 q 468 192 531 169 q 362 249 406 215 q 294 328 318 282 q 268 440 269 374 q 298 561 267 511 q 381 643 329 611 q 497 690 432 675 q 628 706 561 706 q 825 672 738 706 q 981 597 913 639 l 888 407 l 888 407 z "},"ｔ":{"ha":1250,"x_min":304,"x_max":946,"o":"m 743 664 l 932 664 l 932 425 l 743 425 l 743 153 q 763 99 743 119 q 817 79 782 79 l 946 79 l 946 -160 l 710 -160 q 611 -142 657 -160 q 530 -93 565 -125 q 474 -16 494 -61 q 454 86 454 29 l 454 425 l 304 425 l 304 664 l 454 664 l 454 947 l 743 947 l 743 664 z "},"ｕ":{"ha":1250,"x_min":178,"x_max":1071,"o":"m 801 -101 q 687 -165 751 -142 q 565 -187 622 -187 q 411 -163 482 -187 q 288 -94 340 -139 q 207 11 236 -50 q 178 146 178 72 l 178 664 l 467 664 l 467 235 q 479 148 467 183 q 513 91 492 113 q 560 60 533 69 q 615 51 588 51 q 723 90 678 51 q 782 190 768 128 l 782 664 l 1071 664 l 1071 -160 l 824 -160 l 801 -101 z "},"ｖ":{"ha":1250,"x_min":142,"x_max":1108,"o":"m 789 -160 l 461 -160 l 142 664 l 439 664 l 625 160 l 811 664 l 1108 664 l 789 -160 z "},"ｗ":{"ha":1250,"x_min":-4,"x_max":1254,"o":"m 763 664 l 875 233 l 996 664 l 1254 664 l 1008 -160 l 761 -160 l 625 354 l 489 -160 l 242 -160 l -4 664 l 254 664 l 374 233 l 488 664 l 763 664 z "},"ｘ":{"ha":1250,"x_min":135,"x_max":1115,"o":"m 472 664 l 625 468 l 778 664 l 1101 664 l 786 261 l 1115 -160 l 792 -160 l 625 53 l 458 -160 l 135 -160 l 463 261 l 149 664 l 472 664 z "},"ｙ":{"ha":1250,"x_min":178,"x_max":1071,"o":"m 1071 -128 q 1039 -297 1071 -221 q 951 -428 1007 -374 q 817 -513 894 -482 q 647 -549 739 -544 q 488 -534 567 -551 q 344 -475 408 -517 q 238 -367 281 -433 q 189 -204 196 -300 l 478 -204 q 524 -284 483 -257 q 614 -311 564 -311 q 679 -300 649 -311 q 733 -267 710 -289 q 769 -215 756 -246 q 782 -144 782 -185 l 782 -79 q 681 -139 739 -118 q 565 -160 624 -160 q 411 -135 482 -160 q 288 -67 340 -111 q 207 39 236 -22 q 178 174 178 100 l 178 664 l 467 664 l 467 263 q 479 176 467 211 q 513 119 492 140 q 560 88 533 97 q 615 79 588 79 q 723 117 678 79 q 782 218 768 156 l 782 664 l 1071 664 l 1071 -128 z "},"ｚ":{"ha":1250,"x_min":213,"x_max":1038,"o":"m 213 -160 l 213 53 l 632 425 l 243 425 l 243 665 l 1008 665 l 1008 454 l 583 79 l 1038 79 l 1038 -160 l 213 -160 z "},"｛":{"ha":1250,"x_min":618,"x_max":1186,"o":"m 864 394 q 992 320 953 375 q 1032 178 1032 265 l 1032 124 q 1073 34 1032 58 q 1186 10 1114 10 l 1186 -229 q 1006 -209 1088 -229 q 867 -149 925 -189 q 776 -51 808 -110 q 743 86 743 8 l 743 144 q 710 246 743 217 q 618 275 678 275 l 618 514 q 710 543 678 514 q 743 644 743 572 l 743 703 q 776 840 743 781 q 867 938 808 899 q 1006 998 925 978 q 1186 1018 1088 1018 l 1186 779 q 1073 755 1114 779 q 1032 665 1032 731 l 1032 611 q 992 469 1032 524 q 864 394 953 414 z "},"｜":{"ha":1250,"x_min":481,"x_max":769,"o":"m 769 989 l 769 -201 l 481 -201 l 481 989 l 769 989 z "},"｝":{"ha":1250,"x_min":63,"x_max":631,"o":"m 385 394 q 256 469 296 414 q 217 611 217 524 l 217 665 q 176 755 217 731 q 63 779 135 779 l 63 1018 q 242 998 160 1018 q 382 938 324 978 q 473 840 440 899 q 506 703 506 781 l 506 644 q 538 543 506 572 q 631 514 571 514 l 631 275 q 538 246 571 275 q 506 144 506 217 l 506 86 q 473 -51 506 8 q 382 -149 440 -110 q 242 -209 324 -189 q 63 -229 160 -229 l 63 10 q 176 34 135 10 q 217 124 217 58 l 217 178 q 256 320 217 265 q 385 394 296 375 z "},"￣":{"ha":1306,"x_min":15,"x_max":1290,"o":"m 15 951 l 15 1103 l 1290 1103 l 1290 951 l 15 951 z "},"ㄱ":{"ha":1250,"x_min":188,"x_max":1061,"o":"m 188 581 l 188 819 l 1061 819 l 1061 40 l 774 40 l 774 581 l 188 581 z "},"ㄲ":{"ha":1250,"x_min":147,"x_max":1103,"o":"m 574 750 l 574 819 l 1103 819 l 1103 40 l 814 40 l 814 567 l 629 567 l 629 40 l 342 40 l 342 497 l 147 497 l 147 750 l 574 750 z "},"ㄳ":{"ha":1250,"x_min":33,"x_max":1215,"o":"m 543 792 l 543 247 q 689 336 643 279 q 735 481 735 393 l 735 801 l 996 801 l 996 481 q 983 368 996 419 l 1215 226 l 1089 29 l 874 167 q 762 88 826 122 q 611 31 697 54 l 543 194 l 543 40 l 256 40 l 256 539 l 33 539 l 33 792 l 543 792 z "},"ㄴ":{"ha":1250,"x_min":188,"x_max":1061,"o":"m 1061 279 l 1061 40 l 188 40 l 188 819 l 475 819 l 475 279 l 1061 279 z "},"ㄵ":{"ha":1250,"x_min":40,"x_max":1210,"o":"m 1158 826 l 1158 617 l 990 617 l 990 481 q 978 368 990 419 l 1210 226 l 1083 29 l 868 167 q 756 88 821 122 q 606 31 692 54 l 525 225 l 525 40 l 40 40 l 40 819 l 328 819 l 328 279 l 525 279 l 525 243 q 680 332 631 275 q 729 481 729 389 l 729 617 l 542 617 l 542 826 l 1158 826 z "},"ㄶ":{"ha":1250,"x_min":61,"x_max":1189,"o":"m 504 279 l 504 40 l 61 40 l 61 819 l 349 819 l 349 279 l 504 279 m 1189 769 l 1189 544 l 528 544 l 528 769 l 724 769 l 724 857 l 996 857 l 996 769 l 1189 769 m 1157 258 q 1135 161 1157 204 q 1075 88 1114 118 q 981 42 1036 58 q 860 26 926 26 q 738 42 793 26 q 644 88 683 58 q 584 161 606 118 q 563 258 563 204 q 584 356 563 313 q 644 428 606 399 q 738 474 683 458 q 860 490 793 490 q 981 474 926 490 q 1075 428 1036 458 q 1135 356 1114 399 q 1157 258 1157 313 m 944 258 q 922 294 944 282 q 860 307 900 307 q 797 294 819 307 q 775 258 775 282 q 797 222 775 235 q 860 210 819 210 q 922 222 900 210 q 944 258 944 235 z "},"ㄷ":{"ha":1250,"x_min":181,"x_max":1068,"o":"m 468 581 l 468 279 l 1068 279 l 1068 40 l 181 40 l 181 819 l 1054 819 l 1054 581 l 468 581 z "},"ㄸ":{"ha":1250,"x_min":125,"x_max":1124,"o":"m 596 778 l 596 525 l 414 525 l 414 293 l 596 293 l 596 40 l 125 40 l 125 778 l 596 778 m 1110 819 l 1110 567 l 928 567 l 928 293 l 1124 293 l 1124 40 l 639 40 l 639 819 l 1110 819 z "},"ㄹ":{"ha":1250,"x_min":174,"x_max":1075,"o":"m 174 603 l 174 819 l 1047 819 l 1047 321 l 461 321 l 461 257 l 1075 257 l 1075 40 l 174 40 l 174 538 l 760 538 l 760 603 l 174 603 z "},"ㄺ":{"ha":1250,"x_min":97,"x_max":1153,"o":"m 97 608 l 97 819 l 611 819 l 611 324 l 371 324 l 371 251 l 639 251 l 639 40 l 97 40 l 97 535 l 338 535 l 338 608 l 97 608 m 1153 819 l 1153 40 l 864 40 l 864 567 l 665 567 l 665 819 l 1153 819 z "},"ㄻ":{"ha":1250,"x_min":90,"x_max":1160,"o":"m 90 608 l 90 819 l 576 819 l 576 324 l 364 324 l 364 251 l 583 251 l 583 40 l 90 40 l 90 535 l 303 535 l 303 608 l 90 608 m 1160 819 l 1160 40 l 632 40 l 632 819 l 1160 819 m 864 608 l 864 250 l 928 250 l 928 608 l 864 608 z "},"ㄼ":{"ha":1250,"x_min":90,"x_max":1160,"o":"m 857 646 l 935 646 l 935 821 l 1160 821 l 1160 40 l 632 40 l 632 821 l 857 821 l 857 646 m 90 608 l 90 819 l 576 819 l 576 324 l 364 324 l 364 251 l 583 251 l 583 40 l 90 40 l 90 535 l 303 535 l 303 608 l 90 608 m 935 250 l 935 436 l 857 436 l 857 250 l 935 250 z "},"ㄽ":{"ha":1250,"x_min":43,"x_max":1206,"o":"m 43 608 l 43 819 l 529 819 l 529 324 l 317 324 l 317 251 l 536 251 l 536 40 l 43 40 l 43 535 l 256 535 l 256 608 l 43 608 m 1000 508 q 988 382 1000 442 l 1206 213 l 1065 29 l 883 175 q 784 94 842 131 q 650 31 726 58 l 549 228 q 640 278 603 249 q 699 343 676 307 q 730 421 721 379 q 739 508 739 463 l 739 801 l 1000 801 l 1000 508 z "},"ㄾ":{"ha":1250,"x_min":83,"x_max":1165,"o":"m 913 608 l 913 535 l 1151 535 l 1151 324 l 913 324 l 913 251 l 1165 251 l 1165 40 l 625 40 l 625 819 l 1151 819 l 1151 608 l 913 608 m 83 608 l 83 819 l 569 819 l 569 324 l 357 324 l 357 251 l 576 251 l 576 40 l 83 40 l 83 535 l 296 535 l 296 608 l 83 608 z "},"ㄿ":{"ha":1250,"x_min":68,"x_max":1182,"o":"m 663 251 l 663 608 l 604 608 l 604 819 l 1182 819 l 1182 608 l 1124 608 l 1124 251 l 1182 251 l 1182 40 l 604 40 l 604 251 l 663 251 m 68 608 l 68 819 l 554 819 l 554 324 l 342 324 l 342 251 l 561 251 l 561 40 l 68 40 l 68 535 l 281 535 l 281 608 l 68 608 m 858 251 l 928 251 l 928 608 l 858 608 l 858 251 z "},"ㅀ":{"ha":1250,"x_min":68,"x_max":1182,"o":"m 68 608 l 68 819 l 554 819 l 554 324 l 342 324 l 342 251 l 561 251 l 561 40 l 68 40 l 68 535 l 281 535 l 281 608 l 68 608 m 1182 769 l 1182 544 l 590 544 l 590 769 l 751 769 l 751 857 l 1024 857 l 1024 769 l 1182 769 m 1164 258 q 1093 88 1164 150 q 888 26 1022 26 q 682 88 753 26 q 611 258 611 150 q 682 428 611 367 q 888 490 753 490 q 1093 428 1022 490 q 1164 258 1164 367 m 951 258 q 934 294 951 282 q 888 307 917 307 q 841 294 858 307 q 824 258 824 282 q 841 222 824 235 q 888 210 858 210 q 934 222 917 210 q 951 258 951 235 z "},"ㅁ":{"ha":1250,"x_min":188,"x_max":1061,"o":"m 1061 819 l 1061 40 l 188 40 l 188 819 l 1061 819 m 774 279 l 774 581 l 475 581 l 475 279 l 774 279 z "},"ㅂ":{"ha":1250,"x_min":188,"x_max":1061,"o":"m 1061 819 l 1061 40 l 188 40 l 188 819 l 475 819 l 475 663 l 774 663 l 774 819 l 1061 819 m 774 279 l 774 424 l 475 424 l 475 279 l 774 279 z "},"ㅃ":{"ha":1250,"x_min":124,"x_max":1126,"o":"m 850 661 l 925 661 l 925 819 l 1126 819 l 1126 40 l 650 40 l 650 819 l 850 819 l 850 661 m 325 635 l 400 635 l 400 778 l 600 778 l 600 40 l 124 40 l 124 778 l 325 778 l 325 635 m 925 265 l 925 438 l 850 438 l 850 265 l 925 265 m 400 265 l 400 411 l 325 411 l 325 265 l 400 265 z "},"ㅄ":{"ha":1250,"x_min":43,"x_max":1206,"o":"m 254 646 l 332 646 l 332 821 l 543 821 l 543 250 q 681 338 638 282 q 725 481 725 394 l 725 829 l 986 829 l 986 481 q 974 368 986 419 l 1206 226 l 1079 29 l 864 167 q 752 88 817 122 q 601 31 688 54 l 543 171 l 543 40 l 43 40 l 43 821 l 254 821 l 254 646 m 332 250 l 332 436 l 254 436 l 254 250 l 332 250 z "},"ㅅ":{"ha":1250,"x_min":121,"x_max":1129,"o":"m 765 576 q 753 464 765 518 l 1129 228 l 974 22 l 633 247 q 476 124 569 181 q 251 22 382 67 l 121 246 q 278 312 211 279 q 390 383 346 344 q 456 469 435 422 q 478 578 478 517 l 478 836 l 765 836 l 765 576 z "},"ㅆ":{"ha":1250,"x_min":50,"x_max":1199,"o":"m 543 571 l 543 549 l 729 438 q 742 572 742 496 l 742 836 l 1001 836 l 1001 571 q 978 368 1001 460 l 1199 229 l 1042 42 l 868 160 q 758 69 821 110 q 614 -3 694 29 l 469 172 q 550 209 513 190 q 619 251 588 228 l 494 329 q 373 163 451 231 q 189 53 294 94 l 50 235 q 222 353 160 271 q 283 572 283 436 l 283 836 l 543 836 l 543 571 z "},"ㅇ":{"ha":1250,"x_min":146,"x_max":1104,"o":"m 625 253 q 705 265 668 253 q 769 301 742 278 q 813 358 797 325 q 829 431 829 390 q 813 505 829 472 q 769 560 797 538 q 705 596 742 583 q 625 608 668 608 q 545 596 582 608 q 481 560 508 583 q 437 505 453 538 q 421 431 421 472 q 437 358 421 390 q 481 301 453 325 q 545 265 508 278 q 625 253 582 253 m 146 429 q 181 597 146 522 q 278 724 215 672 q 428 805 340 776 q 625 833 517 833 q 822 805 733 833 q 972 724 910 776 q 1069 597 1035 672 q 1104 429 1104 522 q 1069 263 1104 338 q 972 136 1035 189 q 822 55 910 83 q 625 26 733 26 q 428 55 517 26 q 278 136 340 83 q 181 263 215 189 q 146 429 146 338 z "},"ㅈ":{"ha":1250,"x_min":121,"x_max":1129,"o":"m 1069 819 l 1069 596 l 765 596 l 765 521 q 749 418 765 469 l 1129 228 l 974 22 l 615 213 q 463 103 553 153 q 251 22 372 54 l 121 246 q 390 366 303 292 q 478 522 478 440 l 478 596 l 174 596 l 174 819 l 1069 819 z "},"ㅉ":{"ha":1250,"x_min":50,"x_max":1199,"o":"m 469 172 q 541 202 507 188 q 604 233 575 217 l 492 303 q 370 153 447 213 q 189 53 293 93 l 50 235 q 148 278 104 253 q 222 340 192 303 q 267 426 251 376 q 283 544 283 476 l 283 581 l 104 581 l 104 819 l 1167 819 l 1167 581 l 1001 581 l 1001 543 q 997 448 1001 492 q 983 365 992 404 l 1199 229 l 1042 42 l 874 156 q 762 69 826 107 q 614 -3 697 31 l 469 172 m 729 411 q 742 544 742 465 l 742 581 l 543 581 l 543 543 l 543 521 l 729 411 z "},"ㅊ":{"ha":1250,"x_min":121,"x_max":1129,"o":"m 765 778 l 1069 778 l 1069 539 l 765 539 l 765 507 q 754 415 765 463 l 1129 228 l 974 22 l 626 207 q 470 102 563 149 q 251 22 378 56 l 121 246 q 278 294 211 269 q 390 350 346 319 q 456 419 435 381 q 478 508 478 457 l 478 539 l 174 539 l 174 778 l 478 778 l 478 886 l 765 886 l 765 778 z "},"ㅋ":{"ha":1250,"x_min":188,"x_max":1061,"o":"m 188 581 l 188 819 l 1061 819 l 1061 40 l 774 40 l 774 199 l 188 199 l 188 438 l 774 438 l 774 581 l 188 581 z "},"ㅌ":{"ha":1250,"x_min":181,"x_max":1068,"o":"m 468 603 l 468 538 l 1054 538 l 1054 321 l 468 321 l 468 257 l 1068 257 l 1068 40 l 181 40 l 181 819 l 1054 819 l 1054 603 l 468 603 z "},"ㅍ":{"ha":1250,"x_min":146,"x_max":1103,"o":"m 1103 40 l 146 40 l 146 265 l 257 265 l 257 594 l 146 594 l 146 819 l 1103 819 l 1103 594 l 992 594 l 992 265 l 1103 265 l 1103 40 m 544 265 l 704 265 l 704 594 l 544 594 l 544 265 z "},"ㅎ":{"ha":1250,"x_min":169,"x_max":1079,"o":"m 625 492 q 813 474 733 492 q 944 424 892 456 q 1021 350 996 393 q 1046 258 1046 307 q 1021 165 1046 208 q 944 91 996 122 q 813 42 892 60 q 625 25 733 25 q 438 42 517 25 q 306 91 358 60 q 229 165 254 122 q 204 258 204 208 q 229 350 204 307 q 306 424 254 393 q 438 474 358 456 q 625 492 517 492 m 768 778 l 1079 778 l 1079 539 l 169 539 l 169 778 l 481 778 l 481 886 l 768 886 l 768 778 m 625 307 q 527 294 563 307 q 492 258 492 282 q 527 222 492 235 q 625 208 563 208 q 723 222 688 208 q 758 258 758 235 q 723 294 758 282 q 625 307 688 307 z "},"ㅏ":{"ha":1250,"x_min":421,"x_max":829,"o":"m 708 607 l 829 607 l 829 368 l 708 368 l 708 -161 l 421 -161 l 421 1014 l 708 1014 l 708 607 z "},"ㅐ":{"ha":1250,"x_min":318,"x_max":932,"o":"m 318 -161 l 318 1014 l 588 1014 l 588 569 l 661 594 l 661 1014 l 932 1014 l 932 -161 l 661 -161 l 661 332 l 588 307 l 588 -161 l 318 -161 z "},"ㅑ":{"ha":1250,"x_min":421,"x_max":829,"o":"m 708 788 l 829 788 l 829 549 l 708 549 l 708 329 l 829 329 l 829 90 l 708 90 l 708 -161 l 421 -161 l 421 1014 l 708 1014 l 708 788 z "},"ㅒ":{"ha":1250,"x_min":318,"x_max":932,"o":"m 661 -161 l 661 83 l 588 58 l 588 -161 l 318 -161 l 318 1014 l 588 1014 l 588 793 l 661 818 l 661 1014 l 932 1014 l 932 -161 l 661 -161 m 588 321 l 661 346 l 661 556 l 588 531 l 588 321 z "},"ㅓ":{"ha":1250,"x_min":374,"x_max":876,"o":"m 876 -161 l 589 -161 l 589 318 l 374 246 l 374 508 l 589 581 l 589 1014 l 876 1014 l 876 -161 z "},"ㅔ":{"ha":1250,"x_min":213,"x_max":1036,"o":"m 436 333 l 213 258 l 213 521 l 436 596 l 436 1014 l 706 1014 l 706 -161 l 436 -161 l 436 333 m 765 -161 l 765 1014 l 1036 1014 l 1036 -161 l 765 -161 z "},"ㅕ":{"ha":1250,"x_min":374,"x_max":876,"o":"m 876 -161 l 589 -161 l 589 82 l 374 10 l 374 272 l 589 344 l 589 554 l 374 482 l 374 744 l 589 817 l 589 1014 l 876 1014 l 876 -161 z "},"ㅖ":{"ha":1250,"x_min":214,"x_max":1036,"o":"m 436 -161 l 436 57 l 214 -18 l 214 244 l 436 319 l 436 543 l 214 468 l 214 731 l 436 806 l 436 1014 l 706 1014 l 706 -161 l 436 -161 m 1036 -161 l 765 -161 l 765 1014 l 1036 1014 l 1036 -161 z "},"ㅗ":{"ha":1250,"x_min":65,"x_max":1183,"o":"m 65 369 l 481 369 l 481 792 l 768 792 l 768 369 l 1183 369 l 1183 131 l 65 131 l 65 369 z "},"ㅘ":{"ha":1250,"x_min":29,"x_max":1219,"o":"m 1099 607 l 1219 607 l 1219 368 l 1099 368 l 1099 -161 l 811 -161 l 811 1014 l 1099 1014 l 1099 607 m 243 106 l 243 306 l 531 306 l 531 106 l 757 106 l 757 -132 l 29 -132 l 29 106 l 243 106 z "},"ㅙ":{"ha":1250,"x_min":35,"x_max":1214,"o":"m 669 -161 l 669 1014 l 904 1014 l 904 572 l 978 597 l 978 1014 l 1214 1014 l 1214 -161 l 978 -161 l 978 335 l 904 310 l 904 -161 l 669 -161 m 207 106 l 207 304 l 467 304 l 467 106 l 631 106 l 631 -132 l 35 -132 l 35 106 l 207 106 z "},"ㅚ":{"ha":1250,"x_min":76,"x_max":1174,"o":"m 1174 -161 l 886 -161 l 886 1014 l 1174 1014 l 1174 -161 m 304 106 l 304 306 l 592 306 l 592 106 l 832 106 l 832 -132 l 76 -132 l 76 106 l 304 106 z "},"ㅛ":{"ha":1250,"x_min":65,"x_max":1183,"o":"m 65 369 l 244 369 l 244 792 l 532 792 l 532 369 l 717 369 l 717 792 l 1004 792 l 1004 369 l 1183 369 l 1183 131 l 65 131 l 65 369 z "},"ㅜ":{"ha":1250,"x_min":65,"x_max":1183,"o":"m 65 735 l 1183 735 l 1183 496 l 768 496 l 768 88 l 481 88 l 481 496 l 65 496 l 65 735 z "},"ㅝ":{"ha":1250,"x_min":76,"x_max":1174,"o":"m 886 110 l 886 1014 l 1174 1014 l 1174 -161 l 886 -161 l 886 -114 l 654 -114 l 654 110 l 886 110 m 290 -161 l 290 153 l 76 153 l 76 390 l 832 390 l 832 153 l 578 153 l 578 -161 l 290 -161 z "},"ㅞ":{"ha":1250,"x_min":32,"x_max":1218,"o":"m 688 110 l 688 1014 l 922 1014 l 922 -161 l 688 -161 l 688 -114 l 513 -114 l 513 110 l 688 110 m 1218 -161 l 982 -161 l 982 1014 l 1218 1014 l 1218 -161 m 197 -161 l 197 153 l 32 153 l 32 390 l 642 390 l 642 153 l 457 153 l 457 -161 l 197 -161 z "},"ㅟ":{"ha":1250,"x_min":76,"x_max":1174,"o":"m 1174 -161 l 886 -161 l 886 1014 l 1174 1014 l 1174 -161 m 290 -161 l 290 132 l 76 132 l 76 369 l 832 369 l 832 132 l 578 132 l 578 -161 l 290 -161 z "},"ㅠ":{"ha":1250,"x_min":65,"x_max":1183,"o":"m 65 735 l 1183 735 l 1183 496 l 1018 496 l 1018 88 l 731 88 l 731 496 l 518 496 l 518 88 l 231 88 l 231 496 l 65 496 l 65 735 z "},"ㅡ":{"ha":1250,"x_min":65,"x_max":1183,"o":"m 65 78 l 1183 78 l 1183 -161 l 65 -161 l 65 78 z "},"ㅢ":{"ha":1250,"x_min":76,"x_max":1174,"o":"m 832 106 l 832 -132 l 76 -132 l 76 106 l 832 106 m 1174 -161 l 886 -161 l 886 1014 l 1174 1014 l 1174 -161 z "},"ㅣ":{"ha":1250,"x_min":481,"x_max":768,"o":"m 768 -161 l 481 -161 l 481 1014 l 768 1014 l 768 -161 z "},"ㅤ":{"ha":1306,"x_min":0,"x_max":0,"o":""},"ㅥ":{"ha":1306,"x_min":199,"x_max":1107,"o":"m 199 93 l 199 803 l 432 803 l 432 278 l 624 278 l 624 93 l 199 93 m 678 93 l 678 803 l 911 803 l 911 278 l 1107 278 l 1107 93 l 678 93 z "},"ㅦ":{"ha":1306,"x_min":199,"x_max":1128,"o":"m 1121 803 l 1121 619 l 910 619 l 910 275 l 1128 275 l 1128 92 l 678 92 l 678 803 l 1121 803 m 199 93 l 199 803 l 432 803 l 432 278 l 624 278 l 624 93 l 199 93 z "},"ㅧ":{"ha":1306,"x_min":199,"x_max":1239,"o":"m 1040 511 q 1096 342 1040 411 q 1239 238 1151 272 l 1135 92 q 926 244 1013 138 q 834 156 882 193 q 721 93 786 118 l 615 239 q 692 281 656 256 q 755 340 728 307 q 797 416 782 374 q 813 511 813 458 l 813 810 l 1040 810 l 1040 511 m 597 93 l 597 278 l 432 278 l 432 803 l 199 803 l 199 93 l 597 93 z "},"ㅨ":{"ha":1306,"x_min":118,"x_max":1192,"o":"m 540 93 l 864 825 l 1192 93 l 540 93 m 867 406 l 808 244 l 925 244 l 867 406 m 118 93 l 118 803 l 351 803 l 351 278 l 517 278 l 517 93 l 118 93 z "},"ㅩ":{"ha":1306,"x_min":46,"x_max":1335,"o":"m 583 93 l 583 619 l 456 619 l 456 803 l 815 803 l 815 276 q 908 403 882 331 q 933 560 933 476 l 933 810 l 1160 810 l 1160 560 q 1168 464 1160 510 q 1197 377 1176 418 q 1251 301 1217 336 q 1335 239 1285 265 l 1226 90 q 1119 165 1163 121 q 1046 249 1075 208 q 977 165 1018 207 q 867 90 936 122 l 815 161 l 815 93 l 583 93 m 46 93 l 46 540 l 201 540 l 201 619 l 46 619 l 46 803 l 422 803 l 422 354 l 268 354 l 268 276 l 463 276 l 463 93 l 46 93 z "},"ㅪ":{"ha":1306,"x_min":157,"x_max":1157,"o":"m 157 93 l 157 540 l 390 540 l 390 619 l 157 619 l 157 803 l 621 803 l 621 354 l 389 354 l 389 276 l 635 276 l 635 93 l 157 93 m 1142 803 l 1142 619 l 913 619 l 913 275 l 1157 275 l 1157 92 l 681 92 l 681 803 l 1142 803 z "},"ㅫ":{"ha":1306,"x_min":46,"x_max":1331,"o":"m 1222 93 q 1117 166 1158 124 q 1046 249 1075 208 q 979 165 1018 207 q 871 92 940 124 l 826 153 l 826 92 l 450 92 l 450 803 l 624 803 l 624 597 l 653 597 l 653 803 l 826 803 l 826 283 q 910 407 888 336 q 933 560 933 478 l 933 810 l 1160 810 l 1160 560 q 1167 465 1160 510 q 1194 378 1175 419 q 1247 303 1214 338 q 1331 242 1281 268 l 1222 93 m 46 93 l 46 539 l 204 539 l 204 622 l 46 622 l 46 803 l 421 803 l 421 356 l 264 356 l 264 274 l 428 274 l 428 93 l 46 93 m 653 264 l 653 424 l 624 424 l 624 264 l 653 264 z "},"ㅬ":{"ha":1306,"x_min":132,"x_max":1232,"o":"m 132 93 l 132 540 l 346 540 l 346 619 l 132 619 l 132 803 l 578 803 l 578 354 l 365 354 l 365 276 l 578 276 l 578 93 l 132 93 m 586 93 l 907 825 l 1232 93 l 586 93 m 910 406 l 851 244 l 968 244 l 910 406 z "},"ㅭ":{"ha":1306,"x_min":132,"x_max":1169,"o":"m 899 79 q 716 147 781 79 q 651 333 651 214 q 716 521 651 451 q 899 590 781 590 q 1081 521 1017 590 q 1146 333 1146 451 q 1081 147 1146 215 q 899 79 1017 79 m 899 419 q 864 395 874 419 q 854 333 854 371 q 864 272 854 294 q 899 249 874 249 q 933 272 924 249 q 943 333 943 294 q 933 395 943 371 q 899 419 924 419 m 625 619 l 625 803 l 1169 803 l 1169 619 l 625 619 m 132 93 l 132 540 l 361 540 l 361 619 l 132 619 l 132 803 l 593 803 l 593 354 l 365 354 l 365 276 l 601 276 l 601 93 l 132 93 z "},"ㅮ":{"ha":1306,"x_min":153,"x_max":1151,"o":"m 153 93 l 153 803 l 624 803 l 624 93 l 153 93 m 889 619 l 943 619 l 943 803 l 1151 803 l 1151 93 l 681 93 l 681 803 l 889 803 l 889 619 m 413 629 l 364 629 l 364 267 l 413 267 l 413 629 m 943 443 l 889 443 l 889 267 l 943 267 l 943 443 z "},"ㅯ":{"ha":1306,"x_min":139,"x_max":1239,"o":"m 601 93 l 601 803 l 139 803 l 139 93 l 601 93 m 1040 511 q 1096 342 1040 411 q 1239 238 1151 272 l 1135 92 q 926 244 1013 138 q 834 156 882 193 q 721 93 786 118 l 615 239 q 692 281 656 256 q 755 340 728 307 q 797 416 782 374 q 813 511 813 458 l 813 810 l 1040 810 l 1040 511 m 396 264 l 344 264 l 344 632 l 396 632 l 396 264 z "},"ㅰ":{"ha":1306,"x_min":125,"x_max":1246,"o":"m 125 93 l 125 803 l 586 803 l 586 93 l 125 93 m 382 632 l 329 632 l 329 264 l 382 264 l 382 632 m 600 93 l 921 825 l 1246 93 l 600 93 m 924 406 l 865 244 l 982 244 l 924 406 z "},"ㅱ":{"ha":1306,"x_min":300,"x_max":1004,"o":"m 300 440 l 300 942 l 1004 942 l 1004 440 l 300 440 m 775 758 l 529 758 l 529 622 l 775 622 l 775 758 m 653 -49 q 472 9 538 -49 q 406 163 406 67 q 472 315 406 256 q 653 374 538 374 q 834 315 768 374 q 900 163 900 256 q 834 10 900 68 q 653 -49 768 -49 m 653 208 q 614 196 628 208 q 600 163 600 183 q 614 128 600 142 q 653 115 628 115 q 692 128 678 115 q 706 163 706 142 q 692 196 706 183 q 653 208 678 208 z "},"ㅲ":{"ha":1306,"x_min":151,"x_max":1149,"o":"m 363 619 l 411 619 l 411 803 l 622 803 l 622 93 l 151 93 l 151 803 l 363 803 l 363 619 m 917 93 l 917 619 l 679 619 l 679 803 l 1149 803 l 1149 93 l 917 93 m 411 443 l 363 443 l 363 267 l 411 267 l 411 443 z "},"ㅳ":{"ha":1306,"x_min":151,"x_max":1149,"o":"m 363 619 l 411 619 l 411 803 l 622 803 l 622 93 l 151 93 l 151 803 l 363 803 l 363 619 m 1142 803 l 1142 619 l 910 619 l 910 275 l 1149 275 l 1149 92 l 678 92 l 678 803 l 1142 803 m 411 443 l 363 443 l 363 267 l 411 267 l 411 443 z "},"ㅴ":{"ha":1306,"x_min":47,"x_max":1258,"o":"m 435 803 l 435 236 q 555 376 522 294 q 588 560 588 458 l 588 810 l 803 810 l 803 558 q 811 458 803 506 q 840 369 819 411 q 894 292 860 328 q 979 226 928 256 l 878 83 q 774 153 817 114 q 692 243 732 193 q 618 157 660 197 q 514 83 576 117 l 435 194 l 435 92 l 47 92 l 47 803 l 225 803 l 225 600 l 257 600 l 257 803 l 435 803 m 1026 93 l 1026 619 l 865 619 l 865 803 l 1258 803 l 1258 93 l 1026 93 m 257 264 l 257 424 l 225 424 l 225 264 l 257 264 z "},"ㅵ":{"ha":1306,"x_min":47,"x_max":1285,"o":"m 425 803 l 425 265 q 523 393 499 321 q 547 560 547 465 l 547 810 l 763 810 l 763 558 q 767 472 763 513 q 785 396 772 432 q 820 328 797 360 q 879 268 843 296 l 879 803 l 1272 803 l 1272 619 l 1100 619 l 1100 275 l 1285 275 l 1285 92 l 879 92 l 879 161 l 831 93 q 733 158 775 121 q 653 246 692 196 q 584 165 624 204 q 481 93 544 125 l 425 169 l 425 92 l 47 92 l 47 803 l 222 803 l 222 600 l 250 600 l 250 803 l 425 803 m 250 264 l 250 424 l 222 424 l 222 264 l 250 264 z "},"ㅶ":{"ha":1306,"x_min":133,"x_max":1213,"o":"m 339 619 l 396 619 l 396 803 l 601 803 l 601 93 l 133 93 l 133 803 l 339 803 l 339 619 m 1185 619 l 1031 619 l 1031 511 q 1078 344 1031 407 q 1213 243 1126 281 l 1108 100 q 1002 157 1049 124 q 915 243 956 190 q 832 160 875 193 q 726 99 789 126 l 621 242 q 754 343 706 279 q 803 511 803 407 l 803 619 l 649 619 l 649 803 l 1185 803 l 1185 619 m 396 443 l 339 443 l 339 267 l 396 267 l 396 443 z "},"ㅷ":{"ha":1306,"x_min":153,"x_max":1149,"o":"m 358 619 l 417 619 l 417 803 l 622 803 l 622 93 l 153 93 l 153 803 l 358 803 l 358 619 m 1128 358 l 907 358 l 907 275 l 1149 275 l 1149 93 l 679 93 l 679 803 l 1142 803 l 1142 621 l 907 621 l 907 542 l 1128 542 l 1128 358 m 417 443 l 358 443 l 358 267 l 417 267 l 417 443 z "},"ㅸ":{"ha":1306,"x_min":300,"x_max":1004,"o":"m 1004 956 l 1004 440 l 300 440 l 300 956 l 526 956 l 526 868 l 778 868 l 778 956 l 1004 956 m 653 -49 q 472 9 538 -49 q 406 163 406 67 q 472 315 406 256 q 653 374 538 374 q 834 315 768 374 q 900 163 900 256 q 834 10 900 68 q 653 -49 768 -49 m 778 622 l 778 686 l 526 686 l 526 622 l 778 622 m 653 208 q 614 196 628 208 q 600 163 600 183 q 614 128 600 142 q 653 115 628 115 q 692 128 678 115 q 706 163 706 142 q 692 196 706 183 q 653 208 678 208 z "},"ㅹ":{"ha":1306,"x_min":200,"x_max":1107,"o":"m 869 858 l 915 858 l 915 956 l 1107 956 l 1107 440 l 678 440 l 678 956 l 869 956 l 869 858 m 392 858 l 438 858 l 438 956 l 629 956 l 629 440 l 200 440 l 200 956 l 392 956 l 392 858 m 653 -49 q 472 9 538 -49 q 406 163 406 67 q 472 315 406 256 q 653 374 538 374 q 834 315 768 374 q 900 163 900 256 q 834 10 900 68 q 653 -49 768 -49 m 653 208 q 614 196 628 208 q 600 163 600 183 q 614 128 600 142 q 653 115 628 115 q 692 128 678 115 q 706 163 706 142 q 692 196 706 183 q 653 208 678 208 m 438 686 l 392 686 l 392 613 l 438 613 l 438 686 m 915 686 l 869 686 l 869 613 l 915 613 l 915 686 z "},"ㅺ":{"ha":1306,"x_min":97,"x_max":1126,"o":"m 549 507 q 604 341 549 407 q 772 226 660 275 l 667 79 q 541 142 600 104 q 432 240 482 179 q 331 147 386 188 q 203 79 275 106 l 97 225 q 265 340 210 274 q 321 507 321 407 l 321 810 l 549 810 l 549 507 m 1126 93 l 1126 803 l 635 803 l 635 619 l 894 619 l 894 93 l 1126 93 z "},"ㅻ":{"ha":1306,"x_min":96,"x_max":1199,"o":"m 1199 93 l 1199 283 l 963 283 l 963 803 l 732 803 l 732 93 l 1199 93 m 519 507 q 528 440 519 478 q 560 365 538 403 q 618 295 582 328 q 708 243 654 263 l 603 96 q 496 154 539 121 q 406 242 453 188 q 314 154 361 189 q 201 93 267 119 l 96 239 q 169 278 133 254 q 233 338 204 303 q 278 415 261 372 q 294 511 294 458 l 294 810 l 519 810 l 519 507 z "},"ㅼ":{"ha":1306,"x_min":96,"x_max":1192,"o":"m 732 803 l 732 92 l 1192 92 l 1192 272 l 956 272 l 956 622 l 1185 622 l 1185 803 l 732 803 m 519 507 q 528 440 519 478 q 560 365 538 403 q 618 295 582 328 q 708 243 654 263 l 603 96 q 496 154 539 121 q 406 242 453 188 q 314 154 361 189 q 201 93 267 119 l 96 239 q 169 278 133 254 q 233 338 204 303 q 278 415 261 372 q 294 511 294 458 l 294 810 l 519 810 l 519 507 z "},"ㅽ":{"ha":1306,"x_min":96,"x_max":1193,"o":"m 935 803 l 732 803 l 732 93 l 1193 93 l 1193 803 l 990 803 l 990 619 l 935 619 l 935 803 m 519 507 q 528 440 519 478 q 560 365 538 403 q 618 295 582 328 q 708 243 654 263 l 603 96 q 496 154 539 121 q 406 242 453 188 q 314 154 361 189 q 201 93 267 119 l 96 239 q 169 278 133 254 q 233 338 204 303 q 278 415 261 372 q 294 511 294 458 l 294 810 l 519 810 l 519 507 m 990 267 l 935 267 l 935 443 l 990 443 l 990 267 z "},"ㅾ":{"ha":1306,"x_min":31,"x_max":1251,"o":"m 1029 507 q 1038 440 1029 478 q 1070 362 1046 401 q 1138 287 1094 322 q 1251 228 1182 251 l 1146 81 q 1072 111 1104 94 q 1013 148 1040 128 q 963 191 986 168 q 915 242 939 214 q 815 146 869 188 q 688 81 760 104 l 640 144 l 594 81 q 521 111 553 94 q 462 148 489 128 q 411 191 435 168 q 364 242 388 214 q 263 146 318 188 q 136 81 208 104 l 31 226 q 192 334 131 263 q 253 511 253 406 l 253 810 l 478 810 l 478 507 q 484 447 478 481 q 508 380 490 414 q 558 313 526 346 q 640 253 590 279 q 760 358 715 293 q 804 511 804 422 l 804 619 l 649 619 l 649 803 l 1185 803 l 1185 619 l 1029 619 l 1029 507 z "},"ㅿ":{"ha":1306,"x_min":181,"x_max":1118,"o":"m 181 92 l 653 856 l 1118 92 l 181 92 m 653 494 l 511 254 l 783 254 l 653 494 z "},"ㆀ":{"ha":1306,"x_min":132,"x_max":1171,"o":"m 132 444 q 152 567 132 515 q 206 653 172 618 q 285 704 240 688 q 382 721 331 721 q 478 704 433 721 q 558 653 524 688 q 611 567 592 618 q 631 444 631 515 q 611 322 631 374 q 558 237 592 271 q 478 186 524 203 q 382 169 433 169 q 285 186 331 169 q 206 237 240 203 q 152 322 172 271 q 132 444 132 374 m 435 444 q 422 522 435 492 q 382 551 410 551 q 342 522 354 551 q 329 446 329 492 q 342 367 329 397 q 382 336 354 336 q 422 367 410 336 q 435 444 435 397 m 672 444 q 692 567 672 515 q 747 653 713 618 q 826 704 781 688 q 922 721 871 721 q 1019 704 974 721 q 1098 653 1064 688 q 1151 567 1132 618 q 1171 444 1171 515 q 1151 322 1171 374 q 1098 237 1132 271 q 1019 186 1064 203 q 922 169 974 169 q 826 186 871 169 q 747 237 781 203 q 692 322 713 271 q 672 444 672 374 m 975 444 q 963 522 975 492 q 922 551 950 551 q 882 522 894 551 q 869 446 869 492 q 882 367 869 397 q 922 336 894 336 q 963 367 950 336 q 975 444 975 397 z "},"ㆁ":{"ha":1306,"x_min":264,"x_max":1044,"o":"m 264 419 q 285 545 264 489 q 342 644 306 601 q 430 714 379 686 q 540 756 481 742 l 540 865 l 767 865 l 767 756 q 877 714 826 742 q 965 644 928 686 q 1024 545 1003 601 q 1044 419 1044 489 q 1014 269 1044 333 q 931 160 983 204 q 806 93 878 115 q 653 71 735 71 q 500 94 571 71 q 377 160 429 117 q 294 269 325 204 q 264 419 264 335 m 838 419 q 788 546 838 501 q 653 590 739 590 q 521 546 571 590 q 471 421 471 501 q 521 293 471 338 q 653 249 571 249 q 788 293 739 249 q 838 419 838 338 z "},"ㆂ":{"ha":1306,"x_min":85,"x_max":1250,"o":"m 85 419 q 128 633 85 549 q 264 750 172 718 l 264 865 l 490 865 l 490 750 q 625 634 581 718 q 669 419 669 550 q 597 163 669 254 q 376 71 524 71 q 157 163 229 71 q 85 419 85 256 m 1067 511 q 1117 343 1067 408 q 1250 242 1168 278 l 1149 94 q 1043 153 1094 118 q 951 242 992 189 q 868 158 911 190 q 764 97 825 125 l 658 242 q 789 345 739 282 q 839 511 839 408 l 839 810 l 1067 810 l 1067 511 m 464 419 q 446 546 464 499 q 376 593 428 593 q 309 547 328 593 q 290 421 290 500 q 309 293 290 340 q 376 246 328 246 q 446 293 428 246 q 464 419 464 340 z "},"ㆃ":{"ha":1306,"x_min":57,"x_max":1261,"o":"m 57 419 q 101 633 57 549 q 236 750 144 718 l 236 865 l 463 865 l 463 750 q 597 634 553 718 q 642 419 642 550 q 569 163 642 254 q 349 71 496 71 q 129 163 201 71 q 57 419 57 256 m 610 93 l 935 825 l 1261 93 l 610 93 m 436 419 q 418 546 436 499 q 349 593 400 593 q 281 547 300 593 q 263 421 263 500 q 281 293 263 340 q 349 246 300 246 q 418 293 400 246 q 436 419 436 340 m 938 404 l 874 243 l 999 243 l 938 404 z "},"ㆄ":{"ha":1306,"x_min":253,"x_max":1051,"o":"m 253 440 l 253 624 l 369 624 l 353 724 l 582 751 l 601 624 l 714 624 l 735 751 l 964 724 l 947 624 l 1051 624 l 1051 440 l 253 440 m 653 -49 q 472 9 538 -49 q 406 163 406 67 q 472 315 406 256 q 653 374 538 374 q 834 315 768 374 q 900 163 900 256 q 834 10 900 68 q 653 -49 768 -49 m 281 772 l 281 956 l 1024 956 l 1024 772 l 281 772 m 653 208 q 614 196 628 208 q 600 163 600 183 q 614 128 600 142 q 653 115 628 115 q 692 128 678 115 q 706 163 706 142 q 692 196 706 183 q 653 208 678 208 z "},"ㆅ":{"ha":1306,"x_min":71,"x_max":1233,"o":"m 186 675 l 186 850 l 529 850 l 529 675 l 186 675 m 71 478 l 71 653 l 638 653 l 638 478 l 71 478 m 358 68 q 178 119 246 68 q 111 265 111 169 q 178 410 111 358 q 358 463 246 463 q 538 410 471 463 q 606 265 606 358 q 538 119 606 171 q 358 68 471 68 m 358 310 q 322 299 336 310 q 308 265 308 289 q 322 231 308 244 q 358 218 336 218 q 394 231 381 218 q 408 265 408 244 q 394 299 408 289 q 358 310 381 310 m 776 675 l 776 850 l 1119 850 l 1119 675 l 776 675 m 667 478 l 667 653 l 1233 653 l 1233 478 l 667 478 m 949 68 q 769 119 836 68 q 701 265 701 169 q 769 410 701 358 q 949 463 836 463 q 1128 410 1061 463 q 1196 265 1196 358 q 1128 119 1196 171 q 949 68 1061 68 m 949 310 q 913 299 926 310 q 899 265 899 289 q 913 231 899 244 q 949 218 926 218 q 985 231 971 218 q 999 265 999 244 q 985 299 999 289 q 949 310 971 310 z "},"ㆆ":{"ha":1306,"x_min":242,"x_max":1064,"o":"m 242 619 l 242 803 l 1064 803 l 1064 619 l 242 619 m 306 326 q 396 517 306 453 q 653 582 486 582 q 911 517 821 582 q 1001 326 1001 453 q 911 135 1001 200 q 653 71 821 71 q 396 135 486 71 q 306 326 306 200 m 788 326 q 756 392 788 369 q 653 415 724 415 q 552 392 585 415 q 519 328 519 369 q 653 238 519 238 q 756 260 724 238 q 788 326 788 283 z "},"ㆇ":{"ha":1306,"x_min":7,"x_max":1297,"o":"m 1121 800 l 1297 800 l 1297 608 l 1121 608 l 1121 397 l 1297 397 l 1297 206 l 1121 206 l 1121 -225 l 889 -225 l 889 1076 l 1121 1076 l 1121 800 m 854 68 q 647 44 749 54 q 445 28 546 35 q 243 17 344 21 q 36 11 142 13 l 7 200 q 172 204 90 200 l 172 588 l 406 588 l 406 215 l 468 219 l 468 588 l 701 588 l 701 242 q 760 248 731 244 q 822 256 790 251 l 854 68 z "},"ㆈ":{"ha":1306,"x_min":6,"x_max":1219,"o":"m 947 810 l 990 810 l 990 1076 l 1219 1076 l 1219 -229 l 990 -229 l 990 208 l 947 208 l 947 -165 l 719 -165 l 719 1049 l 947 1049 l 947 810 m 686 44 q 362 22 521 29 q 36 11 203 14 l 6 199 q 48 199 26 199 q 92 200 69 200 l 92 588 l 325 588 l 325 210 q 352 211 339 211 q 379 213 365 211 l 379 588 l 613 588 l 613 229 l 658 233 l 686 44 m 947 399 l 990 399 l 990 619 l 947 619 l 947 399 z "},"ㆉ":{"ha":1306,"x_min":35,"x_max":1190,"o":"m 925 68 q 491 27 710 40 q 64 11 272 14 l 35 200 q 200 204 114 200 l 200 586 l 433 586 l 433 214 q 479 217 457 217 q 525 219 501 218 l 525 586 l 758 586 l 758 239 q 826 246 793 242 q 894 254 860 250 l 925 68 m 1190 -225 l 958 -225 l 958 1076 l 1190 1076 l 1190 -225 z "},"ㆊ":{"ha":1306,"x_min":26,"x_max":1192,"o":"m 219 -210 l 219 346 q 137 344 178 344 q 56 344 96 344 l 26 529 q 467 544 242 531 q 904 585 693 557 l 936 403 q 843 390 890 396 q 749 379 796 385 l 749 -210 l 515 -210 l 515 360 l 453 356 l 453 -210 l 219 -210 m 957 121 l 957 165 l 814 165 l 814 351 l 957 351 l 957 1082 l 1192 1082 l 1192 -231 l 957 -231 l 957 -65 l 814 -65 l 814 121 l 957 121 z "},"ㆋ":{"ha":1306,"x_min":-1,"x_max":1221,"o":"m 101 -156 l 101 350 q 64 349 82 349 q 28 349 46 349 l -1 533 q 340 543 167 535 q 690 567 514 551 l 719 386 q 661 381 690 383 q 603 375 632 378 l 603 -156 l 376 -156 l 376 361 q 351 359 364 360 q 328 358 339 358 l 328 -156 l 101 -156 m 728 122 l 728 167 l 658 167 l 658 353 l 728 353 l 728 1054 l 954 1054 l 954 -171 l 728 -171 l 728 -64 l 658 -64 l 658 122 l 728 122 m 993 -235 l 993 1082 l 1221 1082 l 1221 -235 l 993 -235 z "},"ㆌ":{"ha":1306,"x_min":26,"x_max":1192,"o":"m 219 -210 l 219 207 q 137 206 178 206 q 56 206 96 206 l 26 390 q 467 405 242 392 q 904 446 693 418 l 936 264 q 843 251 890 257 q 749 240 796 246 l 749 -210 l 515 -210 l 515 221 l 453 217 l 453 -210 l 219 -210 m 1192 -231 l 957 -231 l 957 1082 l 1192 1082 l 1192 -231 z "},"ㆍ":{"ha":1306,"x_min":485,"x_max":819,"o":"m 819 446 q 807 381 819 411 q 772 330 794 351 q 718 297 749 308 q 653 285 688 285 q 586 297 617 285 q 533 330 556 308 q 497 381 510 351 q 485 446 485 411 q 497 510 485 481 q 533 563 510 540 q 586 597 556 585 q 653 608 617 608 q 718 597 688 608 q 772 563 749 585 q 807 510 794 540 q 819 446 819 481 z "},"ㆎ":{"ha":1306,"x_min":326,"x_max":990,"o":"m 618 456 q 576 353 618 393 q 472 314 535 314 q 368 353 410 314 q 326 456 326 393 q 368 557 326 518 q 472 596 410 596 q 576 557 535 596 q 618 456 618 518 m 990 -225 l 756 -225 l 756 1076 l 990 1076 l 990 -225 z "},"ⅰ":{"ha":1306,"x_min":540,"x_max":765,"o":"m 540 664 l 765 664 l 765 -69 l 540 -69 l 540 664 m 765 735 l 540 735 l 540 947 l 765 947 l 765 735 z "},"ⅱ":{"ha":1306,"x_min":374,"x_max":932,"o":"m 374 664 l 599 664 l 599 -69 l 374 -69 l 374 664 m 599 735 l 374 735 l 374 947 l 599 947 l 599 735 m 707 664 l 932 664 l 932 -69 l 707 -69 l 707 664 m 932 735 l 707 735 l 707 947 l 932 947 l 932 735 z "},"ⅲ":{"ha":1306,"x_min":207,"x_max":1099,"o":"m 207 664 l 432 664 l 432 -69 l 207 -69 l 207 664 m 432 735 l 207 735 l 207 947 l 432 947 l 432 735 m 540 664 l 765 664 l 765 -69 l 540 -69 l 540 664 m 765 735 l 540 735 l 540 947 l 765 947 l 765 735 m 874 664 l 1099 664 l 1099 -69 l 874 -69 l 874 664 m 1099 735 l 874 735 l 874 947 l 1099 947 l 1099 735 z "},"ⅳ":{"ha":1306,"x_min":189,"x_max":1179,"o":"m 678 664 l 815 261 l 957 664 l 1179 664 l 908 -69 l 717 -69 l 449 664 l 678 664 m 189 664 l 414 664 l 414 -69 l 189 -69 l 189 664 m 414 735 l 189 735 l 189 947 l 414 947 l 414 735 z "},"ⅴ":{"ha":1306,"x_min":288,"x_max":1018,"o":"m 517 664 l 654 261 l 796 664 l 1018 664 l 747 -69 l 556 -69 l 288 664 l 517 664 z "},"ⅵ":{"ha":1306,"x_min":128,"x_max":1111,"o":"m 357 664 l 494 261 l 636 664 l 858 664 l 588 -69 l 396 -69 l 128 664 l 357 664 m 886 664 l 1111 664 l 1111 -69 l 886 -69 l 886 664 m 1111 735 l 886 735 l 886 947 l 1111 947 l 1111 735 z "},"ⅶ":{"ha":1306,"x_min":67,"x_max":1203,"o":"m 286 665 l 404 261 l 521 664 l 736 664 l 500 -69 l 308 -69 l 67 665 l 286 665 m 993 664 l 1203 664 l 1203 -69 l 993 -69 l 993 664 m 756 664 l 965 664 l 965 -69 l 756 -69 l 756 664 m 1203 735 l 993 735 l 993 947 l 1203 947 l 1203 735 m 965 735 l 756 735 l 756 947 l 965 947 l 965 735 z "},"ⅷ":{"ha":1306,"x_min":53,"x_max":1210,"o":"m 246 664 l 306 310 l 368 664 l 557 664 l 407 -69 l 215 -69 l 53 664 l 246 664 m 796 664 l 992 664 l 992 -75 l 796 -75 l 796 664 m 1014 664 l 1210 664 l 1210 -75 l 1014 -75 l 1014 664 m 576 664 l 772 664 l 772 -75 l 576 -75 l 576 664 m 772 735 l 576 735 l 576 947 l 772 947 l 772 735 m 1210 735 l 1014 735 l 1014 947 l 1210 947 l 1210 735 m 992 735 l 796 735 l 796 947 l 992 947 l 992 735 z "},"ⅸ":{"ha":1306,"x_min":189,"x_max":1171,"o":"m 681 296 l 432 664 l 672 664 l 801 474 l 931 664 l 1171 664 l 922 296 l 1171 -69 l 928 -69 l 801 117 l 676 -69 l 433 -69 l 681 296 m 189 664 l 414 664 l 414 -69 l 189 -69 l 189 664 m 414 735 l 189 735 l 189 947 l 414 947 l 414 735 z "},"ⅹ":{"ha":1306,"x_min":288,"x_max":1026,"o":"m 536 296 l 288 664 l 528 664 l 657 474 l 786 664 l 1026 664 l 778 296 l 1026 -69 l 783 -69 l 657 117 l 532 -69 l 289 -69 l 536 296 z "},"Ⅰ":{"ha":1306,"x_min":536,"x_max":765,"o":"m 765 -68 l 536 -68 l 536 942 l 765 942 l 765 -68 z "},"Ⅱ":{"ha":1306,"x_min":369,"x_max":932,"o":"m 599 -68 l 369 -68 l 369 942 l 599 942 l 599 -68 m 932 -68 l 703 -68 l 703 942 l 932 942 l 932 -68 z "},"Ⅲ":{"ha":1306,"x_min":203,"x_max":1100,"o":"m 432 -68 l 203 -68 l 203 942 l 432 942 l 432 -68 m 767 -68 l 538 -68 l 538 942 l 767 942 l 767 -68 m 1100 -68 l 871 -68 l 871 942 l 1100 942 l 1100 -68 z "},"Ⅳ":{"ha":1306,"x_min":143,"x_max":1217,"o":"m 800 319 l 989 940 l 1217 940 l 893 -69 l 711 -69 l 386 940 l 614 940 l 800 319 m 372 -68 l 143 -68 l 143 942 l 372 942 l 372 -68 z "},"Ⅴ":{"ha":1306,"x_min":233,"x_max":1069,"o":"m 650 318 l 842 940 l 1069 940 l 740 -69 l 558 -69 l 233 940 l 461 940 l 650 318 z "},"Ⅵ":{"ha":1306,"x_min":83,"x_max":1161,"o":"m 497 319 l 686 940 l 914 940 l 590 -69 l 408 -69 l 83 940 l 311 940 l 497 319 m 1161 -68 l 932 -68 l 932 942 l 1161 942 l 1161 -68 z "},"Ⅶ":{"ha":1306,"x_min":68,"x_max":1203,"o":"m 400 393 l 518 940 l 735 940 l 494 -69 l 307 -69 l 68 940 l 285 940 l 400 393 m 1203 -69 l 988 -69 l 988 940 l 1203 940 l 1203 -69 m 967 -69 l 751 -69 l 751 940 l 967 940 l 967 -69 z "},"Ⅷ":{"ha":1306,"x_min":36,"x_max":1204,"o":"m 288 451 l 351 940 l 544 940 l 392 -75 l 190 -75 l 36 940 l 228 940 l 288 451 m 1204 -69 l 1006 -69 l 1006 940 l 1204 940 l 1204 -69 m 985 -69 l 786 -69 l 786 940 l 985 940 l 985 -69 m 765 -69 l 567 -69 l 567 940 l 765 940 l 765 -69 z "},"Ⅸ":{"ha":1306,"x_min":154,"x_max":1226,"o":"m 685 436 l 394 940 l 642 940 l 808 651 l 974 940 l 1221 940 l 933 436 l 1226 -69 l 976 -69 l 810 219 l 644 -69 l 394 -69 l 685 436 m 383 -69 l 154 -69 l 154 940 l 383 940 l 383 -69 z "},"Ⅹ":{"ha":1306,"x_min":207,"x_max":1096,"o":"m 651 238 l 457 -78 l 207 -78 l 528 440 l 214 951 l 463 951 l 653 643 l 843 951 l 1092 951 l 776 440 l 1096 -78 l 846 -78 l 651 238 z "},"Α":{"ha":833,"x_min":-17,"x_max":846,"o":"m 554 163 l 275 163 l 203 -69 l -17 -69 l 319 940 l 513 940 l 846 -69 l 628 -69 l 554 163 m 329 336 l 500 336 l 414 610 l 329 336 z "},"Β":{"ha":792,"x_min":74,"x_max":763,"o":"m 382 940 q 524 926 463 940 q 629 881 586 913 q 694 798 672 849 q 717 675 717 747 q 713 614 717 643 q 697 559 708 585 q 666 511 686 533 q 614 468 646 489 q 726 369 690 432 q 763 229 763 307 q 740 90 763 147 q 675 -2 718 33 q 571 -53 632 -37 q 431 -69 510 -69 l 74 -69 l 74 940 l 382 940 m 413 114 q 510 138 478 114 q 543 231 543 163 q 505 327 543 294 q 399 360 467 360 l 279 360 l 279 114 l 413 114 m 367 543 q 464 572 431 543 q 497 668 497 600 q 465 740 497 724 q 379 757 432 757 l 279 757 l 279 543 l 367 543 z "},"Γ":{"ha":736,"x_min":88,"x_max":706,"o":"m 88 -71 l 88 940 l 706 940 l 706 754 l 319 754 l 319 -71 l 88 -71 z "},"Δ":{"ha":889,"x_min":-6,"x_max":893,"o":"m -6 -69 l 382 940 l 529 940 l 893 -69 l -6 -69 m 450 568 l 288 114 l 600 114 l 450 568 z "},"Ε":{"ha":778,"x_min":74,"x_max":742,"o":"m 299 360 l 299 115 l 742 115 l 742 -69 l 74 -69 l 74 940 l 719 940 l 719 756 l 299 756 l 299 543 l 697 543 l 697 360 l 299 360 z "},"Ζ":{"ha":792,"x_min":8,"x_max":771,"o":"m 476 756 l 35 756 l 35 940 l 764 940 l 764 817 l 296 115 l 771 115 l 771 -69 l 8 -69 l 8 53 l 476 756 z "},"Η":{"ha":917,"x_min":74,"x_max":842,"o":"m 303 543 l 613 543 l 613 940 l 842 940 l 842 -69 l 613 -69 l 613 360 l 303 360 l 303 -69 l 74 -69 l 74 940 l 303 940 l 303 543 z "},"Θ":{"ha":972,"x_min":33,"x_max":939,"o":"m 486 -90 q 301 -57 385 -90 q 158 42 218 -24 q 66 204 99 108 q 33 425 33 300 q 65 653 33 554 q 157 819 97 753 q 300 920 217 886 q 486 954 383 954 q 672 920 589 954 q 815 819 756 886 q 907 653 875 753 q 939 425 939 554 q 906 204 939 300 q 814 42 874 108 q 671 -57 754 -24 q 486 -90 588 -90 m 486 775 q 378 749 424 775 q 304 676 333 722 q 262 565 275 629 q 249 425 249 501 q 263 287 249 349 q 308 181 278 225 q 382 114 338 138 q 486 90 426 90 q 590 114 546 90 q 665 181 635 138 q 709 287 694 225 q 724 425 724 349 q 710 565 724 501 q 668 676 697 629 q 594 749 639 722 q 486 775 549 775 m 282 332 l 282 515 l 690 515 l 690 332 l 282 332 z "},"Ι":{"ha":335,"x_min":51,"x_max":281,"o":"m 281 -69 l 51 -69 l 51 940 l 281 940 l 281 -69 z "},"Κ":{"ha":824,"x_min":74,"x_max":913,"o":"m 471 507 l 913 -69 l 651 -69 l 325 357 l 300 329 l 300 -69 l 74 -69 l 74 940 l 300 940 l 300 604 l 628 942 l 892 942 l 471 507 z "},"Λ":{"ha":833,"x_min":-7,"x_max":839,"o":"m -7 -69 l 324 940 l 508 940 l 839 -69 l 603 -69 l 414 551 l 229 -69 l -7 -69 z "},"Μ":{"ha":1083,"x_min":74,"x_max":1008,"o":"m 768 940 l 1008 940 l 1008 -69 l 810 -69 l 810 456 l 640 -69 l 442 -69 l 272 456 l 272 -69 l 74 -69 l 74 940 l 314 940 l 540 222 l 768 940 z "},"Ν":{"ha":924,"x_min":74,"x_max":854,"o":"m 854 -69 l 615 -69 l 289 572 l 289 -71 l 74 -71 l 74 940 l 313 940 l 639 303 l 639 940 l 854 940 l 854 -69 z "},"Ξ":{"ha":917,"x_min":86,"x_max":828,"o":"m 86 760 l 86 943 l 828 943 l 828 760 l 86 760 m 189 360 l 189 542 l 726 542 l 726 360 l 189 360 m 86 -71 l 86 113 l 828 113 l 828 -71 l 86 -71 z "},"Ο":{"ha":972,"x_min":33,"x_max":939,"o":"m 486 -96 q 303 -61 386 -96 q 160 40 221 -26 q 67 203 100 106 q 33 425 33 300 q 66 654 33 554 q 158 822 99 754 q 301 925 218 890 q 486 960 385 960 q 671 925 588 960 q 814 822 754 890 q 906 654 874 754 q 939 425 939 554 q 906 203 939 300 q 812 40 872 106 q 669 -61 751 -26 q 486 -96 586 -96 m 486 781 q 381 753 425 781 q 308 678 336 726 q 265 566 279 631 q 251 425 251 501 q 266 286 251 349 q 310 178 281 224 q 384 109 340 133 q 486 85 428 85 q 588 109 544 85 q 662 178 632 133 q 706 286 692 224 q 721 425 721 349 q 707 566 721 501 q 665 678 693 631 q 592 753 636 726 q 486 781 547 781 z "},"Π":{"ha":917,"x_min":88,"x_max":828,"o":"m 828 -72 l 599 -72 l 599 760 l 317 760 l 317 -72 l 88 -72 l 88 943 l 828 943 l 828 -72 z "},"Ρ":{"ha":774,"x_min":74,"x_max":749,"o":"m 417 940 q 668 865 588 940 q 749 631 749 790 q 667 390 749 474 q 417 306 586 306 l 294 306 l 294 -69 l 74 -69 l 74 940 l 417 940 m 411 490 q 499 521 469 490 q 528 628 528 551 q 499 730 528 704 q 411 756 469 756 l 294 756 l 294 490 l 411 490 z "},"Σ":{"ha":792,"x_min":50,"x_max":751,"o":"m 50 -69 l 50 29 l 449 435 l 50 808 l 50 940 l 750 940 l 750 757 l 382 757 l 724 449 l 390 115 l 751 115 l 751 -69 l 50 -69 z "},"Τ":{"ha":736,"x_min":-6,"x_max":742,"o":"m -6 756 l -6 940 l 742 940 l 742 756 l 478 756 l 478 -69 l 249 -69 l 249 756 l -6 756 z "},"Υ":{"ha":833,"x_min":-26,"x_max":857,"o":"m 300 376 l -26 940 l 214 940 l 415 576 l 619 940 l 857 940 l 529 378 l 529 -69 l 300 -69 l 300 376 z "},"Φ":{"ha":889,"x_min":54,"x_max":833,"o":"m 549 790 q 664 745 611 776 q 754 668 717 714 q 813 561 792 622 q 833 425 833 500 q 813 289 833 350 q 754 181 792 228 q 664 104 717 135 q 549 60 611 74 l 549 -69 l 338 -69 l 338 60 q 223 105 275 74 q 133 182 171 136 q 75 289 96 228 q 54 425 54 350 q 75 561 54 500 q 133 668 96 622 q 223 745 171 714 q 338 790 275 776 l 338 942 l 549 942 l 549 790 m 624 425 q 549 599 624 547 l 549 250 q 624 425 624 301 m 264 426 q 338 253 264 304 l 338 597 q 264 426 264 546 z "},"Χ":{"ha":819,"x_min":-26,"x_max":847,"o":"m 286 438 l -24 939 l 222 939 l 408 636 l 596 940 l 847 940 l 535 435 l 847 -69 l 601 -69 l 411 236 l 224 -69 l -26 -69 l 286 438 z "},"Ψ":{"ha":944,"x_min":64,"x_max":881,"o":"m 586 414 q 640 481 621 438 q 660 594 660 524 l 660 942 l 881 942 l 881 613 q 859 447 881 517 q 799 328 838 376 q 706 253 760 281 q 586 213 651 225 l 586 -69 l 360 -69 l 360 213 q 240 252 294 224 q 146 328 185 281 q 85 447 107 376 q 64 613 64 517 l 64 942 l 285 942 l 285 594 q 304 480 285 524 q 360 413 324 436 l 360 942 l 586 942 l 586 414 z "},"Ω":{"ha":1056,"x_min":51,"x_max":1004,"o":"m 528 771 q 350 691 407 771 q 293 476 293 611 q 344 231 293 336 q 489 69 396 126 l 489 -71 l 51 -71 l 51 113 l 181 113 q 95 281 122 188 q 68 475 68 375 q 184 826 68 703 q 528 949 300 949 q 872 826 756 949 q 988 475 988 703 q 960 281 988 375 q 875 113 933 188 l 1004 113 l 1004 -71 l 567 -71 l 567 69 q 711 231 660 126 q 763 476 763 336 q 706 691 763 611 q 528 771 649 771 z "},"α":{"ha":865,"x_min":32,"x_max":872,"o":"m 872 85 q 839 -1 857 32 q 799 -55 821 -35 q 748 -83 776 -75 q 685 -90 719 -90 q 644 -85 665 -90 q 601 -67 622 -79 q 561 -33 579 -54 q 531 18 543 -12 q 476 -37 503 -17 q 422 -70 449 -58 q 369 -85 394 -82 q 324 -89 344 -89 q 184 -60 240 -89 q 94 19 128 -31 q 46 137 60 69 q 35 281 32 204 q 56 435 38 363 q 113 563 75 508 q 210 649 150 617 q 353 681 269 681 q 399 677 374 681 q 451 662 424 674 q 506 627 478 650 q 558 564 533 604 l 592 669 l 788 608 l 646 208 q 663 104 650 129 q 692 79 676 79 q 701 90 694 79 q 715 144 707 100 l 872 85 m 449 315 q 431 455 456 401 q 353 508 406 508 q 297 485 319 508 q 263 426 275 461 q 244 349 250 390 q 238 275 239 308 q 253 128 232 175 q 322 82 274 82 q 377 104 354 82 q 415 160 400 126 q 438 235 431 194 q 449 315 446 276 z "},"β":{"ha":750,"x_min":88,"x_max":707,"o":"m 707 233 q 690 108 707 167 q 637 7 674 50 q 543 -61 600 -36 q 407 -86 486 -86 q 349 -82 379 -86 q 294 -67 319 -78 l 294 -251 l 88 -251 l 88 671 q 107 803 88 750 q 164 889 126 857 q 255 934 201 921 q 375 947 308 947 q 591 876 513 947 q 669 678 669 804 q 652 572 669 622 q 586 478 635 522 q 680 361 653 429 q 707 233 707 293 m 503 233 q 498 289 503 261 q 482 338 493 317 q 453 374 471 360 q 408 388 435 388 l 338 388 l 338 551 l 408 551 q 452 579 440 551 q 464 676 464 607 q 440 755 464 731 q 375 779 417 779 q 344 774 358 779 q 318 757 329 769 q 301 722 307 744 q 294 664 294 700 l 294 114 q 341 87 318 93 q 393 81 364 81 q 478 122 453 81 q 503 233 503 163 z "},"γ":{"ha":722,"x_min":1,"x_max":721,"o":"m 456 97 q 497 35 476 67 q 533 -28 517 4 q 559 -131 560 -81 q 534 -219 558 -181 q 464 -282 510 -258 q 354 -306 418 -306 q 248 -284 296 -306 q 173 -225 200 -262 q 143 -137 146 -187 q 171 -29 140 -86 q 210 39 189 4 q 258 110 232 74 l 1 614 l 186 696 l 357 314 l 536 690 l 721 610 l 456 97 m 382 -114 q 374 -87 382 -107 q 356 -50 365 -67 q 334 -87 340 -69 q 328 -115 328 -106 q 354 -149 328 -149 q 382 -114 382 -149 z "},"δ":{"ha":778,"x_min":40,"x_max":739,"o":"m 40 261 q 58 365 40 315 q 106 456 75 414 q 181 535 138 499 q 275 599 224 571 q 201 691 222 643 q 181 781 181 739 q 236 899 181 851 q 408 947 292 947 q 551 926 492 947 q 656 868 610 904 l 558 713 q 493 762 525 740 q 414 783 461 783 q 397 781 404 783 q 389 767 389 778 q 417 705 389 732 q 475 658 446 678 q 679 470 619 564 q 739 267 739 376 q 715 121 739 186 q 644 9 690 56 q 534 -62 599 -37 q 389 -87 469 -87 q 247 -67 311 -87 q 138 -3 183 -46 q 66 106 92 40 q 40 261 40 172 m 521 257 q 515 325 521 296 q 492 379 508 354 q 449 428 476 404 q 381 482 422 453 q 293 394 329 450 q 257 263 257 338 q 269 177 257 211 q 301 123 281 143 q 346 94 321 103 q 396 86 371 86 q 483 126 446 86 q 521 257 521 165 z "},"ε":{"ha":653,"x_min":33,"x_max":626,"o":"m 626 115 q 511 -41 583 4 q 329 -86 439 -86 q 215 -75 268 -86 q 121 -38 161 -64 q 57 29 81 -12 q 33 132 33 71 q 40 185 33 157 q 65 241 47 214 q 114 290 83 268 q 192 325 144 313 q 131 353 156 335 q 90 395 106 372 q 67 442 74 418 q 60 485 60 465 q 85 583 60 543 q 149 645 110 622 q 238 678 189 668 q 335 688 286 688 q 494 653 426 688 q 613 528 563 618 l 446 439 q 386 502 414 483 q 335 521 358 521 q 288 514 307 521 q 269 488 269 507 q 283 451 269 465 q 319 427 296 436 q 374 415 342 418 q 442 413 406 411 l 442 235 q 292 208 338 232 q 247 135 247 185 q 269 95 247 107 q 331 83 292 83 q 399 107 372 83 q 447 189 425 131 l 626 115 z "},"ζ":{"ha":639,"x_min":26,"x_max":611,"o":"m 611 -124 q 600 -192 611 -160 q 565 -249 589 -225 q 501 -288 540 -274 q 407 -303 463 -303 q 369 -302 386 -303 q 334 -298 353 -301 q 293 -286 315 -294 q 239 -262 271 -278 l 297 -100 q 333 -115 310 -107 q 381 -126 357 -124 q 411 -108 408 -128 q 401 -81 413 -92 q 374 -65 390 -71 q 338 -54 357 -58 q 304 -46 318 -50 q 196 1 246 -29 q 109 72 146 31 q 51 166 72 114 q 29 279 31 218 q 75 513 26 394 q 236 761 124 632 l 88 761 l 88 942 l 519 942 l 519 796 q 317 555 389 682 q 251 283 244 428 q 284 172 256 210 q 381 118 313 133 q 482 85 439 104 q 553 39 525 67 q 597 -28 582 11 q 611 -124 611 -68 z "},"η":{"ha":833,"x_min":72,"x_max":868,"o":"m 689 -50 q 694 -71 689 -62 q 713 -79 700 -79 q 738 -67 724 -79 q 764 -35 751 -56 l 868 -154 q 779 -234 822 -212 q 692 -256 736 -256 q 534 -210 593 -256 q 475 -62 475 -164 l 475 419 q 450 490 475 471 q 388 508 425 508 q 337 493 358 508 q 292 442 315 478 l 292 -79 l 72 -79 l 72 664 l 292 664 l 292 635 q 323 658 306 649 q 358 672 340 667 q 390 680 375 678 q 415 682 406 682 q 526 665 476 682 q 613 616 576 649 q 669 535 649 583 q 689 421 689 486 l 689 -50 z "},"θ":{"ha":806,"x_min":49,"x_max":757,"o":"m 403 -86 q 137 47 225 -86 q 49 425 49 181 q 135 815 49 679 q 403 950 221 950 q 671 815 585 950 q 757 425 757 679 q 669 47 757 181 q 403 -86 581 -86 m 403 776 q 341 757 367 776 q 298 703 315 738 q 272 620 281 668 q 258 515 263 572 l 546 515 q 534 620 543 572 q 508 703 525 668 q 465 757 490 738 q 403 776 439 776 m 403 89 q 503 155 471 89 q 544 332 536 221 l 260 332 q 301 155 268 221 q 403 89 335 89 z "},"ι":{"ha":389,"x_min":53,"x_max":413,"o":"m 269 667 l 269 111 q 271 92 269 97 q 281 86 272 86 q 300 99 292 86 q 317 126 308 111 l 413 13 q 372 -36 390 -17 q 333 -67 353 -56 q 292 -84 313 -79 q 244 -89 271 -89 q 166 -79 201 -89 q 106 -48 131 -69 q 67 8 81 -26 q 53 93 53 43 l 53 667 l 269 667 z "},"κ":{"ha":669,"x_min":72,"x_max":711,"o":"m 415 364 l 711 -69 l 468 -69 l 289 201 l 289 -69 l 72 -69 l 72 664 l 289 664 l 289 499 l 446 663 l 700 663 l 415 364 z "},"λ":{"ha":874,"x_min":24,"x_max":890,"o":"m 382 294 l 217 -106 l 24 -33 l 286 592 l 250 704 q 229 743 242 732 q 203 757 217 754 q 197 757 200 757 q 188 756 194 757 q 171 753 182 756 q 140 746 160 750 l 96 933 q 173 949 144 947 q 226 950 201 951 q 363 906 304 944 q 453 774 422 867 l 651 165 q 667 123 660 140 q 683 104 675 106 q 695 113 690 103 q 710 158 700 122 l 890 88 q 853 3 871 36 q 811 -51 835 -31 q 756 -78 788 -71 q 679 -86 725 -86 q 531 -35 589 -86 q 443 110 474 17 l 382 294 z "},"μ":{"ha":750,"x_min":72,"x_max":689,"o":"m 467 664 l 689 664 l 689 182 q 622 -12 689 60 q 417 -85 554 -85 q 350 -77 381 -85 q 294 -50 319 -69 l 294 -346 l 72 -346 l 72 664 l 294 664 l 294 163 q 339 106 318 124 q 394 89 360 89 q 449 110 431 89 q 467 181 467 131 l 467 664 z "},"ν":{"ha":694,"x_min":-1,"x_max":711,"o":"m 458 -69 l 310 -69 l 118 458 q 106 484 114 472 q 84 505 97 496 q 50 518 71 514 q -1 521 29 522 l -1 701 q 23 703 13 703 q 44 703 33 703 q 210 662 149 703 q 301 532 272 621 l 381 292 l 492 664 l 711 664 l 458 -69 z "},"ξ":{"ha":639,"x_min":88,"x_max":613,"o":"m 190 653 q 199 712 190 688 q 232 760 208 736 l 88 760 l 88 942 l 515 942 l 513 789 q 431 733 461 761 q 401 657 401 706 q 422 599 401 622 q 478 558 443 575 l 478 407 q 401 376 435 397 q 344 328 367 356 q 310 269 321 300 q 299 210 299 239 q 322 154 300 179 q 383 118 344 129 q 474 85 432 103 q 547 39 515 67 q 595 -28 578 11 q 613 -124 613 -68 q 601 -195 613 -162 q 566 -252 590 -228 q 502 -290 542 -276 q 407 -303 463 -303 q 369 -302 386 -303 q 333 -297 351 -301 q 292 -285 314 -293 q 238 -261 269 -276 l 297 -100 q 335 -117 313 -108 q 385 -129 357 -125 q 402 -127 394 -131 q 413 -115 410 -124 q 407 -90 417 -101 q 381 -71 397 -79 q 343 -56 364 -62 q 304 -46 322 -50 q 222 -13 260 -35 q 156 40 183 8 q 112 111 128 71 q 96 200 96 151 q 141 363 96 292 q 290 494 186 433 q 217 565 244 522 q 190 653 190 608 z "},"ο":{"ha":764,"x_min":18,"x_max":746,"o":"m 382 -96 q 239 -72 306 -96 q 124 1 172 -47 q 47 123 75 50 q 18 292 18 196 q 45 467 18 392 q 121 591 72 542 q 236 665 169 640 q 382 689 303 689 q 528 665 461 689 q 643 591 594 640 q 719 467 692 542 q 746 292 746 392 q 717 123 746 196 q 640 1 689 50 q 525 -72 592 -47 q 382 -96 458 -96 m 382 519 q 313 502 342 519 q 267 454 285 485 q 242 382 250 424 q 233 292 233 340 q 274 128 233 182 q 382 74 314 74 q 490 128 450 74 q 531 292 531 182 q 522 382 531 340 q 497 454 514 424 q 451 502 479 485 q 382 519 422 519 z "}}}
